<?xml version="1.0" encoding="utf-8"?>
<!-- Generator: Adobe Illustrator 24.0.3, SVG Export Plug-In . SVG Version: 6.00 Build 0)  -->
<svg version="1.1" id="Livello_1" xmlns="http://www.w3.org/2000/svg" xmlns:xlink="http://www.w3.org/1999/xlink" x="0px" y="0px"
	 viewBox="0 0 400 400" style="enable-background:new 0 0 400 400;" xml:space="preserve">
<style type="text/css">
	.st0{fill:#856F42;}
	.st1{fill:#F8E631;}
	.st2{fill:#FF0000;}
	.st3{fill:#C40000;}
	.st4{fill:#8E0202;}
	.st5{fill:#FFFF3C;}
	.st6{fill:#F8C25A;}
	.st7{fill:#D7AA4C;}
</style>
<title>Pixel_Icone-rubini</title>
<polygon class="st0" points="126.3,135.8 105.3,135.8 105.3,157.2 84.2,157.2 84.2,178.6 105.3,178.6 126.3,178.6 147.4,178.6 
	147.4,157.2 126.3,157.2 "/>
<polygon class="st0" points="294.7,157.2 294.7,135.8 273.7,135.8 273.7,157.2 252.6,157.2 252.6,178.6 273.7,178.6 294.7,178.6 
	315.8,178.6 315.8,157.2 "/>
<polygon class="st1" points="315.8,178.6 294.7,178.6 273.7,178.6 252.6,178.6 231.6,178.6 231.6,200 252.6,200 273.7,200 
	294.7,200 294.7,221.4 315.8,221.4 315.8,200 336.8,200 336.8,178.6 "/>
<polygon class="st1" points="126.3,178.6 105.3,178.6 84.2,178.6 63.2,178.6 63.2,200 84.2,200 84.2,221.4 105.3,221.4 105.3,200 
	126.3,200 147.4,200 168.4,200 168.4,178.6 147.4,178.6 "/>
<polygon class="st1" points="357.9,200 336.8,200 336.8,221.4 357.9,221.4 378.9,221.4 378.9,200 "/>
<polygon class="st1" points="21.1,200 21.1,221.4 42.1,221.4 63.2,221.4 63.2,200 42.1,200 "/>
<rect x="189.5" y="200" class="st2" width="21.1" height="21.4"/>
<rect x="357.9" y="221.4" class="st2" width="21.1" height="21.4"/>
<rect x="273.7" y="221.4" class="st2" width="21.1" height="21.4"/>
<rect x="168.4" y="221.4" class="st2" width="21.1" height="21.4"/>
<rect x="84.2" y="221.4" class="st2" width="21.1" height="21.4"/>
<rect x="21.1" y="221.4" class="st2" width="21.1" height="21.4"/>
<rect x="294.7" y="221.4" class="st3" width="21.1" height="21.4"/>
<polygon class="st3" points="189.5,221.4 189.5,242.8 168.4,242.8 168.4,264.2 189.5,264.2 210.5,264.2 210.5,242.8 231.6,242.8 
	231.6,221.4 210.5,221.4 "/>
<rect x="105.3" y="221.4" class="st3" width="21.1" height="21.4"/>
<rect x="357.9" y="242.8" class="st3" width="21.1" height="21.4"/>
<rect x="273.7" y="242.8" class="st3" width="21.1" height="21.4"/>
<rect x="84.2" y="242.8" class="st3" width="21.1" height="21.4"/>
<rect x="21.1" y="242.8" class="st3" width="21.1" height="21.4"/>
<rect x="294.7" y="242.8" class="st4" width="21.1" height="21.4"/>
<rect x="210.5" y="242.8" class="st4" width="21.1" height="21.4"/>
<rect x="105.3" y="242.8" class="st4" width="21.1" height="21.4"/>
<rect x="189.5" y="264.2" class="st4" width="21.1" height="21.4"/>
<rect x="189.5" y="93" class="st5" width="21.1" height="21.4"/>
<rect x="210.5" y="114.4" class="st5" width="21.1" height="21.4"/>
<rect x="168.4" y="114.4" class="st5" width="21.1" height="21.4"/>
<polygon class="st5" points="357.9,135.8 357.9,157.2 336.8,157.2 336.8,178.6 336.8,200 357.9,200 378.9,200 378.9,178.6 
	378.9,157.2 378.9,135.8 "/>
<rect x="189.5" y="135.8" class="st5" width="21.1" height="21.4"/>
<rect x="210.5" y="157.2" class="st5" width="21.1" height="21.4"/>
<rect x="168.4" y="157.2" class="st5" width="21.1" height="21.4"/>
<polygon class="st5" points="63.2,200 63.2,178.6 63.2,157.2 42.1,157.2 42.1,135.8 21.1,135.8 21.1,157.2 21.1,178.6 21.1,200 
	42.1,200 "/>
<polygon class="st5" points="336.8,264.2 315.8,264.2 294.7,264.2 273.7,264.2 252.6,264.2 231.6,264.2 231.6,285.6 252.6,285.6 
	273.7,285.6 294.7,285.6 315.8,285.6 336.8,285.6 357.9,285.6 378.9,285.6 378.9,264.2 357.9,264.2 "/>
<polygon class="st5" points="147.4,264.2 126.3,264.2 105.3,264.2 84.2,264.2 63.2,264.2 42.1,264.2 21.1,264.2 21.1,285.6 
	42.1,285.6 63.2,285.6 84.2,285.6 105.3,285.6 126.3,285.6 147.4,285.6 168.4,285.6 168.4,264.2 "/>
<rect x="210.5" y="285.6" class="st5" width="21.1" height="21.4"/>
<rect x="168.4" y="285.6" class="st5" width="21.1" height="21.4"/>
<rect x="189.5" y="157.2" class="st6" width="21.1" height="21.4"/>
<rect x="210.5" y="178.6" class="st6" width="21.1" height="21.4"/>
<rect x="168.4" y="178.6" class="st6" width="21.1" height="21.4"/>
<rect x="315.8" y="200" class="st6" width="21.1" height="21.4"/>
<polygon class="st6" points="252.6,200 231.6,200 231.6,221.4 252.6,221.4 273.7,221.4 294.7,221.4 294.7,200 273.7,200 "/>
<polygon class="st6" points="126.3,200 105.3,200 105.3,221.4 126.3,221.4 147.4,221.4 168.4,221.4 168.4,200 147.4,200 "/>
<rect x="63.2" y="200" class="st6" width="21.1" height="21.4"/>
<rect x="336.8" y="285.6" class="st6" width="21.1" height="21.4"/>
<rect x="231.6" y="285.6" class="st6" width="21.1" height="21.4"/>
<rect x="147.4" y="285.6" class="st6" width="21.1" height="21.4"/>
<rect x="42.1" y="285.6" class="st6" width="21.1" height="21.4"/>
<rect x="189.5" y="178.6" class="st7" width="21.1" height="21.4"/>
<rect x="210.5" y="200" class="st7" width="21.1" height="21.4"/>
<rect x="168.4" y="200" class="st7" width="21.1" height="21.4"/>
<polygon class="st7" points="168.4,221.4 147.4,221.4 126.3,221.4 126.3,242.8 126.3,264.2 147.4,264.2 168.4,264.2 168.4,242.8 "/>
<polygon class="st7" points="357.9,242.8 357.9,221.4 336.8,221.4 315.8,221.4 315.8,242.8 315.8,264.2 336.8,264.2 357.9,264.2 "/>
<polygon class="st7" points="273.7,264.2 273.7,242.8 273.7,221.4 252.6,221.4 231.6,221.4 231.6,242.8 231.6,264.2 252.6,264.2 "/>
<polygon class="st7" points="84.2,264.2 84.2,242.8 84.2,221.4 63.2,221.4 42.1,221.4 42.1,242.8 42.1,264.2 63.2,264.2 "/>
<rect x="210.5" y="264.2" class="st7" width="21.1" height="21.4"/>
<rect x="168.4" y="264.2" class="st7" width="21.1" height="21.4"/>
<rect x="357.9" y="285.6" class="st7" width="21.1" height="21.4"/>
<polygon class="st7" points="294.7,285.6 273.7,285.6 252.6,285.6 252.6,307 273.7,307 294.7,307 315.8,307 336.8,307 336.8,285.6 
	315.8,285.6 "/>
<rect x="189.5" y="285.6" class="st7" width="21.1" height="21.4"/>
<polygon class="st7" points="105.3,285.6 84.2,285.6 63.2,285.6 63.2,307 84.2,307 105.3,307 126.3,307 147.4,307 147.4,285.6 
	126.3,285.6 "/>
<rect x="21.1" y="285.6" class="st7" width="21.1" height="21.4"/>
</svg>
