<?xml version="1.0" encoding="utf-8"?>
<!-- Generator: Adobe Illustrator 24.0.1, SVG Export Plug-In . SVG Version: 6.00 Build 0)  -->
<svg version="1.1" id="Livello_1" xmlns="http://www.w3.org/2000/svg" xmlns:xlink="http://www.w3.org/1999/xlink" x="0px" y="0px"
	 viewBox="0 0 614.4 127.1" style="enable-background:new 0 0 614.4 127.1;" xml:space="preserve">
<style type="text/css">
	.st0{opacity:0.75;}
	.st1{fill:#FFFFFF;}
</style>
<title>bottone-intro-testo</title>
<g class="st0">
	<polygon class="st1" points="35.3,17.6 21.2,17.6 21.2,63.5 21.2,109.5 35.3,109.5 35.3,63.5 	"/>
	<polygon class="st1" points="35.3,109.5 35.3,123.6 84.7,123.6 105.9,123.6 127,123.6 148.2,123.6 169.4,123.6 190.6,123.6 
		211.8,123.6 233,123.6 254.2,123.6 275.4,123.6 296.6,123.6 307.2,123.6 317.8,123.6 339,123.6 360.2,123.6 381.4,123.6 
		402.6,123.6 423.8,123.6 445,123.6 466.2,123.6 487.4,123.6 508.5,123.6 529.7,123.6 579.1,123.6 579.1,109.5 307.2,109.5 	"/>
	<polygon class="st1" points="579.1,17.6 579.1,63.5 579.1,109.5 593.2,109.5 593.2,63.5 593.2,17.6 	"/>
	<polygon class="st1" points="579.1,17.6 579.1,3.5 529.7,3.5 508.5,3.5 487.4,3.5 466.2,3.5 445,3.5 423.8,3.5 402.6,3.5 
		381.4,3.5 360.2,3.5 339,3.5 317.8,3.5 307.2,3.5 296.6,3.5 275.4,3.5 254.2,3.5 233,3.5 211.8,3.5 190.6,3.5 169.4,3.5 148.2,3.5 
		127,3.5 105.9,3.5 84.7,3.5 35.3,3.5 35.3,17.6 307.2,17.6 	"/>
</g>
</svg>
