<svg xmlns="http://www.w3.org/2000/svg" width="1080" height="1926" viewBox="0 0 1080 1926"><defs><style>.cls-1{fill:#405b3b;}.cls-2{fill:#4b8f39;}.cls-3{fill:#49a93a;}.cls-4{fill:#4be046;}.cls-5{fill:#8aeca1;}</style></defs><title>background</title><g id="Livello_12" data-name="Livello 12"><path class="cls-1" d="M20.9379,1925.821H1080.25V1583.4866h-42.3716v-21.3992h-21.1855v21.3992h-21.186v-42.7908H974.3212v-21.3992h-21.186v42.7908H868.392v-21.3916H847.2065v-21.3992H804.8271v21.3992H762.4555v-64.19H741.27v64.19h-21.186v-21.3992H677.7123v21.3992H614.1552v-21.3992h-21.186V1497.905H571.7836v21.3916H550.5981v42.7908h-84.751v-21.3916H444.6615v21.3916H402.29v-21.3916H381.1039V1497.905H359.9184v42.7908H275.1752v-21.3992h-21.186v21.3992H190.4321v42.7908H169.246v-21.3992H126.8671v42.7908h-21.186v-42.7908H84.4955v-42.7908H63.31v42.7908H42.1239v-21.3916H20.9379v64.1824H-.2476v42.7986H20.9379v-21.3992h21.186v-21.3994H63.31v21.3994h21.186v21.3992H63.31v21.3916H42.1239v21.3991H63.31v42.791H42.1239v-42.791H-.2476V1925.821Zm21.186-149.7717H63.31v21.3992H42.1239ZM84.4955,1754.65h21.1856v21.3992h21.186v21.3992h-21.186v-21.3992H84.4955Zm63.5572-85.5817H169.246v21.3991H148.0527Zm105.9365-42.7908v-21.3994h21.186v42.7986h-21.186Zm699.146,0v42.7908H910.7636v-21.3916H931.95v-21.3992h-21.186v-21.3994H931.95v21.3994ZM148.0527,1733.2585H169.246v-21.3994h21.1861v21.3994H169.246V1754.65H148.0527Zm42.3794-64.19h21.1855v21.3991h21.186v-21.3991h21.1856v21.3991h21.186v21.3916h-21.186v-21.3916H232.8036v21.3916h-21.186v-21.3916H190.4321ZM402.29,1711.8591h21.1855v-21.3916h42.3716v21.3916H423.4755v21.3994H402.29Zm127.122,0H508.2265v42.791H487.04v-64.1826H529.412Zm233.0435-85.5815H741.27v42.7908h21.1856v-21.3916h42.3716v-21.3992H783.6415v-21.3994h21.1856v21.3994H826.02v21.3992H804.8271v21.3916H762.4555v21.3991H741.27v21.3916h-21.186v-21.3916H698.8984v-21.3991h21.1855v-42.7908H698.8984v-21.3994h63.5571Zm-105.9287,85.5815h21.1855v21.3994H656.5268Zm0-42.7907h21.1855v21.3991H656.5268Zm338.98,149.7717H974.3212v-21.3916h21.1856Zm-741.5176-42.7908h21.186v21.3992h-21.186ZM889.578,1754.65v21.3992H868.392V1754.65Zm-42.3715,64.19H868.392V1840.24H847.2065Zm21.1855-128.3726H847.2065v-21.3991H868.392ZM826.02,1711.8591H804.8271v-21.3916H826.02Zm-63.5649,42.791v21.3992H741.27v-42.7908h21.1856Zm-254.229,42.7984H487.04v-21.3992h21.1861ZM338.7323,1840.24h21.1861v21.3916H338.7323Zm338.98-213.9619v21.3992H656.5268v-42.7986h21.1855Zm-63.5571,149.7717v21.3992h-21.186v-21.3992Zm-275.4229-42.7908V1754.65H317.5468v-21.3916h-21.186v-21.3994h21.186v21.3994Zm677.9605,21.3916h-21.186v-21.3916h21.186Zm-423.7236-21.3916H571.7836V1754.65H550.5981v-21.3916h21.1855v-21.3994h21.1856Zm-84.7427-64.19H487.04v-21.3916h21.1861ZM402.29,1626.2776v21.3992h21.1855v21.3916H402.29v21.3991H381.1039v21.3916H359.9184v-21.3916h21.1855v-21.3991H402.29v-21.3916H359.9184v-21.3992h21.1855v-21.3994H402.29Zm-63.5577-21.3994v64.19H317.5468v21.3991h-21.186v-21.3991h21.186v-42.7908h-21.186v-21.3994h21.186v-21.3916h21.1855Zm720.3321,128.38h-21.1861v-21.3994h21.1861Zm0-64.19h-21.1861v-21.3916h21.1861Zm-42.3716-64.19h21.1855v21.3994h-21.1855v21.3992h-21.186v42.7907H974.3212v-42.7907h21.1856v-42.7986Zm-148.3008,0H847.2065v-21.3916H868.392Zm-296.6084-64.1824h21.1856v21.3916H571.7836Zm-21.1855,42.7908h21.1855v42.791h21.1856v64.19H571.7836v-42.7907H529.412v-21.3992h21.1861v-21.3994H529.412v-21.3916Zm-42.3716,0v21.3916H487.04v-21.3916Zm-42.3794,0v21.3916H444.6615v-21.3916Zm-254.2295,21.3916h21.186v21.3994H190.4321v-21.3994Zm-105.9365,21.3994h21.186v21.3992h-21.186Zm-21.1856,64.19h21.1856v-21.3991h21.186v21.3991h-21.186v21.3916H84.4955Z"/><polygon class="cls-1" points="889.578 1540.696 910.764 1540.696 910.764 1519.297 910.764 1497.905 889.578 1497.905 868.392 1497.905 868.392 1519.297 889.578 1519.297 889.578 1540.696"/><rect class="cls-1" x="402.29" y="1497.905" width="21.1855" height="21.3916"/><rect class="cls-1" x="614.1552" y="1497.905" width="21.186" height="21.3916"/><polygon class="cls-1" points="20.938 1476.506 20.938 1497.905 42.124 1497.905 63.309 1497.905 63.309 1476.506 42.124 1476.506 20.938 1476.506"/><rect class="cls-1" x="338.7323" y="1476.5056" width="21.186" height="21.3994"/><rect class="cls-1" x="656.5268" y="1476.5056" width="21.1855" height="21.3994"/><rect class="cls-1" x="974.3212" y="1476.5056" width="21.1855" height="21.3994"/><polygon class="cls-1" points="148.053 1476.506 148.053 1455.106 126.867 1455.106 105.681 1455.106 105.681 1476.506 126.867 1476.506 148.053 1476.506"/><rect class="cls-1" x="1016.6928" y="1433.7148" width="21.1855" height="21.3916"/><rect class="cls-1" x="-0.2476" y="1412.3157" width="21.1855" height="21.3992"/><rect class="cls-1" x="126.8671" y="1412.3157" width="21.1855" height="21.3992"/><rect class="cls-1" x="253.9892" y="1412.3157" width="21.186" height="21.3992"/><rect class="cls-1" x="465.8471" y="1412.3157" width="21.1934" height="21.3992"/><polygon class="cls-1" points="42.124 1412.316 42.124 1433.715 63.309 1433.715 63.309 1412.316 63.309 1390.924 63.309 1369.525 63.309 1348.125 42.124 1348.125 42.124 1369.525 20.938 1369.525 20.938 1390.924 42.124 1390.924 42.124 1412.316"/><rect class="cls-1" x="656.5268" y="1390.9241" width="21.1855" height="21.3916"/><rect class="cls-1" x="953.1352" y="1390.9241" width="21.186" height="21.3916"/><rect class="cls-2" x="338.7323" y="1840.2395" width="21.186" height="21.3916"/><rect class="cls-2" x="847.2065" y="1818.8401" width="21.1855" height="21.3994"/><rect class="cls-2" x="974.3212" y="1797.4485" width="21.1855" height="21.3916"/><rect class="cls-2" x="42.1239" y="1776.0493" width="21.1855" height="21.3992"/><rect class="cls-2" x="105.6811" y="1776.0493" width="21.186" height="21.3992"/><rect class="cls-2" x="253.9892" y="1776.0493" width="21.186" height="21.3992"/><rect class="cls-2" x="487.0404" y="1776.0493" width="21.186" height="21.3992"/><rect class="cls-2" x="592.9692" y="1776.0493" width="21.186" height="21.3992"/><rect class="cls-2" x="84.4955" y="1754.6501" width="21.1855" height="21.3992"/><rect class="cls-2" x="868.392" y="1754.6501" width="21.186" height="21.3992"/><rect class="cls-2" x="148.0527" y="1733.2585" width="21.1934" height="21.3916"/><rect class="cls-2" x="317.5468" y="1733.2585" width="21.1855" height="21.3916"/><rect class="cls-2" x="550.5981" y="1733.2585" width="21.1855" height="21.3916"/><polygon class="cls-2" points="741.27 1754.65 741.27 1776.049 762.455 1776.049 762.455 1754.65 762.455 1733.259 741.27 1733.259 741.27 1754.65"/><rect class="cls-2" x="995.5068" y="1733.2585" width="21.186" height="21.3916"/><polygon class="cls-2" points="42.124 1733.259 63.309 1733.259 63.309 1711.859 63.309 1690.468 42.124 1690.468 42.124 1711.859 42.124 1733.259"/><rect class="cls-2" x="169.246" y="1711.8591" width="21.186" height="21.3994"/><rect class="cls-2" x="296.3608" y="1711.8591" width="21.186" height="21.3994"/><rect class="cls-2" x="402.29" y="1711.8591" width="21.1855" height="21.3994"/><rect class="cls-2" x="571.7836" y="1711.8591" width="21.1855" height="21.3994"/><rect class="cls-2" x="656.5268" y="1711.8591" width="21.1855" height="21.3994"/><rect class="cls-2" x="1037.8783" y="1711.8591" width="21.186" height="21.3994"/><rect class="cls-2" x="84.4955" y="1690.4675" width="21.1855" height="21.3916"/><rect class="cls-2" x="211.6176" y="1690.4675" width="21.186" height="21.3916"/><rect class="cls-2" x="253.9892" y="1690.4675" width="21.186" height="21.3916"/><rect class="cls-2" x="359.9184" y="1690.4675" width="21.1855" height="21.3916"/><polygon class="cls-2" points="423.476 1690.468 423.476 1711.859 444.662 1711.859 465.847 1711.859 465.847 1690.468 444.662 1690.468 423.476 1690.468"/><polygon class="cls-2" points="487.04 1690.468 487.04 1711.859 487.04 1733.259 487.04 1754.65 508.226 1754.65 508.226 1733.259 508.226 1711.859 529.412 1711.859 529.412 1690.468 508.226 1690.468 487.04 1690.468"/><rect class="cls-2" x="804.8271" y="1690.4675" width="21.1934" height="21.3916"/><polygon class="cls-2" points="20.938 1690.468 42.124 1690.468 42.124 1669.068 63.309 1669.068 63.309 1647.677 84.496 1647.677 84.496 1626.278 63.309 1626.278 63.309 1604.878 42.124 1604.878 42.124 1626.278 20.938 1626.278 20.938 1647.677 -0.248 1647.677 -0.248 1669.068 -0.248 1690.468 20.938 1690.468"/><rect class="cls-2" x="105.6811" y="1669.0684" width="21.186" height="21.3992"/><rect class="cls-2" x="148.0527" y="1669.0684" width="21.1934" height="21.3992"/><rect class="cls-2" x="190.4321" y="1669.0684" width="21.1855" height="21.3992"/><rect class="cls-2" x="232.8036" y="1669.0684" width="21.1855" height="21.3992"/><rect class="cls-2" x="296.3608" y="1669.0684" width="21.186" height="21.3992"/><rect class="cls-2" x="381.1039" y="1669.0684" width="21.186" height="21.3992"/><rect class="cls-2" x="656.5268" y="1669.0684" width="21.1855" height="21.3992"/><rect class="cls-2" x="847.2065" y="1669.0684" width="21.1855" height="21.3992"/><polygon class="cls-2" points="317.547 1669.068 338.732 1669.068 338.732 1647.677 338.732 1626.278 338.732 1604.878 338.732 1583.487 317.547 1583.487 317.547 1604.878 296.361 1604.878 296.361 1626.278 317.547 1626.278 317.547 1647.677 317.547 1669.068"/><rect class="cls-2" x="402.29" y="1647.6768" width="21.1855" height="21.3916"/><rect class="cls-2" x="487.0404" y="1647.6768" width="21.186" height="21.3916"/><polygon class="cls-2" points="741.27 1647.677 741.27 1626.278 762.455 1626.278 762.455 1604.878 741.27 1604.878 720.084 1604.878 698.898 1604.878 698.898 1626.278 720.084 1626.278 720.084 1647.677 720.084 1669.068 698.898 1669.068 698.898 1690.468 720.084 1690.468 720.084 1711.859 741.27 1711.859 741.27 1690.468 762.455 1690.468 762.455 1669.068 741.27 1669.068 741.27 1647.677"/><polygon class="cls-2" points="762.455 1647.677 762.455 1669.068 783.642 1669.068 804.827 1669.068 804.827 1647.677 783.642 1647.677 762.455 1647.677"/><polygon class="cls-2" points="974.321 1669.068 974.321 1690.468 995.507 1690.468 995.507 1669.068 995.507 1647.677 974.321 1647.677 974.321 1669.068"/><rect class="cls-2" x="1037.8783" y="1647.6768" width="21.186" height="21.3916"/><rect class="cls-2" x="105.6811" y="1626.2776" width="21.186" height="21.3992"/><polygon class="cls-2" points="529.412 1626.278 529.412 1647.677 550.598 1647.677 571.784 1647.677 571.784 1669.068 571.784 1690.468 592.969 1690.468 592.969 1669.068 592.969 1647.677 592.969 1626.278 571.784 1626.278 571.784 1604.878 571.784 1583.487 550.598 1583.487 529.412 1583.487 529.412 1604.878 550.598 1604.878 550.598 1626.278 529.412 1626.278"/><rect class="cls-2" x="804.8271" y="1626.2776" width="21.1934" height="21.3992"/><polygon class="cls-2" points="931.95 1647.677 910.764 1647.677 910.764 1669.068 931.95 1669.068 953.135 1669.068 953.135 1647.677 953.135 1626.278 931.95 1626.278 931.95 1647.677"/><polygon class="cls-2" points="232.804 1626.278 232.804 1604.878 211.618 1604.878 190.432 1604.878 190.432 1626.278 211.618 1626.278 232.804 1626.278"/><polygon class="cls-2" points="253.989 1626.278 253.989 1647.677 275.175 1647.677 275.175 1626.278 275.175 1604.878 253.989 1604.878 253.989 1626.278"/><polygon class="cls-2" points="402.29 1604.878 381.104 1604.878 381.104 1626.278 359.918 1626.278 359.918 1647.677 381.104 1647.677 402.29 1647.677 402.29 1626.278 402.29 1604.878"/><polygon class="cls-2" points="656.527 1626.278 656.527 1647.677 677.712 1647.677 677.712 1626.278 677.712 1604.878 656.527 1604.878 656.527 1626.278"/><rect class="cls-2" x="783.6415" y="1604.8782" width="21.1855" height="21.3994"/><rect class="cls-2" x="910.7636" y="1604.8782" width="21.186" height="21.3994"/><polygon class="cls-2" points="1037.878 1604.878 1016.693 1604.878 995.507 1604.878 995.507 1626.278 995.507 1647.677 1016.693 1647.677 1016.693 1626.278 1037.878 1626.278 1037.878 1604.878"/><path class="cls-2" d="M20.9379,1583.4866v-42.7908h21.186v21.3916H63.31v-42.7908h21.186v42.7908h21.1856v42.7908h21.186v-42.7908H169.246v21.3992h21.1861v-42.7908h63.5571v-21.3992h21.186v21.3992h84.7432V1497.905H338.7323v-21.3994h21.1861v21.3994h21.1855v42.7908H402.29v21.3916h42.3715v-21.3916h21.1856v21.3916h84.751v-42.7908h21.1855V1497.905h21.1856v21.3916h21.186V1497.905h21.186v21.3916h-21.186v21.3992h63.5571v-21.3992h42.3716v21.3992H741.27v-64.19h21.1856v64.19h42.3716v-21.3992h42.3794v21.3992H868.392v21.3916h84.7432v-42.7908h21.186v21.3992h21.1856v42.7908h21.186v-21.3992h21.1855v21.3992H1080.25V1305.3347h-21.1855v-21.3916H1080.25v-42.791h-21.1855v-21.3992H1080.25v-42.7907h-63.5571v-21.3995h-21.186v21.3995H931.95v-21.3995h-21.186v42.7911H847.2065v-21.3916H826.02v21.3916H804.8271v21.3991H783.6415v-42.7907H720.0839v21.3916H698.8984v-21.3916h21.1855v-21.3995H677.7123v21.3995H656.5268v-21.3995H635.3412v42.7911H529.412v-21.3916h42.3716v-21.3995H508.2265v21.3995H487.04v-21.3995H423.4755v21.3995H402.29v21.3916H381.1039v-42.7911H317.5468v42.7911h21.1855v21.3991H317.5468v-21.3991h-21.186v-21.3916H253.9892v21.3916H232.8036v-21.3916H190.4321v64.19H169.246v-64.19H126.8671v21.3916H84.4955v-21.3916H63.31v21.3916H42.1239v21.3991H-.2476v192.5628H20.9379v21.3991H-.2476v171.1634H20.9379Zm21.186-320.9429H63.31v21.3994H42.1239ZM402.29,1241.1521h21.1855v21.3916H402.29Zm550.8452-21.3992h21.186v21.3992h-21.186Zm84.7431,235.3535h-21.1855v-21.3916h21.1855Zm-317.7944,0H698.8984v-21.3916h21.1855Zm-614.4028,0h42.3716v21.3992H105.6811Zm21.186-171.1633h-21.186v-21.3994h21.186ZM931.95,1305.3347v-21.3916h21.1856v21.3916H931.95v42.7908h21.1856v42.7986h21.186v21.3916H931.95v-42.791h-21.186v-64.19H889.578v-21.3916h21.1856v21.3916Zm-805.0825,106.981h21.1856v21.3991H126.8671Zm127.1221,21.3991v-21.3991h21.186v21.3991ZM402.29,1348.1255h21.1855v21.3992H402.29Zm381.3515,42.7986h-21.186v-21.3994h21.186Zm-296.6011-64.19h21.1861v21.3916H487.04Zm148.3008,0h-21.186v-21.3992h21.186ZM508.2265,1433.7148H465.8471v-21.3991h42.3794v-42.791H529.412v64.19Zm148.3-21.3991v-21.3916h21.1855v21.3916Zm190.68-106.981H804.8271v-21.3916h42.3794Zm-148.3081,42.7908H677.7123v-21.3916h21.1861Zm-254.2369-42.7908v21.3992h-21.186v-21.3992Zm-211.8579,21.3992h-21.186v-21.3992h21.186Zm-63.5576,21.3916H148.0527v-21.3916H169.246Zm-63.5649,0h21.186v21.3992h-21.186Zm211.8657,64.19h21.1855v21.3991H317.5468Zm677.96-128.3726H974.3212v-21.3994h21.1856ZM741.27,1305.3347v21.3992h-21.186v-21.3992Zm-211.8579-42.791H508.2265v-21.3916H529.412Zm-211.8652,85.5818h-21.186v-21.3916h21.186ZM169.246,1305.3347H148.0527v-21.3916H169.246Zm233.044,192.57h21.1855v21.3916H402.29Zm254.2368,0v-21.3994h21.1855v21.3994Zm233.0512,42.7908v-21.3992H868.392V1497.905h42.3716v42.7908Zm84.7432-64.19h21.1856v21.3994H974.3212Zm63.5571-213.9619h-21.1855v-21.3916h21.1855ZM931.95,1219.7529v21.3992h-21.186v-21.3992Zm-296.6084,0h21.1856v21.3992h21.1855v21.3916h21.1861v21.3994H677.7123v-21.3994H656.5268v-21.3916H614.1552v-21.3992Zm-169.4941-42.7907v21.3916H444.6615v-21.3916Zm-105.9287,64.19h21.1855v21.3916H359.9184v21.3994H338.7323v21.3916H317.5468v-42.791h21.1855v-21.3916Zm-84.7432-21.3992v21.3992h-21.186v-21.3992ZM42.1239,1412.3157v-21.3916H20.9379v-21.3994h21.186v-21.3992H63.31v85.5893H42.1239Zm-21.186,64.19H63.31v21.3994H20.9379Z"/><rect class="cls-2" x="444.6615" y="1583.4866" width="21.1855" height="21.3916"/><rect class="cls-2" x="487.0404" y="1583.4866" width="21.186" height="21.3916"/><rect class="cls-2" x="847.2065" y="1583.4866" width="21.1855" height="21.3916"/><rect class="cls-2" x="571.7836" y="1540.6958" width="21.1855" height="21.3916"/><rect class="cls-2" x="63.3095" y="1134.1711" width="21.186" height="21.3916"/><rect class="cls-2" x="105.6811" y="1134.1711" width="21.186" height="21.3916"/><rect class="cls-2" x="402.29" y="1134.1711" width="21.1855" height="21.3916"/><rect class="cls-2" x="487.0404" y="1134.1711" width="21.186" height="21.3916"/><rect class="cls-2" x="169.246" y="1112.772" width="21.186" height="21.3992"/><rect class="cls-2" x="550.5981" y="1112.772" width="21.1855" height="21.3992"/><rect class="cls-2" x="868.392" y="1112.772" width="21.186" height="21.3992"/><polygon class="cls-2" points="42.124 1112.772 63.309 1112.772 84.496 1112.772 105.681 1112.772 105.681 1091.373 84.496 1091.373 63.309 1091.373 42.124 1091.373 42.124 1112.772"/><rect class="cls-2" x="148.0527" y="1091.3728" width="21.1934" height="21.3992"/><rect class="cls-2" x="423.4755" y="1091.3728" width="21.186" height="21.3992"/><rect class="cls-2" x="910.7636" y="1091.3728" width="21.186" height="21.3992"/><rect class="cls-2" x="974.3212" y="1091.3728" width="21.1855" height="21.3992"/><rect class="cls-2" x="1016.6928" y="1091.3728" width="21.1855" height="21.3992"/><polygon class="cls-2" points="381.104 1091.373 381.104 1069.981 359.918 1069.981 338.732 1069.981 338.732 1091.373 359.918 1091.373 381.104 1091.373"/><rect class="cls-2" x="698.8984" y="1069.9812" width="21.1855" height="21.3916"/><rect class="cls-2" x="783.6415" y="1069.9812" width="21.1855" height="21.3916"/><rect class="cls-2" x="847.2065" y="1069.9812" width="21.1855" height="21.3916"/><rect class="cls-2" x="762.4555" y="1048.5818" width="21.186" height="21.3994"/><rect class="cls-2" x="910.7636" y="1048.5818" width="21.186" height="21.3994"/><rect class="cls-2" x="63.3095" y="1027.1902" width="21.186" height="21.3916"/><rect class="cls-2" x="126.8671" y="1027.1902" width="21.1855" height="21.3916"/><rect class="cls-2" x="465.8471" y="1027.1902" width="21.1934" height="21.3916"/><rect class="cls-2" x="592.9692" y="1027.1902" width="21.186" height="21.3916"/><rect class="cls-2" x="741.2699" y="1027.1902" width="21.1855" height="21.3916"/><rect class="cls-2" x="995.5068" y="1027.1902" width="21.186" height="21.3916"/><rect class="cls-2" x="296.3608" y="1005.791" width="21.186" height="21.3992"/><rect class="cls-2" x="826.0204" y="1005.791" width="21.186" height="21.3992"/><rect class="cls-2" x="974.3212" y="1005.791" width="21.1855" height="21.3992"/><rect class="cls-2" x="953.1352" y="984.3994" width="21.186" height="21.3916"/><rect class="cls-2" x="126.8671" y="963.0002" width="21.1855" height="21.3992"/><rect class="cls-2" x="931.9496" y="963.0002" width="21.1855" height="21.3992"/><rect class="cls-2" x="1016.6928" y="963.0002" width="21.1855" height="21.3992"/><rect class="cls-2" x="20.9379" y="941.6008" width="21.186" height="21.3994"/><rect class="cls-2" x="444.6615" y="941.6008" width="21.1855" height="21.3994"/><rect class="cls-2" x="656.5268" y="941.6008" width="21.1855" height="21.3994"/><rect class="cls-2" x="847.2065" y="941.6008" width="21.1855" height="21.3994"/><rect class="cls-2" x="232.8036" y="920.2092" width="21.1855" height="21.3916"/><rect class="cls-2" x="868.392" y="898.8101" width="21.186" height="21.3992"/><rect class="cls-2" x="698.8984" y="813.2283" width="21.1855" height="21.3994"/><rect class="cls-2" x="465.8471" y="791.8293" width="21.1934" height="21.3989"/><rect class="cls-2" x="465.8471" y="535.0764" width="21.1934" height="21.3994"/><rect class="cls-2" x="126.8671" y="492.2854" width="21.1855" height="21.3994"/><rect class="cls-3" x="698.8984" y="1433.7148" width="21.1855" height="21.3916"/><rect class="cls-3" x="317.5468" y="1412.3157" width="21.1855" height="21.3992"/><polygon class="cls-3" points="508.226 1390.924 508.226 1412.316 487.04 1412.316 487.04 1433.715 508.226 1433.715 529.412 1433.715 529.412 1412.316 529.412 1390.924 529.412 1369.525 508.226 1369.525 508.226 1390.924"/><rect class="cls-3" x="762.4555" y="1369.5247" width="21.186" height="21.3994"/><rect class="cls-3" x="105.6811" y="1348.1255" width="21.186" height="21.3992"/><rect class="cls-3" x="402.29" y="1348.1255" width="21.1855" height="21.3992"/><rect class="cls-3" x="148.0527" y="1326.7339" width="21.1934" height="21.3916"/><rect class="cls-3" x="296.3608" y="1326.7339" width="21.186" height="21.3916"/><rect class="cls-3" x="487.0404" y="1326.7339" width="21.186" height="21.3916"/><rect class="cls-3" x="677.7123" y="1326.7339" width="21.186" height="21.3916"/><rect class="cls-3" x="211.6176" y="1305.3347" width="21.186" height="21.3992"/><rect class="cls-3" x="423.4755" y="1305.3347" width="21.186" height="21.3992"/><rect class="cls-3" x="614.1552" y="1305.3347" width="21.186" height="21.3992"/><rect class="cls-3" x="720.0839" y="1305.3347" width="21.186" height="21.3992"/><polygon class="cls-3" points="910.764 1326.734 910.764 1348.125 910.764 1369.525 931.95 1369.525 931.95 1390.924 931.95 1412.316 953.135 1412.316 953.135 1390.924 953.135 1369.525 953.135 1348.125 931.95 1348.125 931.95 1326.734 931.95 1305.335 910.764 1305.335 910.764 1326.734"/><rect class="cls-3" x="148.0527" y="1283.9431" width="21.1934" height="21.3916"/><polygon class="cls-3" points="804.827 1283.943 804.827 1305.335 826.02 1305.335 847.206 1305.335 847.206 1283.943 826.02 1283.943 804.827 1283.943"/><rect class="cls-3" x="889.578" y="1283.9431" width="21.1855" height="21.3916"/><rect class="cls-3" x="931.9496" y="1283.9431" width="21.1855" height="21.3916"/><rect class="cls-3" x="1059.0644" y="1283.9431" width="21.1855" height="21.3916"/><rect class="cls-3" x="42.1239" y="1262.5437" width="21.1855" height="21.3994"/><rect class="cls-3" x="105.6811" y="1262.5437" width="21.186" height="21.3994"/><rect class="cls-3" x="677.7123" y="1262.5437" width="21.186" height="21.3994"/><rect class="cls-3" x="974.3212" y="1262.5437" width="21.1855" height="21.3994"/><polygon class="cls-3" points="338.732 1241.152 338.732 1262.544 317.547 1262.544 317.547 1283.943 317.547 1305.335 338.732 1305.335 338.732 1283.943 359.918 1283.943 359.918 1262.544 381.104 1262.544 381.104 1241.152 359.918 1241.152 338.732 1241.152"/><rect class="cls-3" x="402.29" y="1241.1521" width="21.1855" height="21.3916"/><rect class="cls-3" x="508.2265" y="1241.1521" width="21.1855" height="21.3916"/><rect class="cls-3" x="656.5268" y="1241.1521" width="21.1855" height="21.3916"/><rect class="cls-3" x="1016.6928" y="1241.1521" width="21.1855" height="21.3916"/><rect class="cls-3" x="253.9892" y="1219.7529" width="21.186" height="21.3992"/><polygon class="cls-3" points="635.341 1219.753 614.155 1219.753 614.155 1241.152 635.341 1241.152 656.527 1241.152 656.527 1219.753 635.341 1219.753"/><rect class="cls-3" x="910.7636" y="1219.7529" width="21.186" height="21.3992"/><rect class="cls-3" x="953.1352" y="1219.7529" width="21.186" height="21.3992"/><rect class="cls-3" x="1059.0644" y="1219.7529" width="21.1855" height="21.3992"/><path class="cls-3" d="M20.9379,1219.7529h21.186v-21.3991H63.31v-21.3916h21.186v21.3916h42.3716v-21.3916H169.246v64.19h21.1861v-64.19h42.3715v21.3916h21.1856v-21.3916h42.3716v21.3916h21.186v-42.7911h63.5571v42.7911H402.29v-21.3916h21.1855v-21.3995H402.29v-21.3916h21.1855v21.3916H487.04v-21.3916h21.1861v21.3916h63.5571v21.3995H529.412v21.3916H635.3412v-42.7911h21.1856v21.3995h21.1855v-21.3995h42.3716v21.3995h63.5576v42.7907h21.1856v-21.3991H826.02v-21.3916h21.1861v21.3916h63.5571v-42.7911H931.95v21.3995h63.5572v-21.3995h21.186v21.3995H1080.25V941.6008h-21.1855V920.2092H1080.25V770.4377h-63.5571v42.7906h-21.186V770.4377H868.392v21.3916H931.95v21.399h-21.186v21.3994H889.578V813.2283H868.392v-21.399H847.2065v42.7984H826.02V813.2283H804.8271v-21.399H741.27V770.4377H635.3412v21.3916h21.1856v21.399h21.1855v21.3994H614.1552V813.2283h21.186v-21.399h-42.372V770.4377H571.7836V749.0383H508.2265v42.791H529.412V770.4377h21.1861v21.3916H529.412v21.399h21.1861v21.3994H529.412v21.3916h21.1861v21.3989H529.412V898.81H508.2265v21.3991H465.8471V898.81h42.3794V877.4182H529.412V856.0193H508.2265v-42.791H487.04v21.3994H444.6615V813.2283h-21.186v-21.399H487.04V770.4377H465.8471V749.0383H444.6615v21.3994h-21.186V749.0383H402.29v21.3994H359.9184v21.3916H338.7323v-42.791H317.5468v21.3994h-21.186v42.7906h21.186v21.3994h-21.186V813.2283H275.1752v21.3994H232.8036V813.2283h-21.186V770.4377H126.8671v-42.791h-21.186V706.2473H84.4955v42.791h21.1856v21.3994H42.1239V749.0383H-.2476v470.7146Zm21.186-128.38h63.5572v21.3992H42.1239Zm0-256.7451H63.31V813.2283h21.186v21.3994H63.31v21.3916H42.1239Zm169.4937,21.3916v21.3989H190.4321V856.0193H169.246V834.6277h21.1861v21.3916Zm127.1147,0h21.1861v21.3989H338.7323Zm84.7432,21.3989H402.29V856.0193h21.1855ZM656.5268,898.81h21.1855v21.3991H656.5268Zm233.0512,0v21.3991H868.392V898.81H847.2065V877.4182H868.392V898.81Zm148.3,85.5893h-21.1855V963h21.1855Zm0,128.3726h-21.1855v-21.3992h21.1855Zm-148.3,21.3991H868.392V1112.772h21.186ZM63.31,1027.19h21.186v21.3916H63.31Zm63.5576-171.1709v21.3989h-21.186V856.0193ZM592.9692,963h21.186v21.3992h-21.186Zm169.4863-85.582h21.186V898.81h-21.186Zm254.2373,171.1636h-21.186V1027.19H974.3212V1005.791h-21.186V984.3994H931.95V963h21.1856v21.3992h21.186v21.3916h21.1856V1027.19h21.186ZM126.8671,963h21.1856v21.3992H126.8671Zm466.1021,64.19h21.186v21.3916h-21.186Zm254.2373,0H826.02V1005.791h21.1861Zm-84.751,42.791v-21.3994H741.27V1027.19h21.1856v21.3916h21.186v21.3994h21.1856v21.3916H783.6415v-21.3916ZM487.04,1048.5818H465.8471V1027.19H487.04ZM317.5468,1027.19h-21.186V1005.791H275.1752V984.3994h21.1856v21.3916h21.186Zm-190.68,0h21.1856v21.3916H126.8671Zm63.565-21.3992h21.1855V1027.19H190.4321Zm190.6718-21.3916H359.9184V963h21.1855ZM338.7323,1027.19h21.1861v21.3916H338.7323Zm42.3716,0H402.29v21.3916H381.1039Zm317.7945,42.791h21.1855v21.3916H698.8984Zm148.3081,0H868.392v21.3916H847.2065Zm63.5571-21.3994H931.95v21.3994h-21.186ZM868.392,963H847.2065V941.6008H868.392Zm-190.68,0H656.5268V941.6008h21.1855ZM550.5981,1005.791H529.412V984.3994h21.1861Zm-190.68-85.5818H338.7323V898.81h21.1861ZM253.9892,941.6008H232.8036V920.2092h21.1856Zm-42.3716-21.3916H190.4321V898.81h21.1855ZM148.0527,1112.772v-21.3992H169.246v21.3992h21.1861v21.3991H169.246V1112.772Zm211.8657-21.3992H338.7323v-21.3916h42.3716v21.3916Zm550.8452,0H931.95v21.3992h-21.186Zm63.5576,0h21.1856v21.3992H974.3212Zm0-192.5627h-21.186V877.4182h21.186ZM741.27,877.4182h-21.186V856.0193H741.27ZM571.7836,941.6008V963H550.5981V941.6008ZM148.0527,834.6277H126.8671V813.2283h21.1856ZM63.31,1155.5627v-21.3916h21.186v21.3916Zm42.3716,0v-21.3916h21.186v21.3916Zm317.7944-64.19h21.186v21.3992h-21.186Zm127.1226,42.7983V1112.772h21.1855v21.3991Zm487.28-192.57h-21.1855V920.2092h21.1855Zm-21.1855-106.9731v21.3916H974.3212V834.6277h42.3716ZM910.7636,856.0193v21.3989H889.578V856.0193Zm-211.8652-42.791H741.27v21.3994H698.8984Zm-63.5572,42.791V898.81h-21.186V856.0193Zm-63.5576,0h21.1856v21.3989H571.7836ZM465.8471,963H444.6615V941.6008h21.1856Zm-21.1856-42.791h-21.186V898.81h21.186ZM338.7323,813.2283h21.1861v21.3994H338.7323Zm-63.5571,42.791v21.3989h-21.186V856.0193ZM20.9379,941.6008h21.186V920.2092H63.31v21.3916H42.1239V963H20.9379Z"/><rect class="cls-3" x="317.5468" y="1198.3538" width="21.1855" height="21.3992"/><rect class="cls-3" x="444.6615" y="1176.9622" width="21.1855" height="21.3916"/><rect class="cls-3" x="698.8984" y="1176.9622" width="21.1855" height="21.3916"/><rect class="cls-3" x="487.0404" y="1155.5627" width="21.186" height="21.3994"/><rect class="cls-3" x="804.8271" y="770.4377" width="21.1934" height="21.3916"/><polygon class="cls-3" points="232.804 770.438 232.804 791.829 253.989 791.829 253.989 770.438 253.989 749.038 232.804 749.038 232.804 770.438"/><rect class="cls-3" x="783.6415" y="727.6467" width="21.1855" height="21.3916"/><rect class="cls-3" x="931.9496" y="727.6467" width="21.1855" height="21.3916"/><rect class="cls-3" x="211.6176" y="706.2473" width="21.186" height="21.3994"/><rect class="cls-3" x="423.4755" y="706.2473" width="21.186" height="21.3994"/><rect class="cls-3" x="635.3412" y="706.2473" width="21.1855" height="21.3994"/><polygon class="cls-3" points="868.392 727.647 868.392 749.038 889.578 749.038 889.578 727.647 889.578 706.247 868.392 706.247 868.392 727.647"/><polygon class="cls-3" points="974.321 706.247 974.321 684.848 953.135 684.848 953.135 706.247 953.135 727.647 974.321 727.647 974.321 706.247"/><polygon class="cls-3" points="1016.693 727.647 1016.693 749.038 1037.878 749.038 1037.878 727.647 1037.878 706.247 1016.693 706.247 1016.693 727.647"/><rect class="cls-3" x="-0.2476" y="684.8479" width="21.1855" height="21.3994"/><rect class="cls-3" x="126.8671" y="684.8479" width="21.1855" height="21.3994"/><rect class="cls-3" x="910.7636" y="684.8479" width="21.186" height="21.3994"/><rect class="cls-3" x="529.412" y="663.4563" width="21.186" height="21.3916"/><rect class="cls-3" x="571.7836" y="663.4563" width="21.1855" height="21.3916"/><rect class="cls-3" x="677.7123" y="663.4563" width="21.186" height="21.3916"/><rect class="cls-3" x="847.2065" y="663.4563" width="21.1855" height="21.3916"/><rect class="cls-3" x="1037.8783" y="663.4563" width="21.186" height="21.3916"/><rect class="cls-3" x="169.246" y="642.0574" width="21.186" height="21.3989"/><rect class="cls-3" x="423.4755" y="642.0574" width="21.186" height="21.3989"/><rect class="cls-3" x="698.8984" y="642.0574" width="21.1855" height="21.3989"/><rect class="cls-3" x="42.1239" y="620.6658" width="21.1855" height="21.3916"/><rect class="cls-3" x="253.9892" y="620.6658" width="21.186" height="21.3916"/><rect class="cls-3" x="529.412" y="620.6658" width="21.186" height="21.3916"/><rect class="cls-3" x="762.4555" y="620.6658" width="21.186" height="21.3916"/><rect class="cls-3" x="910.7636" y="620.6658" width="21.186" height="21.3916"/><rect class="cls-3" x="995.5068" y="620.6658" width="21.186" height="21.3916"/><rect class="cls-3" x="402.29" y="599.2664" width="21.1855" height="21.3994"/><rect class="cls-3" x="1037.8783" y="599.2664" width="21.186" height="21.3994"/><rect class="cls-3" x="148.0527" y="577.8748" width="21.1934" height="21.3916"/><rect class="cls-3" x="698.8984" y="556.4758" width="21.1855" height="21.3989"/><rect class="cls-3" x="804.8271" y="556.4758" width="21.1934" height="21.3989"/><rect class="cls-3" x="995.5068" y="556.4758" width="21.186" height="21.3989"/><rect class="cls-3" x="677.7123" y="492.2854" width="21.186" height="21.3994"/><rect class="cls-4" x="338.7323" y="1027.1902" width="21.186" height="21.3916"/><rect class="cls-4" x="381.1039" y="1027.1902" width="21.186" height="21.3916"/><rect class="cls-4" x="190.4321" y="1005.791" width="21.1855" height="21.3992"/><rect class="cls-4" x="275.1752" y="984.3994" width="21.1855" height="21.3916"/><rect class="cls-4" x="529.412" y="984.3994" width="21.186" height="21.3916"/><rect class="cls-4" x="359.9184" y="963.0002" width="21.1855" height="21.3992"/><rect class="cls-4" x="592.9692" y="963.0002" width="21.186" height="21.3992"/><rect class="cls-4" x="550.5981" y="941.6008" width="21.1855" height="21.3994"/><rect class="cls-4" x="42.1239" y="920.2092" width="21.1855" height="21.3916"/><rect class="cls-4" x="1016.6928" y="920.2092" width="21.1855" height="21.3916"/><rect class="cls-4" x="1059.0644" y="920.2092" width="21.1855" height="21.3916"/><rect class="cls-4" x="190.4321" y="898.8101" width="21.1855" height="21.3992"/><rect class="cls-4" x="338.7323" y="898.8101" width="21.186" height="21.3992"/><rect class="cls-4" x="423.4755" y="898.8101" width="21.186" height="21.3992"/><polygon class="cls-4" points="465.847 898.81 465.847 920.209 487.04 920.209 508.226 920.209 508.226 898.81 487.04 898.81 465.847 898.81"/><rect class="cls-4" x="656.5268" y="898.8101" width="21.1855" height="21.3992"/><rect class="cls-4" x="508.2265" y="877.4182" width="21.1855" height="21.3918"/><rect class="cls-4" x="762.4555" y="877.4182" width="21.186" height="21.3918"/><rect class="cls-4" x="847.2065" y="877.4182" width="21.1855" height="21.3918"/><rect class="cls-4" x="953.1352" y="877.4182" width="21.186" height="21.3918"/><rect class="cls-4" x="105.6811" y="856.0193" width="21.186" height="21.3989"/><rect class="cls-4" x="190.4321" y="856.0193" width="21.1855" height="21.3989"/><rect class="cls-4" x="253.9892" y="856.0193" width="21.186" height="21.3989"/><rect class="cls-4" x="338.7323" y="856.0193" width="21.186" height="21.3989"/><rect class="cls-4" x="402.29" y="856.0193" width="21.1855" height="21.3989"/><rect class="cls-4" x="529.412" y="856.0193" width="21.186" height="21.3989"/><rect class="cls-4" x="571.7836" y="856.0193" width="21.1855" height="21.3989"/><polygon class="cls-4" points="614.155 877.418 614.155 898.81 635.341 898.81 635.341 877.418 635.341 856.019 614.155 856.019 614.155 877.418"/><rect class="cls-4" x="720.0839" y="856.0193" width="21.186" height="21.3989"/><rect class="cls-4" x="889.578" y="856.0193" width="21.1855" height="21.3989"/><rect class="cls-4" x="42.1239" y="834.6277" width="21.1855" height="21.3916"/><rect class="cls-4" x="169.246" y="834.6277" width="21.186" height="21.3916"/><polygon class="cls-4" points="1016.693 834.628 995.507 834.628 974.321 834.628 974.321 856.019 995.507 856.019 1016.693 856.019 1016.693 834.628"/><rect class="cls-4" x="63.3095" y="813.2283" width="21.186" height="21.3994"/><rect class="cls-4" x="126.8671" y="813.2283" width="21.1855" height="21.3994"/><rect class="cls-4" x="296.3608" y="813.2283" width="21.186" height="21.3994"/><rect class="cls-4" x="338.7323" y="813.2283" width="21.186" height="21.3994"/><polygon class="cls-4" points="614.155 813.228 614.155 834.628 635.341 834.628 656.527 834.628 677.712 834.628 677.712 813.228 656.527 813.228 656.527 791.829 635.341 791.829 635.341 813.228 614.155 813.228"/><rect class="cls-4" x="720.0839" y="813.2283" width="21.186" height="21.3994"/><polygon class="cls-4" points="465.847 791.829 444.662 791.829 423.476 791.829 423.476 813.228 444.662 813.228 444.662 834.628 465.847 834.628 487.04 834.628 487.04 813.228 465.847 813.228 465.847 791.829"/><polygon class="cls-4" points="889.578 813.228 889.578 834.628 910.764 834.628 910.764 813.228 931.95 813.228 931.95 791.829 910.764 791.829 889.578 791.829 868.392 791.829 868.392 813.228 889.578 813.228"/><rect class="cls-4" x="529.412" y="770.4377" width="21.186" height="21.3916"/><path class="cls-4" d="M20.9379,749.0383h21.186v21.3994h63.5572V749.0383H84.4955v-42.791h21.1856v21.3994h21.186v42.791h84.7505v42.7906h21.186v21.3994h42.3716V813.2283h21.1856V770.4377h21.186V749.0383h21.1855v42.791h21.1861V770.4377H402.29V749.0383h21.1855v21.3994h21.186V749.0383h21.1856v21.3994H487.04v42.7906h21.1861v42.791H529.412V834.6277h21.1861V813.2283H529.412v-21.399H508.2265v-42.791h63.5571v21.3994h21.1856v21.3916h42.372V770.4377H741.27v21.3916h63.5572V770.4377H826.02v21.3916H804.8271v21.399H826.02v21.3994h21.1861V791.8293H868.392V770.4377H995.5068v42.7906h21.186V770.4377H1080.25V406.7039h-21.1855v21.3916h-42.3716v21.3989h-21.186v64.19H953.1352v21.3916H931.95V513.6848h21.1856v-64.19H931.95V428.0955H762.4555v21.3989H741.27v42.791H698.8984v21.3994H677.7123V492.2854h21.1861V470.8938h21.1855V449.4944H698.8984V428.0955H677.7123V406.7039H635.3412v21.3916h21.1856v21.3989H614.1552V428.0955h-21.186V406.7039H529.412v21.3916h42.3716v21.3989H529.412V428.0955H508.2265V406.7039H275.1752v42.7905H232.8036V428.0955h21.1856V406.7039H211.6176v21.3916H190.4321V406.7039h-63.565v21.3916h21.1856v21.3989H126.8671V428.0955h-21.186V406.7039h21.186V385.3044h-21.186V363.9128H84.4955v64.1827H63.31v21.3989H-.2476v42.791H20.9379v21.3994H-.2476V684.8479H20.9379v21.3994H-.2476v42.791Zm21.186-128.3725H63.31v21.3916H42.1239Zm741.5176-128.38h21.1856v21.3994H783.6415ZM889.578,513.6848H868.392v21.3916H847.2065V513.6848H868.392V492.2854h21.186Zm127.1148,64.19h-21.186v-21.399h21.186Zm0,64.1826h-21.186V620.6658h21.186Zm-84.7432,64.19h-21.186V684.8479H931.95ZM762.4555,727.6467H741.27V706.2473h21.1856ZM338.7323,470.8938h21.1861v21.3916H338.7323ZM741.27,556.4758h21.1856v21.399H741.27Zm190.68,85.5816h-21.186V620.6658H931.95ZM804.8271,556.4758H826.02v21.399H804.8271ZM698.8984,684.8479H677.7123V663.4563h21.1861V642.0574h21.1855v21.3989H698.8984ZM232.8036,663.4563V642.0574h21.1856V620.6658h21.186v21.3916h-21.186v21.3989Zm-84.7509-85.5815H169.246v21.3916H148.0527ZM402.29,599.2664h42.3715v21.3994H402.29Zm127.122,21.3994h21.1861v21.3916H529.412Zm42.3716-64.19h21.1856v21.399H571.7836Zm63.5576,85.5816h21.1856v21.3989H635.3412Zm148.3-21.3916v21.3916h-21.186V620.6658ZM169.246,642.0574h21.1861v21.3989H169.246Zm254.23,0h21.186v21.3989h-21.186ZM529.412,663.4563h21.1861v21.3916H529.412Zm42.3716,0h21.1856v21.3916H571.7836ZM826.02,620.6658h21.1861v21.3916H826.02Zm-487.2881-64.19H317.5468V535.0764h21.1855Zm-105.9287,0h-21.186V535.0764h21.186Zm-148.3081,64.19h21.1856v21.3916H84.4955Zm127.1221,85.5815h21.186v21.3994h-21.186Zm423.7236,0h21.1856v21.3994H635.3412Zm211.8653-42.791H868.392v21.3916H847.2065Zm0-171.1709H826.02V470.8938h21.1861ZM720.0839,577.8748H698.8984v-21.399h21.1855Zm-211.8574-64.19v21.3916H487.04v21.3994H465.8471V535.0764H487.04V513.6848ZM275.1752,535.0764h-21.186V513.6848h21.186ZM148.0527,513.6848H126.8671V492.2854h21.1856ZM84.4955,535.0764v21.3994H63.31V535.0764Zm42.3716,149.7715h21.1856v21.3994H126.8671Zm105.9365,85.59V749.0383h21.1856v42.791H232.8036Zm190.6719-42.791V706.2473h21.186v21.3994Zm360.166,21.3916V727.6467h21.1856v21.3916Zm84.7505,0v-42.791h21.186v42.791Zm63.5576,0V727.6467h21.1856V684.8479h21.186v42.7988h-21.186v21.3916Zm84.7432,0v-42.791h21.1855v42.791Zm42.3716-64.19h-21.1861V663.4563h21.1861Zm0-64.1821h-21.1861V599.2664h21.1861Zm0-128.38h-21.1861V470.8938h21.1861ZM931.95,577.8748h-21.186v-21.399H931.95ZM635.3412,470.8938h21.1856v21.3916H614.1552V470.8938Zm-127.1147,0H487.04V449.4944h21.1861Zm-63.565-42.7983v21.3989h21.1856v42.791H444.6615v-42.791h-21.186V428.0955ZM296.3608,470.8938v21.3916H275.1752V470.8938Z"/><polygon class="cls-4" points="995.507 449.494 995.507 428.095 974.321 428.095 953.135 428.095 953.135 449.494 974.321 449.494 995.507 449.494"/><polygon class="cls-4" points="42.124 406.704 42.124 385.304 20.938 385.304 20.938 406.704 -0.248 406.704 -0.248 428.095 20.938 428.095 42.124 428.095 63.309 428.095 63.309 406.704 42.124 406.704"/><polygon class="cls-4" points="741.27 406.704 762.455 406.704 783.642 406.704 783.642 385.304 783.642 363.913 762.455 363.913 741.27 363.913 741.27 385.304 720.084 385.304 720.084 406.704 741.27 406.704"/><rect class="cls-4" x="847.2065" y="385.3044" width="21.1855" height="21.3994"/><rect class="cls-4" x="910.7636" y="385.3044" width="21.186" height="21.3994"/><rect class="cls-4" x="-0.2476" y="363.9128" width="21.1855" height="21.3916"/><rect class="cls-4" x="190.4321" y="363.9128" width="21.1855" height="21.3916"/><polygon class="cls-4" points="381.104 385.304 402.29 385.304 423.476 385.304 423.476 363.913 402.29 363.913 381.104 363.913 381.104 385.304"/><polygon class="cls-4" points="529.412 363.913 529.412 385.304 550.598 385.304 571.784 385.304 571.784 363.913 550.598 363.913 529.412 363.913"/><rect class="cls-4" x="592.9692" y="363.9128" width="21.186" height="21.3916"/><polygon class="cls-4" points="148.053 363.913 148.053 342.514 148.053 321.122 126.867 321.122 126.867 342.514 105.681 342.514 105.681 363.913 126.867 363.913 148.053 363.913"/><rect class="cls-4" x="169.246" y="342.5139" width="21.186" height="21.3989"/><rect class="cls-4" x="296.3608" y="342.5139" width="21.186" height="21.3989"/><polygon class="cls-4" points="656.527 363.913 677.712 363.913 677.712 385.304 698.898 385.304 720.084 385.304 720.084 363.913 698.898 363.913 698.898 342.514 677.712 342.514 656.527 342.514 656.527 363.913"/><rect class="cls-4" x="826.0204" y="342.5139" width="21.186" height="21.3989"/><rect class="cls-4" x="995.5068" y="342.5139" width="21.186" height="21.3989"/><polygon class="cls-4" points="42.124 342.514 42.124 363.913 63.309 363.913 63.309 342.514 63.309 321.122 42.124 321.122 42.124 342.514"/><polygon class="cls-4" points="592.969 342.514 614.155 342.514 614.155 321.122 614.155 299.723 592.969 299.723 592.969 321.122 592.969 342.514"/><polygon class="cls-4" points="868.392 321.122 868.392 299.723 847.206 299.723 847.206 321.122 847.206 342.514 868.392 342.514 868.392 321.122"/><rect class="cls-4" x="275.1752" y="299.7229" width="21.1855" height="21.3994"/><polygon class="cls-4" points="423.476 299.723 423.476 321.122 423.476 342.514 444.662 342.514 465.847 342.514 465.847 321.122 465.847 299.723 465.847 278.323 444.662 278.323 444.662 299.723 423.476 299.723"/><rect class="cls-4" x="720.0839" y="299.7229" width="21.186" height="21.3994"/><polygon class="cls-4" points="826.02 321.122 826.02 299.723 826.02 278.323 804.827 278.323 804.827 299.723 783.642 299.723 783.642 321.122 804.827 321.122 826.02 321.122"/><rect class="cls-4" x="889.578" y="299.7229" width="21.1855" height="21.3994"/><rect class="cls-4" x="1059.0644" y="299.7229" width="21.1855" height="21.3994"/><polygon class="cls-4" points="42.124 299.723 63.309 299.723 63.309 278.323 42.124 278.323 20.938 278.323 -0.248 278.323 -0.248 299.723 20.938 299.723 42.124 299.723"/><rect class="cls-4" x="126.8671" y="278.3235" width="21.1855" height="21.3994"/><rect class="cls-4" x="190.4321" y="278.3235" width="21.1855" height="21.3994"/><rect class="cls-4" x="359.9184" y="278.3235" width="21.1855" height="21.3994"/><rect class="cls-4" x="508.2265" y="278.3235" width="21.1855" height="21.3994"/><polygon class="cls-4" points="592.969 278.323 592.969 256.932 571.784 256.932 571.784 278.323 571.784 299.723 592.969 299.723 592.969 278.323"/><polygon class="cls-4" points="931.95 299.723 931.95 321.122 953.135 321.122 953.135 299.723 953.135 278.323 931.95 278.323 931.95 299.723"/><rect class="cls-4" x="423.4755" y="256.9319" width="21.186" height="21.3916"/><rect class="cls-4" x="635.3412" y="256.9319" width="21.1855" height="21.3916"/><rect class="cls-4" x="741.2699" y="256.9319" width="21.1855" height="21.3916"/><rect class="cls-4" x="953.1352" y="256.9319" width="21.186" height="21.3916"/><rect class="cls-4" x="232.8036" y="235.5325" width="21.1855" height="21.3994"/><rect class="cls-4" x="402.29" y="235.5325" width="21.1855" height="21.3994"/><rect class="cls-4" x="804.8271" y="235.5325" width="21.1934" height="21.3994"/><rect class="cls-4" x="20.9379" y="214.1409" width="21.186" height="21.3916"/><polygon class="cls-4" points="84.496 235.532 84.496 256.932 84.496 278.323 105.681 278.323 126.867 278.323 126.867 256.932 105.681 256.932 105.681 235.532 126.867 235.532 126.867 214.141 105.681 214.141 84.496 214.141 84.496 235.532"/><polygon class="cls-4" points="338.732 235.532 338.732 256.932 359.918 256.932 359.918 235.532 381.104 235.532 381.104 214.141 381.104 192.742 359.918 192.742 359.918 214.141 338.732 214.141 338.732 235.532"/><rect class="cls-4" x="677.7123" y="214.1409" width="21.186" height="21.3916"/><rect class="cls-4" x="826.0204" y="214.1409" width="21.186" height="21.3916"/><rect class="cls-4" x="1016.6928" y="214.1409" width="21.1855" height="21.3916"/><rect class="cls-4" x="444.6615" y="192.7419" width="21.1855" height="21.3989"/><rect class="cls-4" x="529.412" y="192.7419" width="21.186" height="21.3989"/><rect class="cls-4" x="804.8271" y="192.7419" width="21.1934" height="21.3989"/><rect class="cls-4" x="910.7636" y="192.7419" width="21.186" height="21.3989"/><polygon class="cls-4" points="1080.25 214.141 1080.25 192.742 1059.064 192.742 1059.064 171.35 1037.878 171.35 1016.693 171.35 1016.693 192.742 1037.878 192.742 1037.878 214.141 1059.064 214.141 1080.25 214.141"/><rect class="cls-4" x="783.6415" y="171.3503" width="21.1855" height="21.3916"/><rect class="cls-4" x="105.6811" y="149.9509" width="21.186" height="21.3994"/><rect class="cls-4" x="190.4321" y="149.9509" width="21.1855" height="21.3994"/><rect class="cls-4" x="317.5468" y="149.9509" width="21.1855" height="21.3994"/><rect class="cls-4" x="741.2699" y="149.9509" width="21.1855" height="21.3994"/><rect class="cls-4" x="614.1552" y="107.1604" width="21.186" height="21.3916"/><rect class="cls-4" x="63.3095" y="85.761" width="21.186" height="21.3994"/><rect class="cls-5" x="741.2699" y="706.2473" width="21.1855" height="21.3994"/><rect class="cls-5" x="232.8036" y="642.0574" width="21.1855" height="21.3989"/><rect class="cls-5" x="635.3412" y="642.0574" width="21.1855" height="21.3989"/><rect class="cls-5" x="84.4955" y="620.6658" width="21.1855" height="21.3916"/><rect class="cls-5" x="826.0204" y="620.6658" width="21.186" height="21.3916"/><rect class="cls-5" x="423.4755" y="599.2664" width="21.186" height="21.3994"/><rect class="cls-5" x="571.7836" y="556.4758" width="21.1855" height="21.3989"/><rect class="cls-5" x="741.2699" y="556.4758" width="21.1855" height="21.3989"/><rect class="cls-5" x="910.7636" y="556.4758" width="21.186" height="21.3989"/><rect class="cls-5" x="63.3095" y="535.0764" width="21.186" height="21.3994"/><rect class="cls-5" x="211.6176" y="535.0764" width="21.186" height="21.3994"/><rect class="cls-5" x="317.5468" y="535.0764" width="21.1855" height="21.3994"/><rect class="cls-5" x="253.9892" y="513.6848" width="21.186" height="21.3916"/><rect class="cls-5" x="487.0404" y="513.6848" width="21.186" height="21.3916"/><rect class="cls-5" x="847.2065" y="513.6848" width="21.1855" height="21.3916"/><rect class="cls-5" x="931.9496" y="513.6848" width="21.1855" height="21.3916"/><rect class="cls-5" x="-0.2476" y="492.2854" width="21.1855" height="21.3994"/><rect class="cls-5" x="783.6415" y="492.2854" width="21.1855" height="21.3994"/><rect class="cls-5" x="868.392" y="492.2854" width="21.186" height="21.3994"/><rect class="cls-5" x="275.1752" y="470.8938" width="21.1855" height="21.3916"/><rect class="cls-5" x="338.7323" y="470.8938" width="21.186" height="21.3916"/><polygon class="cls-5" points="614.155 470.894 614.155 492.285 635.341 492.285 656.527 492.285 656.527 470.894 635.341 470.894 614.155 470.894"/><rect class="cls-5" x="826.0204" y="470.8938" width="21.186" height="21.3916"/><rect class="cls-5" x="1037.8783" y="470.8938" width="21.186" height="21.3916"/><polygon class="cls-5" points="444.662 470.894 444.662 492.285 465.847 492.285 465.847 470.894 465.847 449.494 444.662 449.494 444.662 470.894"/><rect class="cls-5" x="487.0404" y="449.4944" width="21.186" height="21.3994"/><polygon class="cls-5" points="953.135 449.494 953.135 470.894 953.135 492.285 953.135 513.685 974.321 513.685 995.507 513.685 995.507 492.285 995.507 470.894 995.507 449.494 974.321 449.494 953.135 449.494"/><polygon class="cls-5" points="42.124 449.494 63.309 449.494 63.309 428.095 42.124 428.095 20.938 428.095 -0.248 428.095 -0.248 449.494 20.938 449.494 42.124 449.494"/><rect class="cls-5" x="126.8671" y="428.0955" width="21.1855" height="21.3989"/><rect class="cls-5" x="423.4755" y="428.0955" width="21.186" height="21.3989"/><polygon class="cls-5" points="550.598 449.494 571.784 449.494 571.784 428.095 550.598 428.095 529.412 428.095 529.412 449.494 550.598 449.494"/><path class="cls-5" d="M84.4955,406.7039V363.9128h21.1856V342.5139h21.186V321.1223h21.1856v42.7905H105.6811v21.3916h21.186v21.3995h63.565v21.3916h21.1855V406.7039h42.3716v21.3916H232.8036v21.3989h42.3716V406.7039H508.2265v21.3916H529.412V406.7039h63.5572v21.3916h21.186v21.3989h42.3716V428.0955H635.3412V406.7039h42.3711v21.3916h21.1861v21.3989h21.1855v21.3994H698.8984v21.3916H741.27v-42.791h21.1856V428.0955H931.95v21.3989h21.1856V428.0955h42.3716v21.3989h21.186V428.0955h42.3716V406.7039H1080.25V321.1223h-21.1855V299.7229H1080.25v-85.582h-42.3716v21.3916h-21.1855V214.1409h21.1855v-21.399h-21.1855V171.35h42.3716v21.3916H1080.25V.179H-.2476V278.3235H63.31v21.3994H-.2476v64.19H20.9379v21.3916h21.186v21.3995H63.31v21.3916h21.186ZM63.31,85.761h21.186V107.16H63.31Zm953.3833,278.1518h-21.186V342.5139h21.186ZM826.02,299.7229v21.3994H783.6415V299.7229h21.1856V278.3235H826.02Zm-444.9165-64.19H359.9184v21.3994H338.7323v-42.791h21.1861v-21.399h21.1855v42.7906ZM931.95,214.1409h-21.186v-21.399H931.95ZM741.27,278.3235V256.9319h21.1856v21.3916ZM529.412,299.7229H508.2265V278.3235H529.412Zm-148.3081,0H359.9184V278.3235h21.1855ZM762.4555,171.35H741.27V149.9509h21.1856ZM190.4321,149.9509h21.1855V171.35H190.4321Zm508.4663,85.5816H677.7123V214.1409h21.1861Zm-63.5572-106.98h-21.186V107.16h21.186ZM232.8036,235.5325h21.1856v21.3994H232.8036ZM317.5468,171.35V149.9509h21.1855V171.35Zm127.1147,21.3916h21.1856v21.399H444.6615Zm84.7505,0h21.1861v21.399H529.412Zm105.9292,64.19h21.1856v21.3916H635.3412Zm169.4859-21.3994H826.02V214.1409H804.8271v-21.399H783.6415V171.35h21.1856v21.3916H826.02v21.399h21.1861v21.3916H826.02v21.3994H804.8271Zm-529.6519,64.19h21.1856v21.3994H275.1752Zm444.9087,0H741.27v21.3994h-21.186Zm169.4941,0h21.1856v21.3994H889.578Zm84.7432-21.3994h-21.186v42.7988H931.95V278.3235h21.1856V256.9319h21.186Zm-868.64-128.3726h21.186V171.35h-21.186Zm84.751,128.3726h21.1855v21.3994H190.4321Zm105.9287,64.19h21.186v21.3989h-21.186Zm127.1147-21.3916V299.7229h21.186V278.3235h-21.186V256.9319H402.29V235.5325h21.1855v21.3994h21.186v21.3916h21.1856v64.19H423.4755Zm169.4937,0V299.7229H571.7836v-42.791h21.1856v42.791h21.186v42.791h-21.186ZM826.02,342.5139h21.1861v-42.791H868.392v42.791H847.2065v21.3989H826.02ZM190.4321,385.3044V363.9128H169.246V342.5139h21.1861v21.3989h21.1855v21.3916Zm211.8579,0H381.1039V363.9128h42.3716v21.3916Zm148.3081,0H529.412V363.9128h42.3716v21.3916Zm42.3711-21.3916h21.186v21.3916h-21.186Zm169.4863,42.7911H720.0839V385.3044H677.7123V363.9128H656.5268V342.5139h42.3716v21.3989h21.1855v21.3916H741.27V363.9128h42.3716v42.7911Zm84.751,0V385.3044H868.392v21.3995Zm63.5571,0V385.3044H931.95v21.3995ZM20.9379,214.1409h21.186v21.3916H20.9379Zm63.5576,42.791v-42.791h42.3716v21.3916h-21.186v21.3994h21.186v21.3916h21.1856v21.3994H126.8671V278.3235H84.4955Zm-42.3716,85.582V321.1223H63.31v42.7905H42.1239Z"/><rect class="cls-5" x="105.6811" y="406.7039" width="21.186" height="21.3916"/><rect class="cls-5" x="-0.2476" y="385.3044" width="21.1855" height="21.3994"/></g></svg>