<?xml version="1.0" encoding="utf-8"?>
<!-- Generator: Adobe Illustrator 24.0.1, SVG Export Plug-In . SVG Version: 6.00 Build 0)  -->
<svg version="1.1" id="Livello_1" xmlns="http://www.w3.org/2000/svg" xmlns:xlink="http://www.w3.org/1999/xlink" x="0px" y="0px"
	 viewBox="0 0 414 154" style="enable-background:new 0 0 414 154;" xml:space="preserve">
<style type="text/css">
	.st0{fill:#4B8F39;}
	.st1{fill:#68AF75;}
	.st2{fill:#4BE046;}
	.st3{fill:#69C44E;}
	.st4{fill:#8AECA1;}
	.st5{opacity:0.1;enable-background:new    ;}
	.st6{enable-background:new    ;}
	.st7{fill:#FFFFFF;}
</style>
<g>
	<g>
		<g>
			<polygon class="st0" points="238,63.8 238,67.1 238,70.4 238,73.7 238,77 234.7,77 231.4,77 228.1,77 224.8,77 224.8,80.3 
				228.1,80.3 231.4,80.3 234.7,80.3 238,80.3 238,83.6 238,86.9 241.3,86.9 241.3,83.6 241.3,80.3 241.3,77 241.3,73.7 241.3,70.4 
				241.3,67.1 241.3,63.8 			"/>
		</g>
		<g>
			<g>
				<path class="st1" d="M380.1,67.1v3.3h-3.3v3.3h-3.3h-3.3V77h-3.3h-3.3v3.3h-3.3H357h-3.3h-3.3h-3.3h-3.3h-3.3h-3.3h-3.3h-3.3
					h-3.3H324h-3.3h-3.3H314h-3.3h-3.3h-3.3h-3.3h-3.3h-3.3h-3.3h-3.3h-3.3H281h-3.3V77v-3.3v-3.3v-3.3v-3.3v-3.3v-3.3v-3.3v-3.3
					v-3.3h-3.3v3.3v3.3v3.3h-3.3h-3.3h-3.3h-3.3h-3.3h-3.3v3.3h3.3h3.3h3.3h3.3v3.3h3.3v3.3v3.3v3.3V77v3.3v3.3v3.3v3.3h-3.3v3.3
					h-3.3h-3.3h-3.3h-3.3h-3.3v3.3v3.3v3.3h3.3v-3.3v-3.3h3.3h3.3h3.3h3.3h3.3h3.3v3.3v3.3v3.3h-3.3v3.3v3.3h-3.3h-3.3v3.3h-3.3v3.3
					h-3.3h-3.3v3.3h-3.3H248v3.3h-3.3v3.3v3.3v3.3v3.3v3.3h3.3v3.3h3.3v3.3h3.3v3.3h3.3h3.3h3.3h3.3h3.3h3.3h3.3v-3.3h3.3v-3.3h3.3
					V143h3.3v-3.3h3.3v-3.3h3.3v-3.3h3.3v-3.3h3.3v-3.3v-3.3h3.3V120v-3.3h3.3v-3.3V110v-3.3v-3.3v-3.3v-3.3v-3.3v-3.3h3.3h3.3h3.3
					h3.3h3.3h3.3h3.3h3.3h3.3h3.3h3.3h3.3h3.3v3.3h3.3v3.3h3.3h3.3h3.3h3.3h3.3h3.3v-3.3h3.3h3.3v-3.3v-3.3h3.3v-3.3v-3.3V77v-3.3
					v-3.3v-3.3C383.3,67.1,380.1,67.1,380.1,67.1z M264.5,123.3h3.3h3.3h3.3v3.3h3.3v3.3h3.3v3.3v3.3v3.3h-3.3v3.3h-3.3v3.3h-3.3
					h-3.3h-3.3h-3.3h-3.3v-3.3h-3.3v-3.3h-3.3v-3.3v-3.3v-3.3h3.3h3.3v-3.3h3.3v-3.3H264.5z"/>
			</g>
			<g>
				<polygon class="st1" points="274.4,40.7 271.1,40.7 271.1,44 271.1,47.3 274.4,47.3 274.4,44 				"/>
			</g>
			<g>
				<rect x="267.8" y="37.3" class="st1" width="3.3" height="3.3"/>
			</g>
			<g>
				<rect x="247.9" y="103.4" class="st1" width="3.3" height="3.3"/>
			</g>
			<g>
				<polygon class="st1" points="241.3,106.7 238,106.7 234.7,106.7 234.7,103.4 231.4,103.4 231.4,100.1 231.4,96.8 228.1,96.8 
					224.8,96.8 224.8,100.1 224.8,103.4 228.1,103.4 228.1,106.7 231.4,106.7 231.4,110 234.7,110 234.7,113.3 238,113.3 
					241.3,113.3 244.6,113.3 244.6,110 247.9,110 247.9,106.7 244.6,106.7 				"/>
			</g>
			<g>
				<polygon class="st1" points="231.4,53.9 234.7,53.9 238,53.9 241.3,53.9 241.3,50.6 241.3,47.3 238,47.3 234.7,47.3 231.4,47.3 
					231.4,50.6 228.1,50.6 228.1,53.9 228.1,57.2 231.4,57.2 				"/>
			</g>
			<g>
				<polygon class="st1" points="228.1,86.9 231.4,86.9 234.7,86.9 238,86.9 238,83.6 238,80.3 234.7,80.3 231.4,80.3 228.1,80.3 
					224.8,80.3 221.5,80.3 218.2,80.3 214.9,80.3 211.6,80.3 208.3,80.3 205,80.3 201.7,80.3 198.4,80.3 195.1,80.3 191.8,80.3 
					188.5,80.3 185.1,80.3 181.8,80.3 178.5,80.3 175.2,80.3 171.9,80.3 168.6,80.3 165.3,80.3 162,80.3 158.7,80.3 155.4,80.3 
					152.1,80.3 148.8,80.3 145.5,80.3 142.2,80.3 138.9,80.3 135.6,80.3 132.3,80.3 129,80.3 125.7,80.3 122.4,80.3 119.1,80.3 
					115.8,80.3 112.5,80.3 109.1,80.3 105.8,80.3 102.5,80.3 99.2,80.3 95.9,80.3 92.6,80.3 89.3,80.3 86,80.3 82.7,80.3 79.4,80.3 
					76.1,80.3 72.8,80.3 69.5,80.3 66.2,80.3 62.9,80.3 59.6,80.3 56.3,80.3 53,80.3 49.7,80.3 49.7,83.6 53,83.6 53,86.9 
					56.3,86.9 59.6,86.9 62.9,86.9 66.2,86.9 69.5,86.9 72.8,86.9 76.1,86.9 79.4,86.9 82.7,86.9 86,86.9 89.3,86.9 92.6,86.9 
					95.9,86.9 99.2,86.9 102.5,86.9 105.8,86.9 109.1,86.9 112.5,86.9 115.8,86.9 119.1,86.9 122.4,86.9 125.7,86.9 129,86.9 
					132.3,86.9 135.6,86.9 138.9,86.9 142.2,86.9 145.5,86.9 148.8,86.9 152.1,86.9 155.4,86.9 158.7,86.9 162,86.9 165.3,86.9 
					168.6,86.9 171.9,86.9 175.2,86.9 178.5,86.9 181.8,86.9 185.1,86.9 188.5,86.9 191.8,86.9 195.1,86.9 198.4,86.9 201.7,86.9 
					205,86.9 208.3,86.9 211.6,86.9 214.9,86.9 218.2,86.9 221.5,86.9 224.8,86.9 				"/>
			</g>
		</g>
		<g>
			<g>
				<polygon class="st2" points="267.8,67.1 267.8,70.4 267.8,73.7 264.5,73.7 261.1,73.7 257.8,73.7 254.5,73.7 251.2,73.7 
					251.2,77 251.2,80.3 254.5,80.3 257.8,80.3 261.1,80.3 264.5,80.3 267.8,80.3 271.1,80.3 271.1,77 271.1,73.7 271.1,70.4 
					271.1,67.1 				"/>
			</g>
			<g>
				<polygon class="st2" points="241.3,67.1 241.3,70.4 241.3,73.7 244.6,73.7 247.9,73.7 247.9,70.4 247.9,67.1 244.6,67.1 				"/>
			</g>
			<g>
				<polygon class="st2" points="228.1,67.1 224.8,67.1 224.8,70.4 224.8,73.7 228.1,73.7 231.4,73.7 234.7,73.7 234.7,70.4 
					234.7,67.1 231.4,67.1 				"/>
			</g>
			<g>
				<polygon class="st2" points="218.2,73.7 214.9,73.7 211.6,73.7 208.3,73.7 205,73.7 201.7,73.7 198.4,73.7 195.1,73.7 
					191.8,73.7 188.5,73.7 185.1,73.7 181.8,73.7 178.5,73.7 175.2,73.7 171.9,73.7 168.6,73.7 165.3,73.7 162,73.7 158.7,73.7 
					155.4,73.7 152.1,73.7 148.8,73.7 145.5,73.7 142.2,73.7 138.9,73.7 135.6,73.7 132.3,73.7 129,73.7 125.7,73.7 122.4,73.7 
					119.1,73.7 115.8,73.7 112.5,73.7 109.1,73.7 105.8,73.7 102.5,73.7 99.2,73.7 95.9,73.7 92.6,73.7 89.3,73.7 86,73.7 
					82.7,73.7 79.4,73.7 76.1,73.7 72.8,73.7 69.5,73.7 66.2,73.7 62.9,73.7 59.6,73.7 56.3,73.7 53,73.7 49.7,73.7 46.4,73.7 
					43.1,73.7 43.1,77 43.1,80.3 46.4,80.3 49.7,80.3 53,80.3 56.3,80.3 59.6,80.3 62.9,80.3 66.2,80.3 69.5,80.3 72.8,80.3 
					76.1,80.3 79.4,80.3 82.7,80.3 86,80.3 89.3,80.3 92.6,80.3 95.9,80.3 99.2,80.3 102.5,80.3 105.8,80.3 109.1,80.3 112.5,80.3 
					115.8,80.3 119.1,80.3 122.4,80.3 125.7,80.3 129,80.3 132.3,80.3 135.6,80.3 138.9,80.3 142.2,80.3 145.5,80.3 148.8,80.3 
					152.1,80.3 155.4,80.3 158.7,80.3 162,80.3 165.3,80.3 168.6,80.3 171.9,80.3 175.2,80.3 178.5,80.3 181.8,80.3 185.1,80.3 
					188.5,80.3 191.8,80.3 195.1,80.3 198.4,80.3 201.7,80.3 205,80.3 208.3,80.3 211.6,80.3 214.9,80.3 218.2,80.3 221.5,80.3 
					224.8,80.3 224.8,77 224.8,73.7 221.5,73.7 				"/>
			</g>
		</g>
		<g>
			<g>
				<path class="st3" d="M380.1,63.8v-3.3h-3.3h-3.3v-3.3h-3.3h-3.3h-3.3h-3.3H357h-3.3v3.3h-3.3v3.3h-3.3h-3.3h-3.3h-3.3h-3.3h-3.3
					h-3.3H324h-3.3h-3.3H314h-3.3h-3.3v-3.3v-3.3v-3.3v-3.3v-3.3V44v-3.3v-3.3h-3.3V34v-3.3h-3.3v-3.3v-3.3h-3.3v-3.3h-3.3v-3.3
					h-3.3v-3.3h-3.3v-3.3h-3.3V7.6H281V4.3h-3.3V1h-3.3h-3.3h-3.3h-3.3h-3.3h-3.3h-3.3v3.3h-3.3v3.3H248v3.3h-3.3v3.3v3.3v3.3v3.3
					v3.3h3.3v3.3h3.3h3.3V34h3.3h3.3v3.3h3.3v3.3h3.3v-3.3h3.3v3.3h3.3V44v3.3h3.3v3.3v3.3v3.3v3.3v3.3v3.3v3.3v3.3V77v3.3h3.3h3.3
					h3.3h3.3h3.3h3.3h3.3h3.3h3.3h3.3h3.3h3.3h3.3h3.3h3.3h3.3h3.3h3.3h3.3h3.3h3.3h3.3h3.3h3.3h3.3h3.3V77h-3.3v-3.3v-3.3h3.3h3.3
					h3.3v3.3h3.3h3.3v-3.3h3.3v-3.3h3.3v-3.3C383.3,63.8,380.1,63.8,380.1,63.8z M257.8,27.4v-3.3h-3.3h-3.3v-3.3v-3.3v-3.3h3.3
					v-3.3h3.3V7.6h3.3h3.3h3.3h3.3h3.3v3.3h3.3v3.3h3.3v3.3v3.3v3.3h-3.3v3.3h-3.3v3.3H271h-3.3h-3.3h-3.3v-3.3
					C261.1,27.4,257.8,27.4,257.8,27.4z"/>
			</g>
			<g>
				<polygon class="st3" points="264.5,80.3 261.1,80.3 257.8,80.3 254.5,80.3 251.2,80.3 251.2,77 251.2,73.7 247.9,73.7 
					244.6,73.7 241.3,73.7 241.3,77 241.3,80.3 241.3,83.6 241.3,86.9 238,86.9 234.7,86.9 231.4,86.9 228.1,86.9 224.8,86.9 
					224.8,90.2 221.5,90.2 218.2,90.2 214.9,90.2 211.6,90.2 208.3,90.2 205,90.2 201.7,90.2 198.4,90.2 195.1,90.2 191.8,90.2 
					188.5,90.2 185.1,90.2 181.8,90.2 178.5,90.2 175.2,90.2 171.9,90.2 168.6,90.2 165.3,90.2 162,90.2 158.7,90.2 155.4,90.2 
					152.1,90.2 148.8,90.2 145.5,90.2 142.2,90.2 138.9,90.2 135.6,90.2 132.3,90.2 129,90.2 125.7,90.2 122.4,90.2 119.1,90.2 
					115.8,90.2 112.5,90.2 109.1,90.2 105.8,90.2 102.5,90.2 99.2,90.2 95.9,90.2 92.6,90.2 89.3,90.2 86,90.2 82.7,90.2 79.4,90.2 
					76.1,90.2 72.8,90.2 69.5,90.2 66.2,90.2 62.9,90.2 59.6,90.2 56.3,90.2 56.3,86.9 53,86.9 53,83.6 49.7,83.6 49.7,80.3 
					46.4,80.3 43.1,80.3 43.1,77 43.1,73.7 46.4,73.7 46.4,70.4 46.4,67.1 46.4,63.8 43.1,63.8 43.1,67.1 43.1,70.4 39.8,70.4 
					39.8,73.7 36.4,73.7 36.4,77 36.4,80.3 39.8,80.3 39.8,83.6 39.8,86.9 43.1,86.9 43.1,90.2 46.4,90.2 46.4,93.5 49.7,93.5 
					53,93.5 56.3,93.5 59.6,93.5 62.9,93.5 66.2,93.5 69.5,93.5 72.8,93.5 76.1,93.5 79.4,93.5 82.7,93.5 86,93.5 89.3,93.5 
					92.6,93.5 95.9,93.5 99.2,93.5 102.5,93.5 105.8,93.5 109.1,93.5 112.5,93.5 115.8,93.5 119.1,93.5 122.4,93.5 125.7,93.5 
					129,93.5 132.3,93.5 135.6,93.5 138.9,93.5 142.2,93.5 145.5,93.5 148.8,93.5 152.1,93.5 155.4,93.5 158.7,93.5 162,93.5 
					165.3,93.5 168.6,93.5 171.9,93.5 175.2,93.5 178.5,93.5 181.8,93.5 185.1,93.5 188.5,93.5 191.8,93.5 195.1,93.5 198.4,93.5 
					201.7,93.5 205,93.5 208.3,93.5 211.6,93.5 214.9,93.5 218.2,93.5 221.5,93.5 224.8,93.5 224.8,96.8 228.1,96.8 231.4,96.8 
					231.4,100.1 231.4,103.4 234.7,103.4 234.7,106.7 238,106.7 241.3,106.7 244.6,106.7 247.9,106.7 247.9,103.4 251.2,103.4 
					251.2,100.1 251.2,96.8 251.2,93.5 254.5,93.5 257.8,93.5 261.1,93.5 264.5,93.5 267.8,93.5 267.8,90.2 271.1,90.2 271.1,86.9 
					271.1,83.6 271.1,80.3 267.8,80.3 				"/>
			</g>
			<g>
				<rect x="46.4" y="60.5" class="st3" width="3.3" height="3.3"/>
			</g>
		</g>
		<g>
			<g>
				<polygon class="st4" points="366.9,70.4 363.6,70.4 360.3,70.4 360.3,73.7 360.3,77 363.6,77 366.9,77 370.2,77 370.2,73.7 
					370.2,70.4 				"/>
			</g>
			<g>
				<polygon class="st4" points="277.7,126.6 274.4,126.6 274.4,123.3 271.1,123.3 267.8,123.3 264.5,123.3 261.1,123.3 
					261.1,126.6 257.8,126.6 257.8,129.9 254.5,129.9 251.2,129.9 251.2,133.2 251.2,136.5 251.2,139.8 254.5,139.8 254.5,143.1 
					257.8,143.1 257.8,146.4 261.1,146.4 264.5,146.4 267.8,146.4 271.1,146.4 274.4,146.4 274.4,143.1 277.7,143.1 277.7,139.8 
					281,139.8 281,136.5 281,133.2 281,129.9 277.7,129.9 				"/>
			</g>
			<g>
				<polygon class="st4" points="277.7,10.9 274.4,10.9 274.4,7.6 271.1,7.6 267.8,7.6 264.5,7.6 261.1,7.6 257.8,7.6 257.8,10.9 
					254.5,10.9 254.5,14.2 251.2,14.2 251.2,17.5 251.2,20.8 251.2,24.1 254.5,24.1 257.8,24.1 257.8,27.4 261.1,27.4 261.1,30.7 
					264.5,30.7 267.8,30.7 271.1,30.7 274.4,30.7 274.4,27.4 277.7,27.4 277.7,24.1 281,24.1 281,20.8 281,17.5 281,14.2 
					277.7,14.2 				"/>
			</g>
			<g>
				<polygon class="st4" points="247.9,73.7 251.2,73.7 254.5,73.7 257.8,73.7 261.1,73.7 264.5,73.7 267.8,73.7 267.8,70.4 
					267.8,67.1 271.1,67.1 271.1,63.8 267.8,63.8 267.8,60.5 264.5,60.5 261.1,60.5 257.8,60.5 254.5,60.5 254.5,57.2 254.5,53.9 
					254.5,50.6 251.2,50.6 251.2,47.3 247.9,47.3 247.9,44 244.6,44 244.6,40.7 241.3,40.7 238,40.7 234.7,40.7 234.7,44 231.4,44 
					231.4,47.3 234.7,47.3 238,47.3 241.3,47.3 241.3,50.6 241.3,53.9 238,53.9 234.7,53.9 231.4,53.9 231.4,57.2 228.1,57.2 
					228.1,53.9 228.1,50.6 224.8,50.6 224.8,53.9 224.8,57.2 221.5,57.2 218.2,57.2 214.9,57.2 211.6,57.2 208.3,57.2 205,57.2 
					201.7,57.2 198.4,57.2 195.1,57.2 191.8,57.2 188.5,57.2 185.1,57.2 181.8,57.2 178.5,57.2 175.2,57.2 171.9,57.2 168.6,57.2 
					165.3,57.2 162,57.2 158.7,57.2 155.4,57.2 152.1,57.2 148.8,57.2 145.5,57.2 142.2,57.2 138.9,57.2 135.6,57.2 132.3,57.2 
					129,57.2 125.7,57.2 122.4,57.2 119.1,57.2 115.8,57.2 112.5,57.2 109.1,57.2 105.8,57.2 102.5,57.2 99.2,57.2 95.9,57.2 
					92.6,57.2 89.3,57.2 86,57.2 82.7,57.2 79.4,57.2 76.1,57.2 72.8,57.2 69.5,57.2 66.2,57.2 62.9,57.2 59.6,57.2 56.3,57.2 
					53,57.2 49.7,57.2 46.4,57.2 46.4,60.5 49.7,60.5 49.7,63.8 46.4,63.8 46.4,67.1 46.4,70.4 46.4,73.7 49.7,73.7 53,73.7 
					56.3,73.7 59.6,73.7 62.9,73.7 66.2,73.7 69.5,73.7 72.8,73.7 76.1,73.7 79.4,73.7 82.7,73.7 86,73.7 89.3,73.7 92.6,73.7 
					95.9,73.7 99.2,73.7 102.5,73.7 105.8,73.7 109.1,73.7 112.5,73.7 115.8,73.7 119.1,73.7 122.4,73.7 125.7,73.7 129,73.7 
					132.3,73.7 135.6,73.7 138.9,73.7 142.2,73.7 145.5,73.7 148.8,73.7 152.1,73.7 155.4,73.7 158.7,73.7 162,73.7 165.3,73.7 
					168.6,73.7 171.9,73.7 175.2,73.7 178.5,73.7 181.8,73.7 185.1,73.7 188.5,73.7 191.8,73.7 195.1,73.7 198.4,73.7 201.7,73.7 
					205,73.7 208.3,73.7 211.6,73.7 214.9,73.7 218.2,73.7 221.5,73.7 224.8,73.7 224.8,70.4 224.8,67.1 228.1,67.1 231.4,67.1 
					234.7,67.1 234.7,70.4 234.7,73.7 231.4,73.7 228.1,73.7 224.8,73.7 224.8,77 228.1,77 231.4,77 234.7,77 238,77 238,73.7 
					238,70.4 238,67.1 238,63.8 241.3,63.8 241.3,67.1 244.6,67.1 247.9,67.1 247.9,70.4 				"/>
			</g>
			<g>
				<rect x="228.1" y="47.3" class="st4" width="3.3" height="3.3"/>
			</g>
			<g>
				<polygon class="st4" points="218.2,86.9 214.9,86.9 211.6,86.9 208.3,86.9 205,86.9 201.7,86.9 198.4,86.9 195.1,86.9 
					191.8,86.9 188.5,86.9 185.1,86.9 181.8,86.9 178.5,86.9 175.2,86.9 171.9,86.9 168.6,86.9 165.3,86.9 162,86.9 158.7,86.9 
					155.4,86.9 152.1,86.9 148.8,86.9 145.5,86.9 142.2,86.9 138.9,86.9 135.6,86.9 132.3,86.9 129,86.9 125.7,86.9 122.4,86.9 
					119.1,86.9 115.8,86.9 112.5,86.9 109.1,86.9 105.8,86.9 102.5,86.9 99.2,86.9 95.9,86.9 92.6,86.9 89.3,86.9 86,86.9 
					82.7,86.9 79.4,86.9 76.1,86.9 72.8,86.9 69.5,86.9 66.2,86.9 62.9,86.9 59.6,86.9 56.3,86.9 56.3,90.2 59.6,90.2 62.9,90.2 
					66.2,90.2 69.5,90.2 72.8,90.2 76.1,90.2 79.4,90.2 82.7,90.2 86,90.2 89.3,90.2 92.6,90.2 95.9,90.2 99.2,90.2 102.5,90.2 
					105.8,90.2 109.1,90.2 112.5,90.2 115.8,90.2 119.1,90.2 122.4,90.2 125.7,90.2 129,90.2 132.3,90.2 135.6,90.2 138.9,90.2 
					142.2,90.2 145.5,90.2 148.8,90.2 152.1,90.2 155.4,90.2 158.7,90.2 162,90.2 165.3,90.2 168.6,90.2 171.9,90.2 175.2,90.2 
					178.5,90.2 181.8,90.2 185.1,90.2 188.5,90.2 191.8,90.2 195.1,90.2 198.4,90.2 201.7,90.2 205,90.2 208.3,90.2 211.6,90.2 
					214.9,90.2 218.2,90.2 221.5,90.2 224.8,90.2 224.8,86.9 221.5,86.9 				"/>
			</g>
			<g>
				<polygon class="st4" points="49.7,96.8 53,96.8 56.3,96.8 59.6,96.8 62.9,96.8 66.2,96.8 69.5,96.8 72.8,96.8 76.1,96.8 
					79.4,96.8 82.7,96.8 86,96.8 89.3,96.8 92.6,96.8 95.9,96.8 99.2,96.8 102.5,96.8 105.8,96.8 109.1,96.8 112.5,96.8 115.8,96.8 
					119.1,96.8 122.4,96.8 125.7,96.8 129,96.8 132.3,96.8 135.6,96.8 138.9,96.8 142.2,96.8 145.5,96.8 148.8,96.8 152.1,96.8 
					155.4,96.8 158.7,96.8 162,96.8 165.3,96.8 168.6,96.8 171.9,96.8 175.2,96.8 178.5,96.8 181.8,96.8 185.1,96.8 188.5,96.8 
					191.8,96.8 195.1,96.8 198.4,96.8 201.7,96.8 205,96.8 208.3,96.8 211.6,96.8 214.9,96.8 218.2,96.8 221.5,96.8 224.8,96.8 
					224.8,93.5 221.5,93.5 218.2,93.5 214.9,93.5 211.6,93.5 208.3,93.5 205,93.5 201.7,93.5 198.4,93.5 195.1,93.5 191.8,93.5 
					188.5,93.5 185.1,93.5 181.8,93.5 178.5,93.5 175.2,93.5 171.9,93.5 168.6,93.5 165.3,93.5 162,93.5 158.7,93.5 155.4,93.5 
					152.1,93.5 148.8,93.5 145.5,93.5 142.2,93.5 138.9,93.5 135.6,93.5 132.3,93.5 129,93.5 125.7,93.5 122.4,93.5 119.1,93.5 
					115.8,93.5 112.5,93.5 109.1,93.5 105.8,93.5 102.5,93.5 99.2,93.5 95.9,93.5 92.6,93.5 89.3,93.5 86,93.5 82.7,93.5 79.4,93.5 
					76.1,93.5 72.8,93.5 69.5,93.5 66.2,93.5 62.9,93.5 59.6,93.5 56.3,93.5 53,93.5 49.7,93.5 46.4,93.5 46.4,96.8 				"/>
			</g>
			<g>
				<rect x="43.1" y="90.2" class="st4" width="3.3" height="3.3"/>
			</g>
			<g>
				<rect x="43.1" y="60.5" class="st4" width="3.3" height="3.3"/>
			</g>
			<g>
				<rect x="39.8" y="86.9" class="st4" width="3.3" height="3.3"/>
			</g>
			<g>
				<polygon class="st4" points="39.8,67.1 36.4,67.1 36.4,70.4 33.1,70.4 33.1,73.7 33.1,77 33.1,80.3 33.1,83.6 36.4,83.6 
					36.4,86.9 39.8,86.9 39.8,83.6 39.8,80.3 36.4,80.3 36.4,77 36.4,73.7 39.8,73.7 39.8,70.4 43.1,70.4 43.1,67.1 43.1,63.8 
					39.8,63.8 				"/>
			</g>
		</g>
	</g>
	<g class="st5">
		<polygon points="241.3,40.7 238,40.7 234.7,40.7 234.7,44 231.4,44 231.4,47.3 228.1,47.3 228.1,50.6 224.8,50.6 224.8,53.9 
			224.8,57.2 221.5,57.2 218.2,57.2 214.9,57.2 211.6,57.2 208.3,57.2 205,57.2 201.7,57.2 198.4,57.2 195.1,57.2 191.8,57.2 
			188.5,57.2 185.1,57.2 181.8,57.2 178.5,57.2 175.2,57.2 171.9,57.2 168.6,57.2 165.3,57.2 162,57.2 158.7,57.2 155.4,57.2 
			152.1,57.2 148.8,57.2 145.5,57.2 142.2,57.2 138.9,57.2 135.6,57.2 132.3,57.2 129,57.2 125.7,57.2 122.4,57.2 119.1,57.2 
			115.8,57.2 112.5,57.2 109.1,57.2 105.8,57.2 102.5,57.2 99.2,57.2 95.9,57.2 92.6,57.2 89.3,57.2 86,57.2 82.7,57.2 79.4,57.2 
			76.1,57.2 72.8,57.2 69.5,57.2 66.2,57.2 62.9,57.2 59.6,57.2 56.3,57.2 53,57.2 49.7,57.2 46.4,57.2 46.4,60.5 43.1,60.5 
			43.1,63.8 39.8,63.8 39.8,67.1 36.4,67.1 36.4,70.4 33.1,70.4 33.1,73.7 33.1,77 33.1,80.3 33.1,83.6 36.4,83.6 36.4,86.9 
			39.8,86.9 39.8,90.2 43.1,90.2 43.1,93.5 46.4,93.5 46.4,96.8 49.7,96.8 53,96.8 56.3,96.8 59.6,96.8 62.9,96.8 66.2,96.8 
			69.5,96.8 72.8,96.8 76.1,96.8 79.4,96.8 82.7,96.8 86,96.8 89.3,96.8 92.6,96.8 95.9,96.8 99.2,96.8 102.5,96.8 105.8,96.8 
			109.1,96.8 112.5,96.8 115.8,96.8 119.1,96.8 122.4,96.8 125.7,96.8 129,96.8 132.3,96.8 135.6,96.8 138.9,96.8 142.2,96.8 
			145.5,96.8 148.8,96.8 152.1,96.8 155.4,96.8 158.7,96.8 162,96.8 165.3,96.8 168.6,96.8 171.9,96.8 175.2,96.8 178.5,96.8 
			181.8,96.8 185.1,96.8 188.5,96.8 191.8,96.8 195.1,96.8 198.4,96.8 201.7,96.8 205,96.8 208.3,96.8 211.6,96.8 214.9,96.8 
			218.2,96.8 221.5,96.8 224.8,96.8 224.8,100.1 224.8,103.4 228.1,103.4 228.1,106.7 231.4,106.7 231.4,110 234.7,110 234.7,113.3 
			238,113.3 241.3,113.3 244.6,113.3 244.6,110 247.9,110 247.9,106.7 251.2,106.7 251.2,103.4 254.5,103.4 254.5,100.1 254.5,96.8 
			257.8,96.8 261.1,96.8 264.5,96.8 267.8,96.8 271.1,96.8 274.4,96.8 274.4,100.1 274.4,103.4 274.4,106.7 271.1,106.7 271.1,110 
			271.1,113.3 267.8,113.3 264.5,113.3 264.5,116.7 261.1,116.7 261.1,120 257.8,120 254.5,120 254.5,123.3 251.2,123.3 
			247.9,123.3 247.9,126.6 244.6,126.6 244.6,129.9 244.6,133.2 244.6,136.5 244.6,139.8 244.6,143.1 247.9,143.1 247.9,146.4 
			251.2,146.4 251.2,149.7 254.5,149.7 254.5,153 257.8,153 261.1,153 264.5,153 267.8,153 271.1,153 274.4,153 277.7,153 
			277.7,149.7 281,149.7 281,146.4 284.3,146.4 284.3,143.1 287.6,143.1 287.6,139.8 290.9,139.8 290.9,136.5 294.2,136.5 
			294.2,133.2 297.5,133.2 297.5,129.9 300.8,129.9 300.8,126.6 300.8,123.3 304.1,123.3 304.1,120 304.1,116.7 307.4,116.7 
			307.4,113.3 307.4,110 307.4,106.7 307.4,103.4 307.4,100.1 307.4,96.8 307.4,93.5 307.4,90.2 310.7,90.2 314,90.2 317.3,90.2 
			320.6,90.2 323.9,90.2 327.2,90.2 330.5,90.2 333.8,90.2 337.1,90.2 340.5,90.2 343.8,90.2 347.1,90.2 350.4,90.2 350.4,93.5 
			353.7,93.5 353.7,96.8 357,96.8 360.3,96.8 363.6,96.8 366.9,96.8 370.2,96.8 373.5,96.8 373.5,93.5 376.8,93.5 380.1,93.5 
			380.1,90.2 380.1,86.9 383.4,86.9 383.4,83.6 383.4,80.3 383.4,77 383.4,73.7 383.4,70.4 383.4,67.1 383.4,63.8 380.1,63.8 
			380.1,60.5 376.8,60.5 373.5,60.5 373.5,57.2 370.2,57.2 366.9,57.2 363.6,57.2 360.3,57.2 357,57.2 353.7,57.2 353.7,60.5 
			350.4,60.5 350.4,63.8 347.1,63.8 343.8,63.8 340.5,63.8 337.1,63.8 333.8,63.8 330.5,63.8 327.2,63.8 323.9,63.8 320.6,63.8 
			317.3,63.8 314,63.8 310.7,63.8 307.4,63.8 307.4,60.5 307.4,57.2 307.4,53.9 307.4,50.6 307.4,47.3 307.4,44 307.4,40.7 
			307.4,37.3 304.1,37.3 304.1,34 304.1,30.7 300.8,30.7 300.8,27.4 300.8,24.1 297.5,24.1 297.5,20.8 294.2,20.8 294.2,17.5 
			290.9,17.5 290.9,14.2 287.6,14.2 287.6,10.9 284.3,10.9 284.3,7.6 281,7.6 281,4.3 277.7,4.3 277.7,1 274.4,1 271.1,1 267.8,1 
			264.5,1 261.1,1 257.8,1 254.5,1 254.5,4.3 251.2,4.3 251.2,7.6 247.9,7.6 247.9,10.9 244.6,10.9 244.6,14.2 244.6,17.5 
			244.6,20.8 244.6,24.1 244.6,27.4 247.9,27.4 247.9,30.7 251.2,30.7 254.5,30.7 254.5,34 257.8,34 261.1,34 261.1,37.3 
			264.5,37.3 264.5,40.7 267.8,40.7 271.1,40.7 271.1,44 271.1,47.3 274.4,47.3 274.4,50.6 274.4,53.9 274.4,57.2 271.1,57.2 
			267.8,57.2 264.5,57.2 261.1,57.2 257.8,57.2 254.5,57.2 254.5,53.9 254.5,50.6 251.2,50.6 251.2,47.3 247.9,47.3 247.9,44 
			244.6,44 244.6,40.7 		"/>
	</g>
	<g class="st6">
		<path class="st7" d="M28.7,20.3V17H32v3.3H28.7z M28.7,23.7v-3.3H32v3.3H28.7z M32,60.3V57h-3.3v-3.3v-3.3H32v3.3h6.7v6.7H32z
			 M32,17v-3.3h3.3V17H32z M48.7,60.3V57H42v-3.3h-3.3v-3.3H32v-6.7h3.3v-3.3h3.3H42h3.3v3.3h3.3H52V47h3.3v3.3h3.3v3.3H62h6.7H72
			v-3.3h3.3v-6.7h-6.7v-3.3H72h3.3v3.3h3.3v10h-3.3V57H72v3.3H48.7z M58.7,43.7V47h-3.3v-6.7H52V37h-3.3v-3.3h-3.3v-10h3.3v-3.3H52
			h3.3V17H52v-3.3H35.4v-3.3h3.3V7h6.7h10h3.3H62v3.3h6.7v3.3H72V17h6.7v6.7h-3.3V27h-10v-3.3H62v-3.3h-3.3v10H62v3.3h3.3v6.7H62
			v3.3H58.7z M65.4,47v-3.3h3.3V47H65.4z M82,10.3V17h-3.3v-3.3H72V7h6.7v3.3H82z"/>
		<path class="st7" d="M105.4,57H102v3.3h-3.3v3.3h-3.3v-3.3h-6.7V57h-3.3v-3.3h3.3v-3.3v-6.7V27V7h-3.3V3.7h3.3V7H92V3.7h3.3V0.4
			h6.7v3.3h-3.3v20h3.3V27h-3.3v23.3h3.3v3.3h3.3V57z M118.7,50.3h-3.3v10H112V67h-3.3v3.3h-3.3v3.3H102V67h3.3v-3.3v-3.3h3.3V57
			v-6.7V47v-6.7v-10h-3.3V27v-3.3H102v-3.3h3.3V17h3.3h3.3v3.3h3.3V27h3.3V50.3z"/>
		<path class="st7" d="M132,63.7v-3.3h-3.3V57h-3.3v-3.3H122v-3.3V47v-3.3V37v-6.7h3.3V27h3.3v-3.3h3.3V37h3.3v3.3H132V47h3.3v3.3
			h3.3v3.3h3.3V57h-3.3v3.3h-3.3v3.3H132z M138.7,33.7v-3.3h-3.3V27v-3.3H132v-3.3h3.3V17h3.3h3.3v3.3h3.3V27h3.3v3.3h-3.3v3.3
			H138.7z M135.4,37v-3.3h3.3V37H135.4z"/>
		<path class="st7" d="M202,27v20h3.3v3.3h3.3V57h-3.3v3.3h-6.7V57h-3.3v-3.3H192v-3.3V47v-3.3V37v-3.3h-3.3v20h-3.3V57H182v3.3h-10
			V57h-6.7v-3.3H162V47h3.3v-3.3h3.3h3.3V57h3.3v-3.3h3.3v-3.3v-6.7h-3.3v-3.3V37v-3.3v-10h3.3V17h3.3v-6.7h3.3V7h6.7h10h3.3h3.3
			v3.3h3.3v3.3h3.3v6.7H212V17v-3.3h-3.3v-3.3H192v3.3h3.3h3.3h3.3V17h3.3v-3.3h3.3v6.7h3.3v3.3h-3.3v-3.3h-3.3v3.3h-6.7V27H202z
			 M192,17v-3.3h-3.3V17H192z M195.3,27v-3.3H192v-3.3h-3.3v10h3.3V27H195.3z M208.7,50.3V47h3.3v3.3H208.7z"/>
		<path class="st7" d="M228.7,63.7v-3.3h-3.3V57H222V47V33.7v-3.3h-3.3v-6.7h3.3v-3.3h3.3V17h3.3v3.3h3.3v3.3h3.3V27H232v23.3h3.3
			v3.3h3.3V57h-3.3v3.3H232v3.3H228.7z M222,7V0.4h3.3h3.3h3.3v10h-3.3v3.3h-3.3v-3.3V7H222z"/>
		<path class="st7" d="M258.7,30.3v23.3h3.3V57h-3.3v3.3h-3.3v3.3H252v-3.3h-3.3V57h-3.3v-3.3h3.3V30.3h-3.3V27H242v-3.3h3.3v-3.3
			h3.3V17h3.3v3.3h3.3v3.3h3.3V27h3.3v3.3H258.7z M275.3,30.3v23.3h3.3V57h-3.3v3.3H272v3.3h-3.3v-3.3h-3.3v-10V47v-3.3V27H262v-6.7
			h3.3V17h3.3v3.3h3.3v3.3h3.3V27h3.3v3.3H275.3z"/>
		<path class="st7" d="M305.3,63.7H302v-3.3h-3.3V57h-3.3v3.3H292v3.3h-3.3v-3.3h-3.3V57H282V47v-3.3v-3.3V37v-3.3h3.3v-3.3h3.3V27
			h3.3v23.3h3.3v3.3h3.3v-3.3v-10V37v-3.3v-3.3h-3.3V27H292v-3.3h3.3v-3.3h3.3V17h3.3v3.3h3.3v3.3h6.7V27h-3.3v30h3.3v3.3h3.3v10
			H312v3.3h-26.7v-3.3H282V67v-3.3h6.7V67h3.3v3.3h3.3h10V67V63.7z"/>
		<path class="st7" d="M335.3,63.7v-3.3h-6.7V57h-3.3v-3.3h3.3v-3.3v-6.7v-3.3v-10h3.3V27h3.3v-3.3h3.3v26.7h3.3v3.3h3.3V57H342v3.3
			h-3.3v3.3H335.3z M348.6,50.3v3.3h-3.3v-10v-3.3v-10V27H342v-3.3h-3.3v-3.3h3.3V17h3.3h3.3v3.3h3.3v3.3h3.3V47H352v3.3H348.6z"/>
		<path class="st7" d="M378.6,23.7H372V67h-3.3v6.7h-3.3v-3.3v-6.7v-3.3H362V57v-3.3v-3.3V47v-3.3V37v-6.7V27v-3.3h-3.3v-3.3h3.3
			V3.7h3.3V0.4h3.3h3.3v3.3h3.3V0.4h3.3V7h-3.3v3.3h-6.7V7h-3.3v3.3h3.3v3.3h3.3V17h6.7V23.7z"/>
	</g>
	<g class="st6">
		<path class="st7" d="M3.7,140.3H0.4V137h3.3V140.3z M27,103.7h-3.3v-3.3h-3.3V97H17v-3.3h-6.7V97H17v3.3h3.3v3.3h3.3V117h-3.3v3.3
			h-10V117H7v-3.3v-3.3h3.3v6.7H17v-3.3h-3.3v-3.3h-3.3V107H7v-3.3H3.7v-3.3V97v-3.3H7v-3.3h6.7V87H17h10v3.3h6.7v3.3H37v6.7h3.3
			v13.3H37v6.7h-3.3v3.3h-3.3v6.7h3.3V127H37h3.3v3.3h3.3V127v-6.7V117v-13.3v-3.3V97h-3.3v-3.3H37v-3.3h3.3V87H47v3.3h3.3v3.3h3.3
			V97H57v13.3h3.3V107h3.3H67v10h3.3v3.3h3.3v3.3H77v3.3h3.3v3.3H77v6.7h-3.3v3.3H67V137h-3.3v-3.3h-3.3V127H57v-6.7V117v-6.7h-3.3
			v10h-3.3v6.7H47v6.7h-3.3v6.7h-3.3V137H27v-3.3h-3.3V127H27v-6.7v-6.7V103.7z M20.4,133.7h3.3v3.3H27v3.3h-3.3V137h-3.3v3.3H17
			V137H3.7v-3.3H7v-3.3h3.3V127H17v3.3h3.3V133.7z M30.4,130.3H27v3.3h3.3V130.3z M57,87h10v3.3h3.3v3.3h3.3V97H77h3.3v3.3H77v3.3
			h-6.7v3.3H67v-3.3h-3.3v-3.3h-3.3V97v-3.3h-6.7v-3.3H57V87z M83.7,127h-3.3v-3.3h3.3V127z"/>
		<path class="st7" d="M97,143.7v-3.3h-3.3V137h-3.3v-10v-13.3v-3.3H87v-6.7h3.3v-3.3h3.3V97H97v3.3h3.3v3.3h3.3v3.3h-3.3v23.3h3.3
			v3.3h3.3v3.3h-3.3v3.3h-3.3v3.3H97z M90.4,87v-6.7h3.3H97h3.3v10H97v3.3h-3.3v-3.3V87H90.4z"/>
	</g>
	<g class="st6">
	</g>
	<g class="st6">
		<path class="st7" d="M203.7,110.3h-3.3v23.3h3.3v3.3h-3.3v3.3H197v3.3h-3.3v-3.3h-3.3V137H187v-3.3h3.3v-10v-3.3v-10H187V107h-3.3
			v-3.3h3.3v-3.3h3.3V97h3.3v3.3h3.3v3.3h3.3v3.3h3.3V110.3z M220.4,110.3H217v23.3h3.3v3.3H217v3.3h-3.3v3.3h-3.3v-3.3H207v-6.7
			v-3.3v-10V117v-6.7V107h-3.3v-6.7h3.3V97h3.3v3.3h3.3v3.3h3.3v3.3h3.3V110.3z M237,110.3h-3.3v23.3h3.3v3.3h-3.3v3.3h-3.3v3.3H227
			v-3.3h-3.3v-6.7v-3.3V127v-13.3V107h-3.3v-3.3v-3.3h3.3V97h3.3v3.3h3.3v3.3h3.3v3.3h3.3V110.3z"/>
		<path class="st7" d="M250.4,143.7v-3.3H247V137h-3.3v-10v-13.3v-3.3h-3.3v-6.7h3.3v-3.3h3.3V97h3.3v3.3h3.3v3.3h3.3v3.3h-3.3v23.3
			h3.3v3.3h3.3v3.3H257v3.3h-3.3v3.3H250.4z M243.7,87v-6.7h3.3h3.3h3.3v10h-3.3v3.3H247v-3.3V87H243.7z"/>
		<path class="st7" d="M290.4,117v-3.3h3.3V107v-3.3h-3.3v-3.3h-6.7v10h-10V107v-3.3h3.3v-3.3h3.3V97h6.7h3.3h3.3h3.3v3.3h3.3v3.3
			h3.3v10h-3.3v3.3H297v3.3h-6.7v3.3H287v3.3h3.3v3.3h3.3v3.3h6.7v-3.3h3.3v6.7h-3.3v3.3h-16.7V137H277v3.3h-3.3v-6.7h3.3V127h3.3
			v-3.3h3.3v-3.3h3.3V117H290.4z M307,127v3.3h-3.3V127H307z"/>
		<path class="st7" d="M313.7,100.3h3.3V97h3.3h3.3h10v3.3h3.3v3.3h3.3v30H337v3.3h-3.3v3.3H317V137h-3.3v-3.3h-3.3v-20v-3.3v-6.7
			h3.3V100.3z M330.3,103.7H327v-3.3h-6.7v33.3h3.3v3.3h6.7v-26.7V103.7z"/>
		<path class="st7" d="M360.3,117v-3.3h3.3V107v-3.3h-3.3v-3.3h-6.7v10h-10V107v-3.3h3.3v-3.3h3.3V97h6.7h3.3h3.3h3.3v3.3h3.3v3.3
			h3.3v10h-3.3v3.3H367v3.3h-6.7v3.3H357v3.3h3.3v3.3h3.3v3.3h6.7v-3.3h3.3v6.7h-3.3v3.3h-16.7V137H347v3.3h-3.3v-6.7h3.3V127h3.3
			v-3.3h3.3v-3.3h3.3V117H360.3z M377,127v3.3h-3.3V127H377z"/>
		<path class="st7" d="M383.7,100.3h3.3V97h3.3h3.3h10v3.3h3.3v3.3h3.3v30H407v3.3h-3.3v3.3H387V137h-3.3v-3.3h-3.3v-20v-3.3v-6.7
			h3.3V100.3z M400.3,103.7H397v-3.3h-6.7v33.3h3.3v3.3h6.7v-26.7V103.7z"/>
	</g>
	<g>
		<g>
			<rect x="134.2" y="137" class="st7" width="6.7" height="3.3"/>
		</g>
		<g>
			<rect x="177.5" y="97" class="st7" width="3.3" height="3.3"/>
		</g>
		<g>
			<polygon class="st7" points="180.8,130.3 180.8,127 174.1,127 174.1,130.3 174.1,137 170.8,137 170.8,140.3 180.8,140.3 
				180.8,137 184.1,137 184.1,130.3 			"/>
		</g>
		<g>
			<path class="st7" d="M174.1,100.3V97h3.3v-6.7h-3.3V87h-3.3v3.3h-6.7v3.3h-3.3v-3.3h-10v3.3h3.3V97h3.3v3.3h3.3
				c0,1.1,0,2.2,0,3.3H154l0,0v-3.3h-3.3V97h-3.3v3.3l0,0v3.3h3.3v3.3h3.3v3.3h-3.3v3.3h-3.3v3.3h-3.3v3.3h-3.4v3.3h10v-3.3h3.4V117
				h3.3v-3.3h3.3c0,3.4,0,6.7,0,10h-2.3h-21v3.3h-3.3v3.3h-3.3v3.3v3.3h3.3v-3.3h6.7v-3.3h6.6V127h-6.6l0,0h20c0,2.3,0,4.5,0,6.7
				h3.3v3.3h6.7v-36.7H174.1z"/>
		</g>
		<g>
			<polygon class="st7" points="137.5,117 137.5,113.6 134.2,113.6 134.2,110.3 137.5,110.3 137.5,107 137.5,107 137.5,107 
				140.8,107 140.8,103.6 144.1,103.6 144.1,103.6 147.4,103.6 147.4,97 144.1,97 144.1,97 140.8,97 140.8,100.3 137.5,100.3 
				137.5,103.6 137.5,103.6 137.5,103.6 134.2,103.6 134.2,107 134.2,107 130.8,107 130.8,117 134.2,117 			"/>
		</g>
	</g>
</g>
</svg>
