<?xml version="1.0" encoding="utf-8"?>
<!-- Generator: Adobe Illustrator 24.0.1, SVG Export Plug-In . SVG Version: 6.00 Build 0)  -->
<svg version="1.1" id="Livello_1" xmlns="http://www.w3.org/2000/svg" xmlns:xlink="http://www.w3.org/1999/xlink" x="0px" y="0px"
	 viewBox="0 0 953 449" style="enable-background:new 0 0 953 449;" xml:space="preserve">
<style type="text/css">
	.st0{fill:#FFFFFF;}
</style>
<title>fondino-intro</title>
<g id="Livello_12">
	<polygon class="st0" points="847.5,85.6 847.5,64.2 105.9,64.2 105.9,85.6 	"/>
	<rect x="847.5" y="85.6" class="st0" width="21.2" height="21.4"/>
	<rect x="84.8" y="85.6" class="st0" width="21.2" height="21.4"/>
	<polygon class="st0" points="868.6,107 868.6,342.3 889.8,342.3 889.8,107 	"/>
	<polygon class="st0" points="84.8,107 63.6,107 63.6,342.3 84.8,342.3 	"/>
	<rect x="847.5" y="342.3" class="st0" width="21.2" height="21.4"/>
	<rect x="84.8" y="342.3" class="st0" width="21.2" height="21.4"/>
	<polygon class="st0" points="105.9,363.7 105.9,385.1 847.5,385.1 847.5,363.7 	"/>
	<path d="M932.2,85.6V42.8H911V21.4h-42.4V0H84.8v21.4H42.4v21.4H21.2v42.8H0l0,278.1h21.2v42.8h21.2v21.4h42.4v21.4h783.9v-21.4
		H911v-21.4h21.2v-42.8h21.2V85.6H932.2z M868.6,342.3v21.4h-21.2v21.4H105.9v-21.4H84.8v-21.4H63.6l0-235.4h21.2V85.6h21.2V64.2
		h741.5v21.4h21.2V107h21.2v235.4H868.6z"/>
	<polygon points="847.5,107 847.5,85.6 105.9,85.6 105.9,107 84.8,107 84.8,342.3 105.9,342.3 105.9,363.7 847.5,363.7 847.5,342.3 
		868.6,342.3 868.6,107 	"/>
</g>
</svg>
