<?xml version="1.0" encoding="utf-8"?>
<!-- Generator: Adobe Illustrator 24.0.3, SVG Export Plug-In . SVG Version: 6.00 Build 0)  -->
<svg version="1.1" id="Livello_1" xmlns="http://www.w3.org/2000/svg" xmlns:xlink="http://www.w3.org/1999/xlink" x="0px" y="0px"
	 viewBox="0 0 442.5 128.4" style="enable-background:new 0 0 442.5 128.4;" xml:space="preserve">
<style type="text/css">
	.st0{fill:#FFFFFF;}
	.st1{enable-background:new    ;}
</style>
<title>webcam</title>
<g>
	<polyline points="423.7,0 402.5,0 381.4,0 360.2,0 339,0 317.8,0 296.6,0 275.4,0 254.2,0 233.1,0 211.9,0 190.7,0 169.5,0 
		148.3,0 127.1,0 105.9,0 84.7,0 63.6,0 42.4,0 21.2,0 21.2,21.4 0,21.4 0,42.8 0,64.2 0,85.6 0,107 21.2,107 21.2,128.4 
		42.4,128.4 63.6,128.4 84.7,128.4 105.9,128.4 127.1,128.4 148.3,128.4 169.5,128.4 190.7,128.4 211.9,128.4 233.1,128.4 
		254.2,128.4 275.4,128.4 296.6,128.4 317.8,128.4 339,128.4 360.2,128.4 381.4,128.4 402.5,128.4 423.7,128.4 	"/>
	<polyline points="378.9,128.4 400.1,128.4 421.3,128.4 421.3,107 442.5,107 442.5,85.6 442.5,64.2 442.5,42.8 442.5,21.4 
		421.3,21.4 421.3,0 400.1,0 378.9,0 	"/>
</g>
<g>
	<g>
		<g>
			<path class="st0" d="M129.4,43.8c0.1,0.5,0.2,1,0.2,1.7s-0.1,1.2-0.2,1.7h-1.7c0.1,0.5,0.2,1,0.2,1.7s-0.1,1.2-0.2,1.7h-8.6
				c-0.1-0.5-0.2-1.1-0.2-1.7c0-0.7,0.1-1.3,0.2-1.7h-1.7c-0.1-0.5-0.2-1.1-0.2-1.7c0-0.7,0.1-1.3,0.2-1.7h-1.7
				c-0.1-0.5-0.2-1.1-0.2-1.7c0-0.7,0.1-1.3,0.2-1.7h1.7c-0.1-0.5-0.2-1.1-0.2-1.7c0-0.7,0.1-1.3,0.2-1.7h1.7
				c-0.1-0.5-0.2-1.1-0.2-1.7c0-0.7,0.1-1.3,0.2-1.7h8.6c0.1,0.5,0.2,1,0.2,1.7s-0.1,1.2-0.2,1.7h1.7c0.1,0.5,0.2,1,0.2,1.7
				s-0.1,1.2-0.2,1.7H126c-0.1-0.5-0.2-1.1-0.2-1.7c0-0.7,0.1-1.3,0.2-1.7h-5.2c0.1,0.5,0.2,1,0.2,1.7s-0.1,1.2-0.2,1.7h-1.7
				c0.1,0.5,0.2,1,0.2,1.7s-0.1,1.2-0.2,1.7h1.7c0.1,0.5,0.2,1,0.2,1.7s-0.1,1.2-0.2,1.7h5.2c-0.1-0.5-0.2-1.1-0.2-1.7
				c0-0.7,0.1-1.3,0.2-1.7H129.4z"/>
			<path class="st0" d="M113.9,57.1v-2.2h15.9v2.2H113.9z"/>
		</g>
		<g>
			<path class="st0" d="M143.7,48.9c0,0.7-0.1,1.2-0.2,1.7h-10.3c-0.1-0.5-0.2-1.1-0.2-1.7c0-0.7,0.1-1.3,0.2-1.7h3.4
				c-0.1-0.5-0.2-1.1-0.2-1.7c0-0.7,0.1-1.3,0.2-1.7c-0.1-0.5-0.2-1.1-0.2-1.7c0-0.7,0.1-1.3,0.2-1.7c-0.1-0.5-0.2-1.1-0.2-1.7
				c0-0.7,0.1-1.3,0.2-1.7c-0.1-0.5-0.2-1.1-0.2-1.7c0-0.7,0.1-1.3,0.2-1.7c-0.1-0.5-0.2-1.1-0.2-1.7c0-0.7,0.1-1.3,0.2-1.7H134
				c-0.1-0.5-0.2-1.1-0.2-1.7c0-0.7,0.1-1.3,0.2-1.7h6c0.1,0.5,0.2,1,0.2,1.7s-0.1,1.2-0.2,1.7c0.1,0.5,0.2,1,0.2,1.7
				s-0.1,1.2-0.2,1.7c0.1,0.5,0.2,1,0.2,1.7s-0.1,1.2-0.2,1.7c0.1,0.5,0.2,1,0.2,1.7s-0.1,1.2-0.2,1.7c0.1,0.5,0.2,1,0.2,1.7
				s-0.1,1.2-0.2,1.7c0.1,0.5,0.2,1,0.2,1.7s-0.1,1.2-0.2,1.7h3.4C143.7,47.7,143.7,48.2,143.7,48.9z"/>
			<path class="st0" d="M129.8,57.1v-2.2h15v2.2H129.8z"/>
		</g>
		<g>
			<path class="st0" d="M158.7,48.9c0,0.7-0.1,1.2-0.2,1.7h-10.3c-0.1-0.5-0.2-1.1-0.2-1.7c0-0.7,0.1-1.3,0.2-1.7h3.4
				c-0.1-0.5-0.2-1.1-0.2-1.7c0-0.7,0.1-1.3,0.2-1.7c-0.1-0.5-0.2-1.1-0.2-1.7c0-0.7,0.1-1.3,0.2-1.7c-0.1-0.5-0.2-1.1-0.2-1.7
				c0-0.7,0.1-1.3,0.2-1.7H149c-0.1-0.5-0.2-1.1-0.2-1.7c0-0.7,0.1-1.3,0.2-1.7h6c0.1,0.5,0.2,1,0.2,1.7s-0.1,1.2-0.2,1.7
				c0.1,0.5,0.2,1,0.2,1.7s-0.1,1.2-0.2,1.7c0.1,0.5,0.2,1,0.2,1.7s-0.1,1.2-0.2,1.7c0.1,0.5,0.2,1,0.2,1.7s-0.1,1.2-0.2,1.7h3.4
				C158.7,47.7,158.7,48.2,158.7,48.9z M151.7,30c-0.1-0.5-0.2-1.1-0.2-1.7c0-0.7,0.1-1.3,0.2-1.7h3.4c0.1,0.5,0.2,1,0.2,1.7
				s-0.1,1.2-0.2,1.7H151.7z"/>
			<path class="st0" d="M144.8,57.1v-2.2h15.1v2.2H144.8z"/>
		</g>
		<g>
			<path class="st0" d="M175.3,43.8c0.1,0.5,0.2,1,0.2,1.7s-0.1,1.2-0.2,1.7h-1.7c0.1,0.5,0.2,1,0.2,1.7s-0.1,1.2-0.2,1.7H165
				c-0.1-0.5-0.2-1.1-0.2-1.7c0-0.7,0.1-1.3,0.2-1.7h-1.7c-0.1-0.5-0.2-1.1-0.2-1.7c0-0.7,0.1-1.3,0.2-1.7h-1.7
				c-0.1-0.5-0.2-1.1-0.2-1.7c0-0.7,0.1-1.3,0.2-1.7h1.7c-0.1-0.5-0.2-1.1-0.2-1.7c0-0.7,0.1-1.3,0.2-1.7h1.7
				c-0.1-0.5-0.2-1.1-0.2-1.7c0-0.7,0.1-1.3,0.2-1.7h8.6c0.1,0.5,0.2,1,0.2,1.7s-0.1,1.2-0.2,1.7h1.7c0.1,0.5,0.2,1,0.2,1.7
				s-0.1,1.2-0.2,1.7h-3.4c-0.1-0.5-0.2-1.1-0.2-1.7c0-0.7,0.1-1.3,0.2-1.7h-5.2c0.1,0.5,0.2,1,0.2,1.7s-0.1,1.2-0.2,1.7H165
				c0.1,0.5,0.2,1,0.2,1.7s-0.1,1.2-0.2,1.7h1.7c0.1,0.5,0.2,1,0.2,1.7s-0.1,1.2-0.2,1.7h5.2c-0.1-0.5-0.2-1.1-0.2-1.7
				c0-0.7,0.1-1.3,0.2-1.7H175.3z"/>
			<path class="st0" d="M159.9,57.1v-2.2h17.8v2.2H159.9z"/>
		</g>
		<g>
			<path class="st0" d="M193.4,48.9c0,0.7-0.1,1.2-0.2,1.7h-6c-0.1-0.5-0.2-1.1-0.2-1.7c0-0.7,0.1-1.3,0.2-1.7h-1.7
				c-0.1-0.5-0.2-1.1-0.2-1.7c0-0.7,0.1-1.3,0.2-1.7h-2.6c0.1,0.5,0.2,1,0.2,1.7s-0.1,1.2-0.2,1.7c0.1,0.5,0.2,1,0.2,1.7
				s-0.1,1.2-0.2,1.7h-3.4c-0.1-0.5-0.2-1.1-0.2-1.7c0-0.7,0.1-1.3,0.2-1.7c-0.1-0.5-0.2-1.1-0.2-1.7c0-0.7,0.1-1.3,0.2-1.7
				c-0.1-0.5-0.2-1.1-0.2-1.7c0-0.7,0.1-1.3,0.2-1.7c-0.1-0.5-0.2-1.1-0.2-1.7c0-0.7,0.1-1.3,0.2-1.7c-0.1-0.5-0.2-1.1-0.2-1.7
				c0-0.7,0.1-1.3,0.2-1.7c-0.1-0.5-0.2-1.1-0.2-1.7c0-0.7,0.1-1.3,0.2-1.7c-0.1-0.5-0.2-1.1-0.2-1.7c0-0.7,0.1-1.3,0.2-1.7h3.4
				c0.1,0.5,0.2,1,0.2,1.7s-0.1,1.2-0.2,1.7c0.1,0.5,0.2,1,0.2,1.7s-0.1,1.2-0.2,1.7c0.1,0.5,0.2,1,0.2,1.7s-0.1,1.2-0.2,1.7
				c0.1,0.5,0.2,1,0.2,1.7s-0.1,1.2-0.2,1.7h2.6c-0.1-0.5-0.2-1.1-0.2-1.7c0-0.7,0.1-1.3,0.2-1.7h1.7c-0.1-0.5-0.2-1.1-0.2-1.7
				c0-0.7,0.1-1.3,0.2-1.7h5.2c0.1,0.5,0.2,1,0.2,1.7s-0.1,1.2-0.2,1.7H189c0.1,0.5,0.2,1,0.2,1.7s-0.1,1.2-0.2,1.7h-1.7
				c0.1,0.5,0.2,1,0.2,1.7s-0.1,1.2-0.2,1.7h1.7c0.1,0.5,0.2,1,0.2,1.7s-0.1,1.2-0.2,1.7h4.3C193.3,47.7,193.4,48.2,193.4,48.9z"/>
			<path class="st0" d="M177.7,57.1v-2.2h34.4v2.2H177.7z"/>
		</g>
		<g>
			<path class="st0" d="M217.3,36.9h1.3c0.1,0.5,0.2,1,0.2,1.7s-0.1,1.2-0.2,1.7h-1.3c0.1,0.5,0.2,1,0.2,1.7s-0.1,1.2-0.2,1.7
				c0.1,0.5,0.2,1,0.2,1.7s-0.1,1.2-0.2,1.7c0.1,0.5,0.2,1,0.2,1.7s-0.1,1.2-0.2,1.7h-3.4c-0.1-0.5-0.2-1.1-0.2-1.7
				c0-0.7,0.1-1.3,0.2-1.7c-0.1-0.5-0.2-1.1-0.2-1.7c0-0.7,0.1-1.3,0.2-1.7c-0.1-0.5-0.2-1.1-0.2-1.7c0-0.7,0.1-1.3,0.2-1.7
				c-0.1-0.5-0.2-1.1-0.2-1.7c0-0.7,0.1-1.3,0.2-1.7c-0.1-0.5-0.2-1.1-0.2-1.7c0-0.7,0.1-1.3,0.2-1.7c-0.1-0.5-0.2-1.1-0.2-1.7
				c0-0.7,0.1-1.3,0.2-1.7c-0.1-0.5-0.2-1.1-0.2-1.7c0-0.7,0.1-1.3,0.2-1.7h3.4c0.1,0.5,0.2,1,0.2,1.7s-0.1,1.2-0.2,1.7
				c0.1,0.5,0.2,1,0.2,1.7s-0.1,1.2-0.2,1.7c0.1,0.5,0.2,1,0.2,1.7C217.5,35.8,217.4,36.4,217.3,36.9z M227.8,42.1
				c0,0.7-0.1,1.2-0.2,1.7c0.1,0.5,0.2,1,0.2,1.7s-0.1,1.2-0.2,1.7c0.1,0.5,0.2,1,0.2,1.7s-0.1,1.2-0.2,1.7h-3.4
				c-0.1-0.5-0.2-1.1-0.2-1.7c0-0.7,0.1-1.3,0.2-1.7c-0.1-0.5-0.2-1.1-0.2-1.7c0-0.7,0.1-1.3,0.2-1.7c-0.1-0.5-0.2-1.1-0.2-1.7
				c0-0.7,0.1-1.3,0.2-1.7c-0.1-0.5-0.2-1.1-0.2-1.7c0-0.7,0.1-1.3,0.2-1.7h-5.6c-0.1-0.5-0.2-1.1-0.2-1.7c0-0.7,0.1-1.3,0.2-1.7
				h6.9c0.1,0.5,0.2,1,0.2,1.7s-0.1,1.2-0.2,1.7h2.1c0.1,0.5,0.2,1,0.2,1.7s-0.1,1.2-0.2,1.7C227.7,40.8,227.8,41.4,227.8,42.1z"/>
			<path class="st0" d="M212.1,57.1v-2.2h17.4v2.2H212.1z"/>
		</g>
		<g>
			<path class="st0" d="M245.1,40.3c0.1,0.5,0.2,1,0.2,1.7s-0.1,1.2-0.2,1.7h-9c0.1,0.5,0.2,1,0.2,1.7s-0.1,1.2-0.2,1.7h7.3
				c0.1,0.5,0.2,1,0.2,1.7s-0.1,1.2-0.2,1.7h-8.6c-0.1-0.5-0.2-1.1-0.2-1.7c0-0.7,0.1-1.3,0.2-1.7h-2.2c-0.1-0.5-0.2-1.1-0.2-1.7
				c0-0.7,0.1-1.3,0.2-1.7h-1.3c-0.1-0.5-0.2-1.1-0.2-1.7c0-0.7,0.1-1.3,0.2-1.7h1.3c-0.1-0.5-0.2-1.1-0.2-1.7
				c0-0.7,0.1-1.3,0.2-1.7h2.2c-0.1-0.5-0.2-1.1-0.2-1.7c0-0.7,0.1-1.3,0.2-1.7h8.6c0.1,0.5,0.2,1,0.2,1.7s-0.1,1.2-0.2,1.7h1.7
				c0.1,0.5,0.2,1,0.2,1.7C245.2,39.3,245.2,39.8,245.1,40.3z M241.4,38.6c0-0.7,0.1-1.3,0.2-1.7H236c0.1,0.5,0.2,1,0.2,1.7
				s-0.1,1.2-0.2,1.7h5.6C241.5,39.8,241.4,39.3,241.4,38.6z"/>
			<path class="st0" d="M229.6,57.1v-2.2h17v2.2H229.6z"/>
		</g>
		<g>
			<path class="st0" d="M262.2,38.6c0,0.7-0.1,1.2-0.2,1.7h-3.4c-0.1-0.5-0.2-1.1-0.2-1.7c0-0.7,0.1-1.3,0.2-1.7h-3
				c0.1,0.5,0.2,1,0.2,1.7s-0.1,1.2-0.2,1.7h-1.3c0.1,0.5,0.2,1,0.2,1.7s-0.1,1.2-0.2,1.7c0.1,0.5,0.2,1,0.2,1.7s-0.1,1.2-0.2,1.7
				h2.6c0.1,0.5,0.2,1,0.2,1.7s-0.1,1.2-0.2,1.7h-8.6c-0.1-0.5-0.2-1.1-0.2-1.7c0-0.7,0.1-1.3,0.2-1.7h2.6c-0.1-0.5-0.2-1.1-0.2-1.7
				c0-0.7,0.1-1.3,0.2-1.7c-0.1-0.5-0.2-1.1-0.2-1.7c0-0.7,0.1-1.3,0.2-1.7c-0.1-0.5-0.2-1.1-0.2-1.7c0-0.7,0.1-1.3,0.2-1.7h-2.6
				c-0.1-0.5-0.2-1.1-0.2-1.7c0-0.7,0.1-1.3,0.2-1.7h4.3c0.1,0.5,0.2,1,0.2,1.7s-0.1,1.2-0.2,1.7h1.7c-0.1-0.5-0.2-1.1-0.2-1.7
				c0-0.7,0.1-1.3,0.2-1.7h6.5c0.1,0.5,0.2,1,0.2,1.7s-0.1,1.2-0.2,1.7h1.3C262.1,37.4,262.2,37.9,262.2,38.6z"/>
			<path class="st0" d="M246.5,57.1v-2.2h16.8v2.2H246.5z"/>
		</g>
		<g>
			<path class="st0" d="M278.8,40.3c0.1,0.5,0.2,1,0.2,1.7s-0.1,1.2-0.2,1.7h-9c0.1,0.5,0.2,1,0.2,1.7s-0.1,1.2-0.2,1.7h7.3
				c0.1,0.5,0.2,1,0.2,1.7s-0.1,1.2-0.2,1.7h-8.6c-0.1-0.5-0.2-1.1-0.2-1.7c0-0.7,0.1-1.3,0.2-1.7h-2.1c-0.1-0.5-0.2-1.1-0.2-1.7
				c0-0.7,0.1-1.3,0.2-1.7h-1.3c-0.1-0.5-0.2-1.1-0.2-1.7c0-0.7,0.1-1.3,0.2-1.7h1.3c-0.1-0.5-0.2-1.1-0.2-1.7
				c0-0.7,0.1-1.3,0.2-1.7h2.1c-0.1-0.5-0.2-1.1-0.2-1.7c0-0.7,0.1-1.3,0.2-1.7h8.6c0.1,0.5,0.2,1,0.2,1.7s-0.1,1.2-0.2,1.7h1.7
				c0.1,0.5,0.2,1,0.2,1.7C279,39.3,278.9,39.8,278.8,40.3z M275.2,38.6c0-0.7,0.1-1.3,0.2-1.7h-5.6c0.1,0.5,0.2,1,0.2,1.7
				s-0.1,1.2-0.2,1.7h5.6C275.2,39.8,275.2,39.3,275.2,38.6z"/>
			<path class="st0" d="M263.3,57.1v-2.2h34.4v2.2H263.3z"/>
		</g>
		<g>
			<path class="st0" d="M311.5,47.2c0.1,0.5,0.2,1,0.2,1.7s-0.1,1.2-0.2,1.7h-6.9c-0.1-0.5-0.2-1.1-0.2-1.7c0-0.7,0.1-1.3,0.2-1.7
				h-1.7c-0.1-0.5-0.2-1.1-0.2-1.7c0-0.7,0.1-1.3,0.2-1.7c-0.1-0.5-0.2-1.1-0.2-1.7c0-0.7,0.1-1.3,0.2-1.7c-0.1-0.5-0.2-1.1-0.2-1.7
				c0-0.7,0.1-1.3,0.2-1.7h-3.5c-0.1-0.5-0.2-1.1-0.2-1.7c0-0.7,0.1-1.3,0.2-1.7h3.4c-0.1-0.5-0.2-1.1-0.2-1.7
				c0-0.7,0.1-1.3,0.2-1.7c-0.1-0.5-0.2-1.1-0.2-1.7c0-0.7,0.1-1.3,0.2-1.7h3.4c0.1,0.5,0.2,1,0.2,1.7s-0.1,1.2-0.2,1.7
				c0.1,0.5,0.2,1,0.2,1.7s-0.1,1.2-0.2,1.7h5.2c0.1,0.5,0.2,1,0.2,1.7s-0.1,1.2-0.2,1.7h-5.2c0.1,0.5,0.2,1,0.2,1.7
				s-0.1,1.2-0.2,1.7c0.1,0.5,0.2,1,0.2,1.7s-0.1,1.2-0.2,1.7c0.1,0.5,0.2,1,0.2,1.7s-0.1,1.2-0.2,1.7H311.5z"/>
			<path class="st0" d="M297.7,57.1v-2.2h15.2v2.2H297.7z"/>
		</g>
		<g>
			<path class="st0" d="M328.4,43.8h-1.3c0.1,0.5,0.2,1,0.2,1.7s-0.1,1.2-0.2,1.7H325c0.1,0.5,0.2,1,0.2,1.7s-0.1,1.2-0.2,1.7h-6.9
				c-0.1-0.5-0.2-1.1-0.2-1.7c0-0.7,0.1-1.3,0.2-1.7h-2.2c-0.1-0.5-0.2-1.1-0.2-1.7c0-0.7,0.1-1.3,0.2-1.7h-1.3
				c-0.1-0.5-0.2-1.1-0.2-1.7c0-0.7,0.1-1.3,0.2-1.7h1.3c-0.1-0.5-0.2-1.1-0.2-1.7c0-0.7,0.1-1.3,0.2-1.7h2.2
				c-0.1-0.5-0.2-1.1-0.2-1.7c0-0.7,0.1-1.3,0.2-1.7h6.9c0.1,0.5,0.2,1,0.2,1.7s-0.1,1.2-0.2,1.7h2.1c0.1,0.5,0.2,1,0.2,1.7
				s-0.1,1.2-0.2,1.7h1.3c0.1,0.5,0.2,1,0.2,1.7C328.6,42.7,328.5,43.3,328.4,43.8z M324.9,43.8c-0.1-0.5-0.2-1.1-0.2-1.7
				c0-0.7,0.1-1.3,0.2-1.7h-1.3c-0.1-0.5-0.2-1.1-0.2-1.7c0-0.7,0.1-1.3,0.2-1.7h-4.3c0.1,0.5,0.2,1,0.2,1.7s-0.1,1.2-0.2,1.7H318
				c0.1,0.5,0.2,1,0.2,1.7s-0.1,1.2-0.2,1.7h1.3c0.1,0.5,0.2,1,0.2,1.7s-0.1,1.2-0.2,1.7h4.3c-0.1-0.5-0.2-1.1-0.2-1.7
				c0-0.7,0.1-1.3,0.2-1.7H324.9z"/>
			<path class="st0" d="M312.9,57.1v-2.2h15.7v2.2H312.9z"/>
		</g>
	</g>
	<g>
		<g>
			<path class="st0" d="M93.7,91.7h-1.7c0.1,0.5,0.2,1,0.2,1.7s-0.1,1.2-0.2,1.7h-9.5c-0.1-0.5-0.2-1.1-0.2-1.7
				c0-0.7,0.1-1.3,0.2-1.7h7.7c-0.1-0.5-0.2-1.1-0.2-1.7c0-0.7,0.1-1.3,0.2-1.7h-6.9c-0.1-0.5-0.2-1.1-0.2-1.7
				c0-0.7,0.1-1.3,0.2-1.7h-1.7c-0.1-0.5-0.2-1.1-0.2-1.7c0-0.7,0.1-1.3,0.2-1.7h1.7C83.2,81,83,80.4,83,79.8c0-0.7,0.1-1.3,0.2-1.7
				h9.5c0.1,0.5,0.2,1,0.2,1.7c0,0.7-0.1,1.2-0.2,1.7H85c0.1,0.5,0.2,1,0.2,1.7c0,0.7-0.1,1.2-0.2,1.7h6.9c0.1,0.5,0.2,1,0.2,1.7
				s-0.1,1.2-0.2,1.7h1.7c0.1,0.5,0.2,1,0.2,1.7S93.8,91.2,93.7,91.7z"/>
			<path class="st0" d="M79,101.6v-2.2h16.5v2.2H79z"/>
		</g>
		<g>
			<path class="st0" d="M111.2,93.4c0,0.7-0.1,1.2-0.2,1.7h-3.4c-0.1-0.5-0.2-1.1-0.2-1.7c0-0.7,0.1-1.3,0.2-1.7h-1.7
				c-0.1-0.5-0.2-1.1-0.2-1.7c0-0.7,0.1-1.3,0.2-1.7h-5.2c0.1,0.5,0.2,1,0.2,1.7s-0.1,1.2-0.2,1.7h5.2c0.1,0.5,0.2,1,0.2,1.7
				s-0.1,1.2-0.2,1.7h-6.9c-0.1-0.5-0.2-1.1-0.2-1.7c0-0.7,0.1-1.3,0.2-1.7h-1.7C97.1,91.2,97,90.6,97,90c0-0.7,0.1-1.3,0.2-1.7h1.7
				c-0.1-0.5-0.2-1.1-0.2-1.7c0-0.7,0.1-1.3,0.2-1.7h6.9c-0.1-0.5-0.2-1.1-0.2-1.7c0-0.7,0.1-1.3,0.2-1.7h-6
				c-0.1-0.5-0.2-1.1-0.2-1.7c0-0.7,0.1-1.3,0.2-1.7h7.7c0.1,0.5,0.2,1,0.2,1.7c0,0.7-0.1,1.2-0.2,1.7h1.7c0.1,0.5,0.2,1,0.2,1.7
				c0,0.7-0.1,1.2-0.2,1.7c0.1,0.5,0.2,1,0.2,1.7s-0.1,1.2-0.2,1.7c0.1,0.5,0.2,1,0.2,1.7s-0.1,1.2-0.2,1.7h1.7
				C111.2,92.2,111.2,92.7,111.2,93.4z"/>
			<path class="st0" d="M95.5,101.6v-2.2h16.1v2.2H95.5z"/>
		</g>
		<g>
			<path class="st0" d="M127.2,81.4h-1.3c0.1,0.5,0.2,1,0.2,1.7c0,0.7-0.1,1.2-0.2,1.7h-1.3c0.1,0.5,0.2,1,0.2,1.7s-0.1,1.2-0.2,1.7
				h-0.9c0.1,0.5,0.2,1,0.2,1.7s-0.1,1.2-0.2,1.7H122c0.1,0.5,0.2,1,0.2,1.7s-0.1,1.2-0.2,1.7h-3.4c-0.1-0.5-0.2-1.1-0.2-1.7
				c0-0.7,0.1-1.3,0.2-1.7h-1.7c-0.1-0.5-0.2-1.1-0.2-1.7c0-0.7,0.1-1.3,0.2-1.7H116c-0.1-0.5-0.2-1.1-0.2-1.7
				c0-0.7,0.1-1.3,0.2-1.7h-1.3c-0.1-0.5-0.2-1.1-0.2-1.7c0-0.7,0.1-1.3,0.2-1.7h-1.3c-0.1-0.5-0.2-1.1-0.2-1.7
				c0-0.7,0.1-1.3,0.2-1.7h3.4c0.1,0.5,0.2,1,0.2,1.7c0,0.7-0.1,1.2-0.2,1.7h1.3c0.1,0.5,0.2,1,0.2,1.7c0,0.7-0.1,1.2-0.2,1.7h1.3
				c0.1,0.5,0.2,1,0.2,1.7s-0.1,1.2-0.2,1.7h1.7c-0.1-0.5-0.2-1.1-0.2-1.7c0-0.7,0.1-1.3,0.2-1.7h1.3c-0.1-0.5-0.2-1.1-0.2-1.7
				c0-0.7,0.1-1.3,0.2-1.7h1.3c-0.1-0.5-0.2-1.1-0.2-1.7c0-0.7,0.1-1.3,0.2-1.7h3.4c0.1,0.5,0.2,1,0.2,1.7
				C127.4,80.3,127.3,80.9,127.2,81.4z"/>
			<path class="st0" d="M111.7,101.6v-2.2h16.3v2.2H111.7z"/>
		</g>
		<g>
			<path class="st0" d="M143.4,84.8c0.1,0.5,0.2,1,0.2,1.7s-0.1,1.2-0.2,1.7h-9c0.1,0.5,0.2,1,0.2,1.7s-0.1,1.2-0.2,1.7h7.3
				c0.1,0.5,0.2,1,0.2,1.7s-0.1,1.2-0.2,1.7H133c-0.1-0.5-0.2-1.1-0.2-1.7c0-0.7,0.1-1.3,0.2-1.7h-2.2c-0.1-0.5-0.2-1.1-0.2-1.7
				c0-0.7,0.1-1.3,0.2-1.7h-1.3c-0.1-0.5-0.2-1.1-0.2-1.7c0-0.7,0.1-1.3,0.2-1.7h1.3c-0.1-0.5-0.2-1.1-0.2-1.7
				c0-0.7,0.1-1.3,0.2-1.7h2.2c-0.1-0.5-0.2-1.1-0.2-1.7c0-0.7,0.1-1.3,0.2-1.7h8.6c0.1,0.5,0.2,1,0.2,1.7c0,0.7-0.1,1.2-0.2,1.7
				h1.7c0.1,0.5,0.2,1,0.2,1.7C143.5,83.8,143.5,84.3,143.4,84.8z M139.8,83.1c0-0.7,0.1-1.3,0.2-1.7h-5.6c0.1,0.5,0.2,1,0.2,1.7
				c0,0.7-0.1,1.2-0.2,1.7h5.6C139.9,84.3,139.8,83.8,139.8,83.1z"/>
			<path class="st0" d="M127.9,101.6v-2.2h34.4v2.2H127.9z"/>
		</g>
		<g>
			<path class="st0" d="M177.8,81.4h-1.3c0.1,0.5,0.2,1,0.2,1.7c0,0.7-0.1,1.2-0.2,1.7h-1.3c0.1,0.5,0.2,1,0.2,1.7s-0.1,1.2-0.2,1.7
				h-0.9c0.1,0.5,0.2,1,0.2,1.7s-0.1,1.2-0.2,1.7H173c0.1,0.5,0.2,1,0.2,1.7s-0.1,1.2-0.2,1.7h-0.9c0.1,0.5,0.2,1,0.2,1.7
				s-0.1,1.2-0.2,1.7h-1.7c0.1,0.5,0.2,1,0.2,1.7s-0.1,1.2-0.2,1.7h-5.2c-0.1-0.5-0.2-1.1-0.2-1.7c0-0.7,0.1-1.3,0.2-1.7h3.4
				c-0.1-0.5-0.2-1.1-0.2-1.7c0-0.7,0.1-1.3,0.2-1.7c-0.1-0.5-0.2-1.1-0.2-1.7c0-0.7,0.1-1.3,0.2-1.7h-1.7c-0.1-0.5-0.2-1.1-0.2-1.7
				c0-0.7,0.1-1.3,0.2-1.7h-0.7c-0.1-0.5-0.2-1.1-0.2-1.7c0-0.7,0.1-1.3,0.2-1.7h-1.3c-0.1-0.5-0.2-1.1-0.2-1.7
				c0-0.7,0.1-1.3,0.2-1.7h-1.3c-0.1-0.5-0.2-1.1-0.2-1.7c0-0.7,0.1-1.3,0.2-1.7h3.4c0.1,0.5,0.2,1,0.2,1.7c0,0.7-0.1,1.2-0.2,1.7
				h1.3c0.1,0.5,0.2,1,0.2,1.7c0,0.7-0.1,1.2-0.2,1.7h1.3c0.1,0.5,0.2,1,0.2,1.7s-0.1,1.2-0.2,1.7c0.1,0.5,0.2,1,0.2,1.7
				s-0.1,1.2-0.2,1.7h1.3c-0.1-0.5-0.2-1.1-0.2-1.7c0-0.7,0.1-1.3,0.2-1.7h0.9c-0.1-0.5-0.2-1.1-0.2-1.7c0-0.7,0.1-1.3,0.2-1.7h1.3
				c-0.1-0.5-0.2-1.1-0.2-1.7c0-0.7,0.1-1.3,0.2-1.7h1.3c-0.1-0.5-0.2-1.1-0.2-1.7c0-0.7,0.1-1.3,0.2-1.7h3.4c0.1,0.5,0.2,1,0.2,1.7
				C177.9,80.3,177.9,80.9,177.8,81.4z"/>
			<path class="st0" d="M162.4,101.6v-2.2h16.3v2.2H162.4z"/>
		</g>
		<g>
			<path class="st0" d="M194,88.3h-1.3c0.1,0.5,0.2,1,0.2,1.7s-0.1,1.2-0.2,1.7h-2.1c0.1,0.5,0.2,1,0.2,1.7s-0.1,1.2-0.2,1.7h-6.9
				c-0.1-0.5-0.2-1.1-0.2-1.7c0-0.7,0.1-1.3,0.2-1.7h-2.1c-0.1-0.5-0.2-1.1-0.2-1.7c0-0.7,0.1-1.3,0.2-1.7h-1.3
				c-0.1-0.5-0.2-1.1-0.2-1.7c0-0.7,0.1-1.3,0.2-1.7h1.3c-0.1-0.5-0.2-1.1-0.2-1.7c0-0.7,0.1-1.3,0.2-1.7h2.1
				c-0.1-0.5-0.2-1.1-0.2-1.7c0-0.7,0.1-1.3,0.2-1.7h6.9c0.1,0.5,0.2,1,0.2,1.7c0,0.7-0.1,1.2-0.2,1.7h2.1c0.1,0.5,0.2,1,0.2,1.7
				c0,0.7-0.1,1.2-0.2,1.7h1.3c0.1,0.5,0.2,1,0.2,1.7C194.2,87.2,194.1,87.8,194,88.3z M190.6,88.3c-0.1-0.5-0.2-1.1-0.2-1.7
				c0-0.7,0.1-1.3,0.2-1.7h-1.3c-0.1-0.5-0.2-1.1-0.2-1.7c0-0.7,0.1-1.3,0.2-1.7h-4.3c0.1,0.5,0.2,1,0.2,1.7c0,0.7-0.1,1.2-0.2,1.7
				h-1.3c0.1,0.5,0.2,1,0.2,1.7s-0.1,1.2-0.2,1.7h1.3c0.1,0.5,0.2,1,0.2,1.7s-0.1,1.2-0.2,1.7h4.3c-0.1-0.5-0.2-1.1-0.2-1.7
				c0-0.7,0.1-1.3,0.2-1.7H190.6z"/>
			<path class="st0" d="M178.5,101.6v-2.2h17.3v2.2H178.5z"/>
		</g>
		<g>
			<path class="st0" d="M202.4,91.7h4.3c0.1,0.5,0.2,1,0.2,1.7s-0.1,1.2-0.2,1.7h-6.9c-0.1-0.5-0.2-1.1-0.2-1.7
				c0-0.7,0.1-1.3,0.2-1.7h-2.2c-0.1-0.5-0.2-1.1-0.2-1.7c0-0.7,0.1-1.3,0.2-1.7c-0.1-0.5-0.2-1.1-0.2-1.7c0-0.7,0.1-1.3,0.2-1.7
				c-0.1-0.5-0.2-1.1-0.2-1.7c0-0.7,0.1-1.3,0.2-1.7c-0.1-0.5-0.2-1.1-0.2-1.7c0-0.7,0.1-1.3,0.2-1.7h3.4c0.1,0.5,0.2,1,0.2,1.7
				c0,0.7-0.1,1.2-0.2,1.7c0.1,0.5,0.2,1,0.2,1.7c0,0.7-0.1,1.2-0.2,1.7c0.1,0.5,0.2,1,0.2,1.7s-0.1,1.2-0.2,1.7h1.3
				c0.1,0.5,0.2,1,0.2,1.7C202.5,90.7,202.4,91.2,202.4,91.7z M211.5,83.1c0,0.7-0.1,1.2-0.2,1.7c0.1,0.5,0.2,1,0.2,1.7
				s-0.1,1.2-0.2,1.7c0.1,0.5,0.2,1,0.2,1.7s-0.1,1.2-0.2,1.7c0.1,0.5,0.2,1,0.2,1.7s-0.1,1.2-0.2,1.7h-3.4
				c-0.1-0.5-0.2-1.1-0.2-1.7c0-0.7,0.1-1.3,0.2-1.7h-1.3c-0.1-0.5-0.2-1.1-0.2-1.7c0-0.7,0.1-1.3,0.2-1.7h1.3
				c-0.1-0.5-0.2-1.1-0.2-1.7c0-0.7,0.1-1.3,0.2-1.7c-0.1-0.5-0.2-1.1-0.2-1.7c0-0.7,0.1-1.3,0.2-1.7c-0.1-0.5-0.2-1.1-0.2-1.7
				c0-0.7,0.1-1.3,0.2-1.7h3.4c0.1,0.5,0.2,1,0.2,1.7c0,0.7-0.1,1.2-0.2,1.7C211.5,81.9,211.5,82.4,211.5,83.1z"/>
			<path class="st0" d="M195.9,101.6v-2.2h17.6v2.2H195.9z"/>
		</g>
		<g>
			<path class="st0" d="M229.2,83.1c0,0.7-0.1,1.2-0.2,1.7h-3.4c-0.1-0.5-0.2-1.1-0.2-1.7c0-0.7,0.1-1.3,0.2-1.7h-3
				c0.1,0.5,0.2,1,0.2,1.7c0,0.7-0.1,1.2-0.2,1.7h-1.3c0.1,0.5,0.2,1,0.2,1.7s-0.1,1.2-0.2,1.7c0.1,0.5,0.2,1,0.2,1.7
				s-0.1,1.2-0.2,1.7h2.6c0.1,0.5,0.2,1,0.2,1.7s-0.1,1.2-0.2,1.7h-8.6c-0.1-0.5-0.2-1.1-0.2-1.7c0-0.7,0.1-1.3,0.2-1.7h2.6
				c-0.1-0.5-0.2-1.1-0.2-1.7c0-0.7,0.1-1.3,0.2-1.7c-0.1-0.5-0.2-1.1-0.2-1.7c0-0.7,0.1-1.3,0.2-1.7c-0.1-0.5-0.2-1.1-0.2-1.7
				c0-0.7,0.1-1.3,0.2-1.7h-2.6c-0.1-0.5-0.2-1.1-0.2-1.7c0-0.7,0.1-1.3,0.2-1.7h4.3c0.1,0.5,0.2,1,0.2,1.7c0,0.7-0.1,1.2-0.2,1.7
				h1.7c-0.1-0.5-0.2-1.1-0.2-1.7c0-0.7,0.1-1.3,0.2-1.7h6.5c0.1,0.5,0.2,1,0.2,1.7c0,0.7-0.1,1.2-0.2,1.7h1.3
				C229.1,81.9,229.2,82.4,229.2,83.1z"/>
			<path class="st0" d="M213.5,101.6v-2.2h34.4v2.2H213.5z"/>
		</g>
		<g>
			<path class="st0" d="M263.4,81.4c0.1,0.5,0.2,1,0.2,1.7c0,0.7-0.1,1.2-0.2,1.7h-1.3c0.1,0.5,0.2,1,0.2,1.7s-0.1,1.2-0.2,1.7
				c0.1,0.5,0.2,1,0.2,1.7s-0.1,1.2-0.2,1.7h-0.9c0.1,0.5,0.2,1,0.2,1.7s-0.1,1.2-0.2,1.7h-2.6c-0.1-0.5-0.2-1.1-0.2-1.7
				c0-0.7,0.1-1.3,0.2-1.7h-0.9c-0.1-0.5-0.2-1.1-0.2-1.7c0-0.7,0.1-1.3,0.2-1.7h-2.6c0.1,0.5,0.2,1,0.2,1.7s-0.1,1.2-0.2,1.7h-0.9
				c0.1,0.5,0.2,1,0.2,1.7s-0.1,1.2-0.2,1.7h-2.6c-0.1-0.5-0.2-1.1-0.2-1.7c0-0.7,0.1-1.3,0.2-1.7h-0.9c-0.1-0.5-0.2-1.1-0.2-1.7
				c0-0.7,0.1-1.3,0.2-1.7c-0.1-0.5-0.2-1.1-0.2-1.7c0-0.7,0.1-1.3,0.2-1.7h-1.3c-0.1-0.5-0.2-1.1-0.2-1.7c0-0.7,0.1-1.3,0.2-1.7
				c-0.1-0.5-0.2-1.1-0.2-1.7c0-0.7,0.1-1.3,0.2-1.7h3.4c0.1,0.5,0.2,1,0.2,1.7c0,0.7-0.1,1.2-0.2,1.7c0.1,0.5,0.2,1,0.2,1.7
				c0,0.7-0.1,1.2-0.2,1.7c0.1,0.5,0.2,1,0.2,1.7s-0.1,1.2-0.2,1.7h1.3c-0.1-0.5-0.2-1.1-0.2-1.7c0-0.7,0.1-1.3,0.2-1.7h0.9
				c-0.1-0.5-0.2-1.1-0.2-1.7c0-0.7,0.1-1.3,0.2-1.7c-0.1-0.5-0.2-1.1-0.2-1.7c0-0.7,0.1-1.3,0.2-1.7h2.6c0.1,0.5,0.2,1,0.2,1.7
				c0,0.7-0.1,1.2-0.2,1.7c0.1,0.5,0.2,1,0.2,1.7c0,0.7-0.1,1.2-0.2,1.7h0.9c0.1,0.5,0.2,1,0.2,1.7s-0.1,1.2-0.2,1.7h1.3
				c-0.1-0.5-0.2-1.1-0.2-1.7c0-0.7,0.1-1.3,0.2-1.7c-0.1-0.5-0.2-1.1-0.2-1.7c0-0.7,0.1-1.3,0.2-1.7c-0.1-0.5-0.2-1.1-0.2-1.7
				c0-0.7,0.1-1.3,0.2-1.7h3.4c0.1,0.5,0.2,1,0.2,1.7C263.6,80.3,263.5,80.9,263.4,81.4z"/>
			<path class="st0" d="M247.9,101.6v-2.2h15.9v2.2H247.9z"/>
		</g>
		<g>
			<path class="st0" d="M277.8,93.4c0,0.7-0.1,1.2-0.2,1.7h-10.3c-0.1-0.5-0.2-1.1-0.2-1.7c0-0.7,0.1-1.3,0.2-1.7h3.4
				c-0.1-0.5-0.2-1.1-0.2-1.7c0-0.7,0.1-1.3,0.2-1.7c-0.1-0.5-0.2-1.1-0.2-1.7c0-0.7,0.1-1.3,0.2-1.7c-0.1-0.5-0.2-1.1-0.2-1.7
				c0-0.7,0.1-1.3,0.2-1.7H268c-0.1-0.5-0.2-1.1-0.2-1.7c0-0.7,0.1-1.3,0.2-1.7h6c0.1,0.5,0.2,1,0.2,1.7c0,0.7-0.1,1.2-0.2,1.7
				c0.1,0.5,0.2,1,0.2,1.7c0,0.7-0.1,1.2-0.2,1.7c0.1,0.5,0.2,1,0.2,1.7s-0.1,1.2-0.2,1.7c0.1,0.5,0.2,1,0.2,1.7s-0.1,1.2-0.2,1.7
				h3.4C277.6,92.2,277.8,92.7,277.8,93.4z M270.6,74.5c-0.1-0.5-0.2-1.1-0.2-1.7c0-0.7,0.1-1.3,0.2-1.7h3.4c0.1,0.5,0.2,1,0.2,1.7
				c0,0.7-0.1,1.2-0.2,1.7H270.6z"/>
			<path class="st0" d="M263.8,101.6v-2.2H280v2.2H263.8z"/>
		</g>
		<g>
			<path class="st0" d="M284.6,81.4h1.7c0.1,0.5,0.2,1,0.2,1.7c0,0.7-0.1,1.2-0.2,1.7h-1.3c0.1,0.5,0.2,1,0.2,1.7s-0.1,1.2-0.2,1.7
				c0.1,0.5,0.2,1,0.2,1.7s-0.1,1.2-0.2,1.7c0.1,0.5,0.2,1,0.2,1.7s-0.1,1.2-0.2,1.7h-3.4c-0.1-0.5-0.2-1.1-0.2-1.7
				c0-0.7,0.1-1.3,0.2-1.7c-0.1-0.5-0.2-1.1-0.2-1.7c0-0.7,0.1-1.3,0.2-1.7c-0.1-0.5-0.2-1.1-0.2-1.7c0-0.7,0.1-1.3,0.2-1.7
				c-0.1-0.5-0.2-1.1-0.2-1.7c0-0.7,0.1-1.3,0.2-1.7c-0.1-0.5-0.2-1.1-0.2-1.7c0-0.7,0.1-1.3,0.2-1.7h3c0.1,0.5,0.2,1,0.2,1.7
				C284.9,80.3,284.8,80.9,284.6,81.4z M295.5,86.6c0,0.7-0.1,1.2-0.2,1.7c0.1,0.5,0.2,1,0.2,1.7s-0.1,1.2-0.2,1.7
				c0.1,0.5,0.2,1,0.2,1.7s-0.1,1.2-0.2,1.7h-3.4c-0.1-0.5-0.2-1.1-0.2-1.7c0-0.7,0.1-1.3,0.2-1.7c-0.1-0.5-0.2-1.1-0.2-1.7
				c0-0.7,0.1-1.3,0.2-1.7c-0.1-0.5-0.2-1.1-0.2-1.7c0-0.7,0.1-1.3,0.2-1.7c-0.1-0.5-0.2-1.1-0.2-1.7c0-0.7,0.1-1.3,0.2-1.7h-5.6
				c-0.1-0.5-0.2-1.1-0.2-1.7c0-0.7,0.1-1.3,0.2-1.7h6.9c0.1,0.5,0.2,1,0.2,1.7c0,0.7-0.1,1.2-0.2,1.7h2.2c0.1,0.5,0.2,1,0.2,1.7
				c0,0.7-0.1,1.2-0.2,1.7C295.5,85.3,295.5,85.9,295.5,86.6z"/>
			<path class="st0" d="M279.9,101.6v-2.2H298v2.2H279.9z"/>
		</g>
		<g>
			<path class="st0" d="M302.8,81.4h1.7c0.1,0.5,0.2,1,0.2,1.7c0,0.7-0.1,1.2-0.2,1.7h-1.3c0.1,0.5,0.2,1,0.2,1.7s-0.1,1.2-0.2,1.7
				c0.1,0.5,0.2,1,0.2,1.7s-0.1,1.2-0.2,1.7c0.1,0.5,0.2,1,0.2,1.7s-0.1,1.2-0.2,1.7h-3.4c-0.1-0.5-0.2-1.1-0.2-1.7
				c0-0.7,0.1-1.3,0.2-1.7c-0.1-0.5-0.2-1.1-0.2-1.7c0-0.7,0.1-1.3,0.2-1.7c-0.1-0.5-0.2-1.1-0.2-1.7c0-0.7,0.1-1.3,0.2-1.7
				c-0.1-0.5-0.2-1.1-0.2-1.7c0-0.7,0.1-1.3,0.2-1.7c-0.1-0.5-0.2-1.1-0.2-1.7c0-0.7,0.1-1.3,0.2-1.7h3c0.1,0.5,0.2,1,0.2,1.7
				C302.9,80.3,302.9,80.9,302.8,81.4z M313.6,86.6c0,0.7-0.1,1.2-0.2,1.7c0.1,0.5,0.2,1,0.2,1.7s-0.1,1.2-0.2,1.7
				c0.1,0.5,0.2,1,0.2,1.7s-0.1,1.2-0.2,1.7H310c-0.1-0.5-0.2-1.1-0.2-1.7c0-0.7,0.1-1.3,0.2-1.7c-0.1-0.5-0.2-1.1-0.2-1.7
				c0-0.7,0.1-1.3,0.2-1.7c-0.1-0.5-0.2-1.1-0.2-1.7c0-0.7,0.1-1.3,0.2-1.7c-0.1-0.5-0.2-1.1-0.2-1.7c0-0.7,0.1-1.3,0.2-1.7h-5.6
				c-0.1-0.5-0.2-1.1-0.2-1.7c0-0.7,0.1-1.3,0.2-1.7h6.9c0.1,0.5,0.2,1,0.2,1.7c0,0.7-0.1,1.2-0.2,1.7h2.1c0.1,0.5,0.2,1,0.2,1.7
				c0,0.7-0.1,1.2-0.2,1.7C313.6,85.3,313.6,85.9,313.6,86.6z"/>
			<path class="st0" d="M298,101.6v-2.2h16.3v2.2H298z"/>
		</g>
		<g>
			<path class="st0" d="M328.2,93.4c0,0.7-0.1,1.2-0.2,1.7h-10.3c-0.1-0.5-0.2-1.1-0.2-1.7c0-0.7,0.1-1.3,0.2-1.7h3.4
				c-0.1-0.5-0.2-1.1-0.2-1.7c0-0.7,0.1-1.3,0.2-1.7c-0.1-0.5-0.2-1.1-0.2-1.7c0-0.7,0.1-1.3,0.2-1.7c-0.1-0.5-0.2-1.1-0.2-1.7
				c0-0.7,0.1-1.3,0.2-1.7h-2.6c-0.1-0.5-0.2-1.1-0.2-1.7c0-0.7,0.1-1.3,0.2-1.7h6c0.1,0.5,0.2,1,0.2,1.7c0,0.7-0.1,1.2-0.2,1.7
				c0.1,0.5,0.2,1,0.2,1.7c0,0.7-0.1,1.2-0.2,1.7c0.1,0.5,0.2,1,0.2,1.7s-0.1,1.2-0.2,1.7c0.1,0.5,0.2,1,0.2,1.7s-0.1,1.2-0.2,1.7
				h3.4C328.1,92.2,328.2,92.7,328.2,93.4z M321.1,74.5c-0.1-0.5-0.2-1.1-0.2-1.7c0-0.7,0.1-1.3,0.2-1.7h3.4c0.1,0.5,0.2,1,0.2,1.7
				c0,0.7-0.1,1.2-0.2,1.7H321.1z"/>
			<path class="st0" d="M314.2,101.6v-2.2h16.2v2.2H314.2z"/>
		</g>
		<g>
			<path class="st0" d="M335.1,81.4h1.7c0.1,0.5,0.2,1,0.2,1.7c0,0.7-0.1,1.2-0.2,1.7h-1.3c0.1,0.5,0.2,1,0.2,1.7s-0.1,1.2-0.2,1.7
				c0.1,0.5,0.2,1,0.2,1.7s-0.1,1.2-0.2,1.7c0.1,0.5,0.2,1,0.2,1.7s-0.1,1.2-0.2,1.7h-3.4c-0.1-0.5-0.2-1.1-0.2-1.7
				c0-0.7,0.1-1.3,0.2-1.7c-0.1-0.5-0.2-1.1-0.2-1.7c0-0.7,0.1-1.3,0.2-1.7c-0.1-0.5-0.2-1.1-0.2-1.7c0-0.7,0.1-1.3,0.2-1.7
				c-0.1-0.5-0.2-1.1-0.2-1.7c0-0.7,0.1-1.3,0.2-1.7c-0.1-0.5-0.2-1.1-0.2-1.7c0-0.7,0.1-1.3,0.2-1.7h3c0.1,0.5,0.2,1,0.2,1.7
				C335.4,80.3,335.2,80.9,335.1,81.4z M346.1,86.6c0,0.7-0.1,1.2-0.2,1.7c0.1,0.5,0.2,1,0.2,1.7s-0.1,1.2-0.2,1.7
				c0.1,0.5,0.2,1,0.2,1.7s-0.1,1.2-0.2,1.7h-3.4c-0.1-0.5-0.2-1.1-0.2-1.7c0-0.7,0.1-1.3,0.2-1.7c-0.1-0.5-0.2-1.1-0.2-1.7
				c0-0.7,0.1-1.3,0.2-1.7c-0.1-0.5-0.2-1.1-0.2-1.7c0-0.7,0.1-1.3,0.2-1.7c-0.1-0.5-0.2-1.1-0.2-1.7c0-0.7,0.1-1.3,0.2-1.7h-5.6
				c-0.1-0.5-0.2-1.1-0.2-1.7c0-0.7,0.1-1.3,0.2-1.7h6.9c0.1,0.5,0.2,1,0.2,1.7c0,0.7-0.1,1.2-0.2,1.7h2.2c0.1,0.5,0.2,1,0.2,1.7
				c0,0.7-0.1,1.2-0.2,1.7C346.1,85.3,346.1,85.9,346.1,86.6z"/>
			<path class="st0" d="M330.4,101.6v-2.2h17.4v2.2H330.4z"/>
		</g>
		<g class="st1">
			<path class="st0" d="M363.4,83.1c0,0.7-0.1,1.2-0.2,1.7c0.1,0.5,0.2,1,0.2,1.7s-0.1,1.2-0.2,1.7c0.1,0.5,0.2,1,0.2,1.7
				s-0.1,1.2-0.2,1.7c0.1,0.5,0.2,1,0.2,1.7s-0.1,1.2-0.2,1.7h-1.7c0.1,0.5,0.2,1,0.2,1.7s-0.1,1.2-0.2,1.7h-1.7
				c0.1,0.5,0.2,1,0.2,1.7s-0.1,1.2-0.2,1.7h-6.9c-0.1-0.5-0.2-1.1-0.2-1.7c0-0.7,0.1-1.3,0.2-1.7h5.2c-0.1-0.5-0.2-1.1-0.2-1.7
				c0-0.7,0.1-1.3,0.2-1.7h1.7c-0.1-0.5-0.2-1.1-0.2-1.7c0-0.7,0.1-1.3,0.2-1.7h-1.7c-0.1-0.5-0.2-1.1-0.2-1.7
				c0-0.7,0.1-1.3,0.2-1.7h1.7c-0.1-0.5-0.2-1.1-0.2-1.7c0-0.7,0.1-1.3,0.2-1.7c-0.1-0.5-0.2-1.1-0.2-1.7c0-0.7,0.1-1.3,0.2-1.7
				h-5.6c0.1,0.5,0.2,1,0.2,1.7c0,0.7-0.1,1.2-0.2,1.7H353c0.1,0.5,0.2,1,0.2,1.7s-0.1,1.2-0.2,1.7h1.3c0.1,0.5,0.2,1,0.2,1.7
				s-0.1,1.2-0.2,1.7h3.9c0.1,0.5,0.2,1,0.2,1.7s-0.1,1.2-0.2,1.7H353c-0.1-0.5-0.2-1.1-0.2-1.7c0-0.7,0.1-1.3,0.2-1.7h-2.2
				c-0.1-0.5-0.2-1.1-0.2-1.7c0-0.7,0.1-1.3,0.2-1.7h-1.3c-0.1-0.5-0.2-1.1-0.2-1.7c0-0.7,0.1-1.3,0.2-1.7h1.3
				c-0.1-0.5-0.2-1.1-0.2-1.7c0-0.7,0.1-1.3,0.2-1.7h2.2c-0.1-0.5-0.2-1.1-0.2-1.7c0-0.7,0.1-1.3,0.2-1.7h10.3
				c0.1,0.5,0.2,1,0.2,1.7c0,0.7-0.1,1.2-0.2,1.7C363.4,81.9,363.4,82.4,363.4,83.1z"/>
		</g>
	</g>
</g>
</svg>
