<?xml version="1.0" encoding="utf-8"?>
<!-- Generator: Adobe Illustrator 24.0.3, SVG Export Plug-In . SVG Version: 6.00 Build 0)  -->
<svg version="1.1" id="Livello_1" xmlns="http://www.w3.org/2000/svg" xmlns:xlink="http://www.w3.org/1999/xlink" x="0px" y="0px"
	 viewBox="0 0 614.4 128.4" style="enable-background:new 0 0 614.4 128.4;" xml:space="preserve">
<style type="text/css">
	.st0{fill:#FFFFFF;}
	.st1{enable-background:new    ;}
</style>
<title>webcam</title>
<g id="Livello_12">
	<g>
		<polygon points="593.2,0 572,0 550.8,0 529.7,0 508.5,0 487.3,0 466.1,0 444.9,0 423.7,0 402.5,0 381.4,0 360.2,0 339,0 317.8,0 
			296.6,0 275.4,0 254.2,0 233.1,0 211.9,0 190.7,0 169.5,0 148.3,0 127.1,0 105.9,0 84.7,0 63.6,0 42.4,0 21.2,0 21.2,21.4 0,21.4 
			0,42.8 0,64.2 0,85.6 0,107 21.2,107 21.2,128.4 42.4,128.4 63.6,128.4 84.7,128.4 105.9,128.4 127.1,128.4 148.3,128.4 
			169.5,128.4 190.7,128.4 211.9,128.4 233.1,128.4 254.2,128.4 275.4,128.4 296.6,128.4 317.8,128.4 339,128.4 360.2,128.4 
			381.4,128.4 402.5,128.4 423.7,128.4 444.9,128.4 466.1,128.4 487.3,128.4 508.5,128.4 529.7,128.4 550.8,128.4 572,128.4 
			593.2,128.4 593.2,107 614.4,107 614.4,85.6 614.4,64.2 614.4,42.8 614.4,21.4 593.2,21.4 		"/>
	</g>
	<g>
		<path class="st0" d="M63,67.6c0.1,0.5,0.2,1,0.2,1.7c0,0.7-0.1,1.2-0.2,1.7h-1.7c0.1,0.5,0.2,1,0.2,1.7c0,0.7-0.1,1.2-0.2,1.7
			h-8.6c-0.1-0.5-0.2-1.1-0.2-1.7c0-0.7,0.1-1.3,0.2-1.7H51c-0.1-0.5-0.2-1.1-0.2-1.7c0-0.7,0.1-1.3,0.2-1.7h-1.7
			c-0.1-0.5-0.2-1.1-0.2-1.7c0-0.7,0.1-1.3,0.2-1.7H51c-0.1-0.5-0.2-1.1-0.2-1.7c0-0.7,0.1-1.3,0.2-1.7h1.7
			c-0.1-0.5-0.2-1.1-0.2-1.7c0-0.7,0.1-1.3,0.2-1.7h8.6c0.1,0.5,0.2,1,0.2,1.7c0,0.7-0.1,1.2-0.2,1.7H63c0.1,0.5,0.2,1,0.2,1.7
			c0,0.7-0.1,1.2-0.2,1.7h-3.4c-0.1-0.5-0.2-1.1-0.2-1.7c0-0.7,0.1-1.3,0.2-1.7h-5.2c0.1,0.5,0.2,1,0.2,1.7c0,0.7-0.1,1.2-0.2,1.7
			h-1.7c0.1,0.5,0.2,1,0.2,1.7c0,0.7-0.1,1.2-0.2,1.7h1.7c0.1,0.5,0.2,1,0.2,1.7c0,0.7-0.1,1.2-0.2,1.7h5.2
			c-0.1-0.5-0.2-1.1-0.2-1.7c0-0.7,0.1-1.3,0.2-1.7H63z"/>
		<path class="st0" d="M47.5,80.9v-2.2h15.9v2.2H47.5z"/>
	</g>
	<g>
		<path class="st0" d="M77.3,72.7c0,0.7-0.1,1.2-0.2,1.7H66.8c-0.1-0.5-0.2-1.1-0.2-1.7c0-0.7,0.1-1.3,0.2-1.7h3.4
			c-0.1-0.5-0.2-1.1-0.2-1.7c0-0.7,0.1-1.3,0.2-1.7c-0.1-0.5-0.2-1.1-0.2-1.7c0-0.7,0.1-1.3,0.2-1.7c-0.1-0.5-0.2-1.1-0.2-1.7
			c0-0.7,0.1-1.3,0.2-1.7c-0.1-0.5-0.2-1.1-0.2-1.7c0-0.7,0.1-1.3,0.2-1.7c-0.1-0.5-0.2-1.1-0.2-1.7c0-0.7,0.1-1.3,0.2-1.7h-2.6
			c-0.1-0.5-0.2-1.1-0.2-1.7c0-0.7,0.1-1.3,0.2-1.7h6c0.1,0.5,0.2,1,0.2,1.7c0,0.7-0.1,1.2-0.2,1.7c0.1,0.5,0.2,1,0.2,1.7
			c0,0.7-0.1,1.2-0.2,1.7c0.1,0.5,0.2,1,0.2,1.7c0,0.7-0.1,1.2-0.2,1.7c0.1,0.5,0.2,1,0.2,1.7c0,0.7-0.1,1.2-0.2,1.7
			c0.1,0.5,0.2,1,0.2,1.7c0,0.7-0.1,1.2-0.2,1.7c0.1,0.5,0.2,1,0.2,1.7c0,0.7-0.1,1.2-0.2,1.7h3.4C77.3,71.5,77.3,72,77.3,72.7z"/>
		<path class="st0" d="M63.4,80.9v-2.2h15v2.2H63.4z"/>
	</g>
	<g>
		<path class="st0" d="M92.3,72.7c0,0.7-0.1,1.2-0.2,1.7H81.8c-0.1-0.5-0.2-1.1-0.2-1.7c0-0.7,0.1-1.3,0.2-1.7h3.4
			c-0.1-0.5-0.2-1.1-0.2-1.7c0-0.7,0.1-1.3,0.2-1.7c-0.1-0.5-0.2-1.1-0.2-1.7c0-0.7,0.1-1.3,0.2-1.7c-0.1-0.5-0.2-1.1-0.2-1.7
			c0-0.7,0.1-1.3,0.2-1.7h-2.6c-0.1-0.5-0.2-1.1-0.2-1.7c0-0.7,0.1-1.3,0.2-1.7h6c0.1,0.5,0.2,1,0.2,1.7c0,0.7-0.1,1.2-0.2,1.7
			c0.1,0.5,0.2,1,0.2,1.7c0,0.7-0.1,1.2-0.2,1.7c0.1,0.5,0.2,1,0.2,1.7c0,0.7-0.1,1.2-0.2,1.7c0.1,0.5,0.2,1,0.2,1.7
			c0,0.7-0.1,1.2-0.2,1.7h3.4C92.3,71.5,92.3,72,92.3,72.7z M85.3,53.8c-0.1-0.5-0.2-1.1-0.2-1.7c0-0.7,0.1-1.3,0.2-1.7h3.4
			c0.1,0.5,0.2,1,0.2,1.7c0,0.7-0.1,1.2-0.2,1.7H85.3z"/>
		<path class="st0" d="M78.4,80.9v-2.2h15.1v2.2H78.4z"/>
	</g>
	<g>
		<path class="st0" d="M108.9,67.6c0.1,0.5,0.2,1,0.2,1.7c0,0.7-0.1,1.2-0.2,1.7h-1.7c0.1,0.5,0.2,1,0.2,1.7c0,0.7-0.1,1.2-0.2,1.7
			h-8.6c-0.1-0.5-0.2-1.1-0.2-1.7c0-0.7,0.1-1.3,0.2-1.7h-1.7c-0.1-0.5-0.2-1.1-0.2-1.7c0-0.7,0.1-1.3,0.2-1.7h-1.7
			c-0.1-0.5-0.2-1.1-0.2-1.7c0-0.7,0.1-1.3,0.2-1.7h1.7c-0.1-0.5-0.2-1.1-0.2-1.7c0-0.7,0.1-1.3,0.2-1.7h1.7
			c-0.1-0.5-0.2-1.1-0.2-1.7c0-0.7,0.1-1.3,0.2-1.7h8.6c0.1,0.5,0.2,1,0.2,1.7c0,0.7-0.1,1.2-0.2,1.7h1.7c0.1,0.5,0.2,1,0.2,1.7
			c0,0.7-0.1,1.2-0.2,1.7h-3.4c-0.1-0.5-0.2-1.1-0.2-1.7c0-0.7,0.1-1.3,0.2-1.7h-5.2c0.1,0.5,0.2,1,0.2,1.7c0,0.7-0.1,1.2-0.2,1.7
			h-1.7c0.1,0.5,0.2,1,0.2,1.7c0,0.7-0.1,1.2-0.2,1.7h1.7c0.1,0.5,0.2,1,0.2,1.7c0,0.7-0.1,1.2-0.2,1.7h5.2
			c-0.1-0.5-0.2-1.1-0.2-1.7c0-0.7,0.1-1.3,0.2-1.7H108.9z"/>
		<path class="st0" d="M93.5,80.9v-2.2h17.8v2.2H93.5z"/>
	</g>
	<g>
		<path class="st0" d="M127,72.7c0,0.7-0.1,1.2-0.2,1.7h-6c-0.1-0.5-0.2-1.1-0.2-1.7c0-0.7,0.1-1.3,0.2-1.7h-1.7
			c-0.1-0.5-0.2-1.1-0.2-1.7c0-0.7,0.1-1.3,0.2-1.7h-2.6c0.1,0.5,0.2,1,0.2,1.7c0,0.7-0.1,1.2-0.2,1.7c0.1,0.5,0.2,1,0.2,1.7
			c0,0.7-0.1,1.2-0.2,1.7h-3.4c-0.1-0.5-0.2-1.1-0.2-1.7c0-0.7,0.1-1.3,0.2-1.7c-0.1-0.5-0.2-1.1-0.2-1.7c0-0.7,0.1-1.3,0.2-1.7
			c-0.1-0.5-0.2-1.1-0.2-1.7c0-0.7,0.1-1.3,0.2-1.7c-0.1-0.5-0.2-1.1-0.2-1.7c0-0.7,0.1-1.3,0.2-1.7c-0.1-0.5-0.2-1.1-0.2-1.7
			c0-0.7,0.1-1.3,0.2-1.7c-0.1-0.5-0.2-1.1-0.2-1.7c0-0.7,0.1-1.3,0.2-1.7c-0.1-0.5-0.2-1.1-0.2-1.7c0-0.7,0.1-1.3,0.2-1.7h3.4
			c0.1,0.5,0.2,1,0.2,1.7c0,0.7-0.1,1.2-0.2,1.7c0.1,0.5,0.2,1,0.2,1.7c0,0.7-0.1,1.2-0.2,1.7c0.1,0.5,0.2,1,0.2,1.7
			c0,0.7-0.1,1.2-0.2,1.7c0.1,0.5,0.2,1,0.2,1.7c0,0.7-0.1,1.2-0.2,1.7h2.6c-0.1-0.5-0.2-1.1-0.2-1.7c0-0.7,0.1-1.3,0.2-1.7h1.7
			c-0.1-0.5-0.2-1.1-0.2-1.7c0-0.7,0.1-1.3,0.2-1.7h5.2c0.1,0.5,0.2,1,0.2,1.7c0,0.7-0.1,1.2-0.2,1.7h-3.4c0.1,0.5,0.2,1,0.2,1.7
			c0,0.7-0.1,1.2-0.2,1.7h-1.7c0.1,0.5,0.2,1,0.2,1.7c0,0.7-0.1,1.2-0.2,1.7h1.7c0.1,0.5,0.2,1,0.2,1.7c0,0.7-0.1,1.2-0.2,1.7h4.3
			C126.9,71.5,127,72,127,72.7z"/>
		<path class="st0" d="M111.3,80.9v-2.2h34.4v2.2H111.3z"/>
	</g>
	<g>
		<path class="st0" d="M150.9,60.7h1.3c0.1,0.5,0.2,1,0.2,1.7c0,0.7-0.1,1.2-0.2,1.7h-1.3c0.1,0.5,0.2,1,0.2,1.7
			c0,0.7-0.1,1.2-0.2,1.7c0.1,0.5,0.2,1,0.2,1.7c0,0.7-0.1,1.2-0.2,1.7c0.1,0.5,0.2,1,0.2,1.7c0,0.7-0.1,1.2-0.2,1.7h-3.4
			c-0.1-0.5-0.2-1.1-0.2-1.7c0-0.7,0.1-1.3,0.2-1.7c-0.1-0.5-0.2-1.1-0.2-1.7c0-0.7,0.1-1.3,0.2-1.7c-0.1-0.5-0.2-1.1-0.2-1.7
			c0-0.7,0.1-1.3,0.2-1.7c-0.1-0.5-0.2-1.1-0.2-1.7c0-0.7,0.1-1.3,0.2-1.7c-0.1-0.5-0.2-1.1-0.2-1.7c0-0.7,0.1-1.3,0.2-1.7
			c-0.1-0.5-0.2-1.1-0.2-1.7c0-0.7,0.1-1.3,0.2-1.7c-0.1-0.5-0.2-1.1-0.2-1.7c0-0.7,0.1-1.3,0.2-1.7h3.4c0.1,0.5,0.2,1,0.2,1.7
			c0,0.7-0.1,1.2-0.2,1.7c0.1,0.5,0.2,1,0.2,1.7c0,0.7-0.1,1.2-0.2,1.7c0.1,0.5,0.2,1,0.2,1.7C151.1,59.6,151,60.2,150.9,60.7z
			 M161.4,65.9c0,0.7-0.1,1.2-0.2,1.7c0.1,0.5,0.2,1,0.2,1.7c0,0.7-0.1,1.2-0.2,1.7c0.1,0.5,0.2,1,0.2,1.7c0,0.7-0.1,1.2-0.2,1.7
			h-3.4c-0.1-0.5-0.2-1.1-0.2-1.7c0-0.7,0.1-1.3,0.2-1.7c-0.1-0.5-0.2-1.1-0.2-1.7c0-0.7,0.1-1.3,0.2-1.7c-0.1-0.5-0.2-1.1-0.2-1.7
			c0-0.7,0.1-1.3,0.2-1.7c-0.1-0.5-0.2-1.1-0.2-1.7c0-0.7,0.1-1.3,0.2-1.7h-5.6c-0.1-0.5-0.2-1.1-0.2-1.7c0-0.7,0.1-1.3,0.2-1.7h6.9
			c0.1,0.5,0.2,1,0.2,1.7c0,0.7-0.1,1.2-0.2,1.7h2.1c0.1,0.5,0.2,1,0.2,1.7c0,0.7-0.1,1.2-0.2,1.7C161.3,64.6,161.4,65.2,161.4,65.9
			z"/>
		<path class="st0" d="M145.7,80.9v-2.2h17.4v2.2H145.7z"/>
	</g>
	<g>
		<path class="st0" d="M178.7,64.1c0.1,0.5,0.2,1,0.2,1.7c0,0.7-0.1,1.2-0.2,1.7h-9c0.1,0.5,0.2,1,0.2,1.7c0,0.7-0.1,1.2-0.2,1.7
			h7.3c0.1,0.5,0.2,1,0.2,1.7c0,0.7-0.1,1.2-0.2,1.7h-8.6c-0.1-0.5-0.2-1.1-0.2-1.7c0-0.7,0.1-1.3,0.2-1.7h-2.2
			c-0.1-0.5-0.2-1.1-0.2-1.7c0-0.7,0.1-1.3,0.2-1.7h-1.3c-0.1-0.5-0.2-1.1-0.2-1.7c0-0.7,0.1-1.3,0.2-1.7h1.3
			c-0.1-0.5-0.2-1.1-0.2-1.7c0-0.7,0.1-1.3,0.2-1.7h2.2c-0.1-0.5-0.2-1.1-0.2-1.7c0-0.7,0.1-1.3,0.2-1.7h8.6c0.1,0.5,0.2,1,0.2,1.7
			c0,0.7-0.1,1.2-0.2,1.7h1.7c0.1,0.5,0.2,1,0.2,1.7C178.8,63.1,178.8,63.6,178.7,64.1z M175,62.4c0-0.7,0.1-1.3,0.2-1.7h-5.6
			c0.1,0.5,0.2,1,0.2,1.7c0,0.7-0.1,1.2-0.2,1.7h5.6C175.1,63.6,175,63.1,175,62.4z"/>
		<path class="st0" d="M163.2,80.9v-2.2h17v2.2H163.2z"/>
	</g>
	<g>
		<path class="st0" d="M195.8,62.4c0,0.7-0.1,1.2-0.2,1.7h-3.4c-0.1-0.5-0.2-1.1-0.2-1.7c0-0.7,0.1-1.3,0.2-1.7h-3
			c0.1,0.5,0.2,1,0.2,1.7c0,0.7-0.1,1.2-0.2,1.7h-1.3c0.1,0.5,0.2,1,0.2,1.7c0,0.7-0.1,1.2-0.2,1.7c0.1,0.5,0.2,1,0.2,1.7
			c0,0.7-0.1,1.2-0.2,1.7h2.6c0.1,0.5,0.2,1,0.2,1.7c0,0.7-0.1,1.2-0.2,1.7h-8.6c-0.1-0.5-0.2-1.1-0.2-1.7c0-0.7,0.1-1.3,0.2-1.7
			h2.6c-0.1-0.5-0.2-1.1-0.2-1.7c0-0.7,0.1-1.3,0.2-1.7c-0.1-0.5-0.2-1.1-0.2-1.7c0-0.7,0.1-1.3,0.2-1.7c-0.1-0.5-0.2-1.1-0.2-1.7
			c0-0.7,0.1-1.3,0.2-1.7h-2.6c-0.1-0.5-0.2-1.1-0.2-1.7c0-0.7,0.1-1.3,0.2-1.7h4.3c0.1,0.5,0.2,1,0.2,1.7c0,0.7-0.1,1.2-0.2,1.7
			h1.7c-0.1-0.5-0.2-1.1-0.2-1.7c0-0.7,0.1-1.3,0.2-1.7h6.5c0.1,0.5,0.2,1,0.2,1.7c0,0.7-0.1,1.2-0.2,1.7h1.3
			C195.7,61.2,195.8,61.7,195.8,62.4z"/>
		<path class="st0" d="M180.1,80.9v-2.2h16.8v2.2H180.1z"/>
	</g>
	<g>
		<path class="st0" d="M212.4,64.1c0.1,0.5,0.2,1,0.2,1.7c0,0.7-0.1,1.2-0.2,1.7h-9c0.1,0.5,0.2,1,0.2,1.7c0,0.7-0.1,1.2-0.2,1.7
			h7.3c0.1,0.5,0.2,1,0.2,1.7c0,0.7-0.1,1.2-0.2,1.7h-8.6c-0.1-0.5-0.2-1.1-0.2-1.7c0-0.7,0.1-1.3,0.2-1.7h-2.1
			c-0.1-0.5-0.2-1.1-0.2-1.7c0-0.7,0.1-1.3,0.2-1.7h-1.3c-0.1-0.5-0.2-1.1-0.2-1.7c0-0.7,0.1-1.3,0.2-1.7h1.3
			c-0.1-0.5-0.2-1.1-0.2-1.7c0-0.7,0.1-1.3,0.2-1.7h2.1c-0.1-0.5-0.2-1.1-0.2-1.7c0-0.7,0.1-1.3,0.2-1.7h8.6c0.1,0.5,0.2,1,0.2,1.7
			c0,0.7-0.1,1.2-0.2,1.7h1.7c0.1,0.5,0.2,1,0.2,1.7C212.6,63.1,212.5,63.6,212.4,64.1z M208.8,62.4c0-0.7,0.1-1.3,0.2-1.7h-5.6
			c0.1,0.5,0.2,1,0.2,1.7c0,0.7-0.1,1.2-0.2,1.7h5.6C208.8,63.6,208.8,63.1,208.8,62.4z"/>
		<path class="st0" d="M196.9,80.9v-2.2h34.4v2.2H196.9z"/>
	</g>
	<g>
		<path class="st0" d="M245.1,71c0.1,0.5,0.2,1,0.2,1.7c0,0.7-0.1,1.2-0.2,1.7h-6.9c-0.1-0.5-0.2-1.1-0.2-1.7c0-0.7,0.1-1.3,0.2-1.7
			h-1.7c-0.1-0.5-0.2-1.1-0.2-1.7c0-0.7,0.1-1.3,0.2-1.7c-0.1-0.5-0.2-1.1-0.2-1.7c0-0.7,0.1-1.3,0.2-1.7c-0.1-0.5-0.2-1.1-0.2-1.7
			c0-0.7,0.1-1.3,0.2-1.7H233c-0.1-0.5-0.2-1.1-0.2-1.7c0-0.7,0.1-1.3,0.2-1.7h3.4c-0.1-0.5-0.2-1.1-0.2-1.7c0-0.7,0.1-1.3,0.2-1.7
			c-0.1-0.5-0.2-1.1-0.2-1.7c0-0.7,0.1-1.3,0.2-1.7h3.4c0.1,0.5,0.2,1,0.2,1.7c0,0.7-0.1,1.2-0.2,1.7c0.1,0.5,0.2,1,0.2,1.7
			c0,0.7-0.1,1.2-0.2,1.7h5.2c0.1,0.5,0.2,1,0.2,1.7c0,0.7-0.1,1.2-0.2,1.7h-5.2c0.1,0.5,0.2,1,0.2,1.7c0,0.7-0.1,1.2-0.2,1.7
			c0.1,0.5,0.2,1,0.2,1.7c0,0.7-0.1,1.2-0.2,1.7c0.1,0.5,0.2,1,0.2,1.7c0,0.7-0.1,1.2-0.2,1.7H245.1z"/>
		<path class="st0" d="M231.3,80.9v-2.2h15.2v2.2H231.3z"/>
	</g>
	<g>
		<path class="st0" d="M262,67.6h-1.3c0.1,0.5,0.2,1,0.2,1.7c0,0.7-0.1,1.2-0.2,1.7h-2.1c0.1,0.5,0.2,1,0.2,1.7
			c0,0.7-0.1,1.2-0.2,1.7h-6.9c-0.1-0.5-0.2-1.1-0.2-1.7c0-0.7,0.1-1.3,0.2-1.7h-2.2c-0.1-0.5-0.2-1.1-0.2-1.7
			c0-0.7,0.1-1.3,0.2-1.7h-1.3c-0.1-0.5-0.2-1.1-0.2-1.7c0-0.7,0.1-1.3,0.2-1.7h1.3c-0.1-0.5-0.2-1.1-0.2-1.7c0-0.7,0.1-1.3,0.2-1.7
			h2.2c-0.1-0.5-0.2-1.1-0.2-1.7c0-0.7,0.1-1.3,0.2-1.7h6.9c0.1,0.5,0.2,1,0.2,1.7c0,0.7-0.1,1.2-0.2,1.7h2.1c0.1,0.5,0.2,1,0.2,1.7
			c0,0.7-0.1,1.2-0.2,1.7h1.3c0.1,0.5,0.2,1,0.2,1.7C262.2,66.5,262.1,67.1,262,67.6z M258.5,67.6c-0.1-0.5-0.2-1.1-0.2-1.7
			c0-0.7,0.1-1.3,0.2-1.7h-1.3c-0.1-0.5-0.2-1.1-0.2-1.7c0-0.7,0.1-1.3,0.2-1.7h-4.3c0.1,0.5,0.2,1,0.2,1.7c0,0.7-0.1,1.2-0.2,1.7
			h-1.3c0.1,0.5,0.2,1,0.2,1.7c0,0.7-0.1,1.2-0.2,1.7h1.3c0.1,0.5,0.2,1,0.2,1.7c0,0.7-0.1,1.2-0.2,1.7h4.3
			c-0.1-0.5-0.2-1.1-0.2-1.7c0-0.7,0.1-1.3,0.2-1.7H258.5z"/>
		<path class="st0" d="M246.5,80.9v-2.2h34.4v2.2H246.5z"/>
	</g>
	<g>
		<path class="st0" d="M295.5,71h-1.7c0.1,0.5,0.2,1,0.2,1.7c0,0.7-0.1,1.2-0.2,1.7h-9.5c-0.1-0.5-0.2-1.1-0.2-1.7
			c0-0.7,0.1-1.3,0.2-1.7h7.7c-0.1-0.5-0.2-1.1-0.2-1.7c0-0.7,0.1-1.3,0.2-1.7h-6.9c-0.1-0.5-0.2-1.1-0.2-1.7c0-0.7,0.1-1.3,0.2-1.7
			h-1.7c-0.1-0.5-0.2-1.1-0.2-1.7c0-0.7,0.1-1.3,0.2-1.7h1.7c-0.1-0.5-0.2-1.1-0.2-1.7c0-0.7,0.1-1.3,0.2-1.7h9.5
			c0.1,0.5,0.2,1,0.2,1.7c0,0.7-0.1,1.2-0.2,1.7h-7.7c0.1,0.5,0.2,1,0.2,1.7c0,0.7-0.1,1.2-0.2,1.7h6.9c0.1,0.5,0.2,1,0.2,1.7
			c0,0.7-0.1,1.2-0.2,1.7h1.7c0.1,0.5,0.2,1,0.2,1.7C295.7,70,295.6,70.5,295.5,71z"/>
		<path class="st0" d="M280.9,80.9v-2.2h16.5v2.2H280.9z"/>
	</g>
	<g>
		<path class="st0" d="M313,72.7c0,0.7-0.1,1.2-0.2,1.7h-3.4c-0.1-0.5-0.2-1.1-0.2-1.7c0-0.7,0.1-1.3,0.2-1.7h-1.7
			c-0.1-0.5-0.2-1.1-0.2-1.7c0-0.7,0.1-1.3,0.2-1.7h-5.2c0.1,0.5,0.2,1,0.2,1.7c0,0.7-0.1,1.2-0.2,1.7h5.2c0.1,0.5,0.2,1,0.2,1.7
			c0,0.7-0.1,1.2-0.2,1.7h-6.9c-0.1-0.5-0.2-1.1-0.2-1.7c0-0.7,0.1-1.3,0.2-1.7h-1.7c-0.1-0.5-0.2-1.1-0.2-1.7
			c0-0.7,0.1-1.3,0.2-1.7h1.7c-0.1-0.5-0.2-1.1-0.2-1.7c0-0.7,0.1-1.3,0.2-1.7h6.9c-0.1-0.5-0.2-1.1-0.2-1.7c0-0.7,0.1-1.3,0.2-1.7
			h-6c-0.1-0.5-0.2-1.1-0.2-1.7c0-0.7,0.1-1.3,0.2-1.7h7.7c0.1,0.5,0.2,1,0.2,1.7c0,0.7-0.1,1.2-0.2,1.7h1.7c0.1,0.5,0.2,1,0.2,1.7
			c0,0.7-0.1,1.2-0.2,1.7c0.1,0.5,0.2,1,0.2,1.7c0,0.7-0.1,1.2-0.2,1.7c0.1,0.5,0.2,1,0.2,1.7c0,0.7-0.1,1.2-0.2,1.7h1.7
			C313,71.5,313,72,313,72.7z"/>
		<path class="st0" d="M297.4,80.9v-2.2h16.1v2.2H297.4z"/>
	</g>
	<g>
		<path class="st0" d="M329,60.7h-1.3c0.1,0.5,0.2,1,0.2,1.7c0,0.7-0.1,1.2-0.2,1.7h-1.3c0.1,0.5,0.2,1,0.2,1.7
			c0,0.7-0.1,1.2-0.2,1.7h-0.9c0.1,0.5,0.2,1,0.2,1.7c0,0.7-0.1,1.2-0.2,1.7h-1.7c0.1,0.5,0.2,1,0.2,1.7c0,0.7-0.1,1.2-0.2,1.7h-3.4
			c-0.1-0.5-0.2-1.1-0.2-1.7c0-0.7,0.1-1.3,0.2-1.7h-1.7c-0.1-0.5-0.2-1.1-0.2-1.7c0-0.7,0.1-1.3,0.2-1.7h-0.9
			c-0.1-0.5-0.2-1.1-0.2-1.7c0-0.7,0.1-1.3,0.2-1.7h-1.3c-0.1-0.5-0.2-1.1-0.2-1.7c0-0.7,0.1-1.3,0.2-1.7h-1.3
			c-0.1-0.5-0.2-1.1-0.2-1.7c0-0.7,0.1-1.3,0.2-1.7h3.4c0.1,0.5,0.2,1,0.2,1.7c0,0.7-0.1,1.2-0.2,1.7h1.3c0.1,0.5,0.2,1,0.2,1.7
			c0,0.7-0.1,1.2-0.2,1.7h1.3c0.1,0.5,0.2,1,0.2,1.7c0,0.7-0.1,1.2-0.2,1.7h1.7c-0.1-0.5-0.2-1.1-0.2-1.7c0-0.7,0.1-1.3,0.2-1.7h1.3
			c-0.1-0.5-0.2-1.1-0.2-1.7c0-0.7,0.1-1.3,0.2-1.7h1.3c-0.1-0.5-0.2-1.1-0.2-1.7c0-0.7,0.1-1.3,0.2-1.7h3.4c0.1,0.5,0.2,1,0.2,1.7
			C329.2,59.6,329.1,60.2,329,60.7z"/>
		<path class="st0" d="M313.5,80.9v-2.2h16.3v2.2H313.5z"/>
	</g>
	<g>
		<path class="st0" d="M345.2,64.1c0.1,0.5,0.2,1,0.2,1.7c0,0.7-0.1,1.2-0.2,1.7h-9c0.1,0.5,0.2,1,0.2,1.7c0,0.7-0.1,1.2-0.2,1.7
			h7.3c0.1,0.5,0.2,1,0.2,1.7c0,0.7-0.1,1.2-0.2,1.7h-8.6c-0.1-0.5-0.2-1.1-0.2-1.7c0-0.7,0.1-1.3,0.2-1.7h-2.2
			c-0.1-0.5-0.2-1.1-0.2-1.7c0-0.7,0.1-1.3,0.2-1.7h-1.3c-0.1-0.5-0.2-1.1-0.2-1.7c0-0.7,0.1-1.3,0.2-1.7h1.3
			c-0.1-0.5-0.2-1.1-0.2-1.7c0-0.7,0.1-1.3,0.2-1.7h2.2c-0.1-0.5-0.2-1.1-0.2-1.7c0-0.7,0.1-1.3,0.2-1.7h8.6c0.1,0.5,0.2,1,0.2,1.7
			c0,0.7-0.1,1.2-0.2,1.7h1.7c0.1,0.5,0.2,1,0.2,1.7C345.4,63.1,345.4,63.6,345.2,64.1z M341.6,62.4c0-0.7,0.1-1.3,0.2-1.7h-5.6
			c0.1,0.5,0.2,1,0.2,1.7c0,0.7-0.1,1.2-0.2,1.7h5.6C341.7,63.6,341.6,63.1,341.6,62.4z"/>
		<path class="st0" d="M329.8,80.9v-2.2h34.4v2.2H329.8z"/>
	</g>
	<g>
		<path class="st0" d="M379.6,60.7h-1.3c0.1,0.5,0.2,1,0.2,1.7c0,0.7-0.1,1.2-0.2,1.7h-1.3c0.1,0.5,0.2,1,0.2,1.7
			c0,0.7-0.1,1.2-0.2,1.7h-0.9c0.1,0.5,0.2,1,0.2,1.7c0,0.7-0.1,1.2-0.2,1.7h-1.3c0.1,0.5,0.2,1,0.2,1.7c0,0.7-0.1,1.2-0.2,1.7h-0.9
			c0.1,0.5,0.2,1,0.2,1.7c0,0.7-0.1,1.2-0.2,1.7h-1.7c0.1,0.5,0.2,1,0.2,1.7c0,0.7-0.1,1.2-0.2,1.7h-5.2c-0.1-0.5-0.2-1.1-0.2-1.7
			c0-0.7,0.1-1.3,0.2-1.7h3.4c-0.1-0.5-0.2-1.1-0.2-1.7c0-0.7,0.1-1.3,0.2-1.7c-0.1-0.5-0.2-1.1-0.2-1.7c0-0.7,0.1-1.3,0.2-1.7h-1.7
			c-0.1-0.5-0.2-1.1-0.2-1.7c0-0.7,0.1-1.3,0.2-1.7H368c-0.1-0.5-0.2-1.1-0.2-1.7c0-0.7,0.1-1.3,0.2-1.7h-1.3
			c-0.1-0.5-0.2-1.1-0.2-1.7c0-0.7,0.1-1.3,0.2-1.7h-1.3c-0.1-0.5-0.2-1.1-0.2-1.7c0-0.7,0.1-1.3,0.2-1.7h3.4c0.1,0.5,0.2,1,0.2,1.7
			c0,0.7-0.1,1.2-0.2,1.7h1.3c0.1,0.5,0.2,1,0.2,1.7c0,0.7-0.1,1.2-0.2,1.7h1.3c0.1,0.5,0.2,1,0.2,1.7c0,0.7-0.1,1.2-0.2,1.7
			c0.1,0.5,0.2,1,0.2,1.7c0,0.7-0.1,1.2-0.2,1.7h1.3c-0.1-0.5-0.2-1.1-0.2-1.7c0-0.7,0.1-1.3,0.2-1.7h0.9c-0.1-0.5-0.2-1.1-0.2-1.7
			c0-0.7,0.1-1.3,0.2-1.7h1.3c-0.1-0.5-0.2-1.1-0.2-1.7c0-0.7,0.1-1.3,0.2-1.7h1.3c-0.1-0.5-0.2-1.1-0.2-1.7c0-0.7,0.1-1.3,0.2-1.7
			h3.4c0.1,0.5,0.2,1,0.2,1.7C379.8,59.6,379.8,60.2,379.6,60.7z"/>
		<path class="st0" d="M364.2,80.9v-2.2h16.3v2.2H364.2z"/>
	</g>
	<g>
		<path class="st0" d="M395.9,67.6h-1.3c0.1,0.5,0.2,1,0.2,1.7c0,0.7-0.1,1.2-0.2,1.7h-2.1c0.1,0.5,0.2,1,0.2,1.7
			c0,0.7-0.1,1.2-0.2,1.7h-6.9c-0.1-0.5-0.2-1.1-0.2-1.7c0-0.7,0.1-1.3,0.2-1.7h-2.1c-0.1-0.5-0.2-1.1-0.2-1.7
			c0-0.7,0.1-1.3,0.2-1.7h-1.3c-0.1-0.5-0.2-1.1-0.2-1.7c0-0.7,0.1-1.3,0.2-1.7h1.3c-0.1-0.5-0.2-1.1-0.2-1.7c0-0.7,0.1-1.3,0.2-1.7
			h2.1c-0.1-0.5-0.2-1.1-0.2-1.7c0-0.7,0.1-1.3,0.2-1.7h6.9c0.1,0.5,0.2,1,0.2,1.7c0,0.7-0.1,1.2-0.2,1.7h2.1c0.1,0.5,0.2,1,0.2,1.7
			c0,0.7-0.1,1.2-0.2,1.7h1.3c0.1,0.5,0.2,1,0.2,1.7C396.1,66.5,396,67.1,395.9,67.6z M392.5,67.6c-0.1-0.5-0.2-1.1-0.2-1.7
			c0-0.7,0.1-1.3,0.2-1.7h-1.3c-0.1-0.5-0.2-1.1-0.2-1.7c0-0.7,0.1-1.3,0.2-1.7h-4.3c0.1,0.5,0.2,1,0.2,1.7c0,0.7-0.1,1.2-0.2,1.7
			h-1.3c0.1,0.5,0.2,1,0.2,1.7c0,0.7-0.1,1.2-0.2,1.7h1.3c0.1,0.5,0.2,1,0.2,1.7c0,0.7-0.1,1.2-0.2,1.7h4.3
			c-0.1-0.5-0.2-1.1-0.2-1.7c0-0.7,0.1-1.3,0.2-1.7H392.5z"/>
		<path class="st0" d="M380.4,80.9v-2.2h17.3v2.2H380.4z"/>
	</g>
	<g>
		<path class="st0" d="M404.2,71h4.3c0.1,0.5,0.2,1,0.2,1.7c0,0.7-0.1,1.2-0.2,1.7h-6.9c-0.1-0.5-0.2-1.1-0.2-1.7
			c0-0.7,0.1-1.3,0.2-1.7h-2.2c-0.1-0.5-0.2-1.1-0.2-1.7c0-0.7,0.1-1.3,0.2-1.7c-0.1-0.5-0.2-1.1-0.2-1.7c0-0.7,0.1-1.3,0.2-1.7
			c-0.1-0.5-0.2-1.1-0.2-1.7c0-0.7,0.1-1.3,0.2-1.7c-0.1-0.5-0.2-1.1-0.2-1.7c0-0.7,0.1-1.3,0.2-1.7h3.4c0.1,0.5,0.2,1,0.2,1.7
			c0,0.7-0.1,1.2-0.2,1.7c0.1,0.5,0.2,1,0.2,1.7c0,0.7-0.1,1.2-0.2,1.7c0.1,0.5,0.2,1,0.2,1.7c0,0.7-0.1,1.2-0.2,1.7h1.3
			c0.1,0.5,0.2,1,0.2,1.7C404.4,70,404.3,70.5,404.2,71z M413.4,62.4c0,0.7-0.1,1.2-0.2,1.7c0.1,0.5,0.2,1,0.2,1.7
			c0,0.7-0.1,1.2-0.2,1.7c0.1,0.5,0.2,1,0.2,1.7c0,0.7-0.1,1.2-0.2,1.7c0.1,0.5,0.2,1,0.2,1.7c0,0.7-0.1,1.2-0.2,1.7h-3.4
			c-0.1-0.5-0.2-1.1-0.2-1.7c0-0.7,0.1-1.3,0.2-1.7h-1.3c-0.1-0.5-0.2-1.1-0.2-1.7c0-0.7,0.1-1.3,0.2-1.7h1.3
			c-0.1-0.5-0.2-1.1-0.2-1.7c0-0.7,0.1-1.3,0.2-1.7c-0.1-0.5-0.2-1.1-0.2-1.7c0-0.7,0.1-1.3,0.2-1.7c-0.1-0.5-0.2-1.1-0.2-1.7
			c0-0.7,0.1-1.3,0.2-1.7h3.4c0.1,0.5,0.2,1,0.2,1.7c0,0.7-0.1,1.2-0.2,1.7C413.4,61.2,413.4,61.7,413.4,62.4z"/>
		<path class="st0" d="M397.8,80.9v-2.2h17.6v2.2H397.8z"/>
	</g>
	<g>
		<path class="st0" d="M431.1,62.4c0,0.7-0.1,1.2-0.2,1.7h-3.4c-0.1-0.5-0.2-1.1-0.2-1.7c0-0.7,0.1-1.3,0.2-1.7h-3
			c0.1,0.5,0.2,1,0.2,1.7c0,0.7-0.1,1.2-0.2,1.7h-1.3c0.1,0.5,0.2,1,0.2,1.7c0,0.7-0.1,1.2-0.2,1.7c0.1,0.5,0.2,1,0.2,1.7
			c0,0.7-0.1,1.2-0.2,1.7h2.6c0.1,0.5,0.2,1,0.2,1.7c0,0.7-0.1,1.2-0.2,1.7h-8.6c-0.1-0.5-0.2-1.1-0.2-1.7c0-0.7,0.1-1.3,0.2-1.7
			h2.6c-0.1-0.5-0.2-1.1-0.2-1.7c0-0.7,0.1-1.3,0.2-1.7c-0.1-0.5-0.2-1.1-0.2-1.7c0-0.7,0.1-1.3,0.2-1.7c-0.1-0.5-0.2-1.1-0.2-1.7
			c0-0.7,0.1-1.3,0.2-1.7h-2.6c-0.1-0.5-0.2-1.1-0.2-1.7c0-0.7,0.1-1.3,0.2-1.7h4.3c0.1,0.5,0.2,1,0.2,1.7c0,0.7-0.1,1.2-0.2,1.7
			h1.7c-0.1-0.5-0.2-1.1-0.2-1.7c0-0.7,0.1-1.3,0.2-1.7h6.5c0.1,0.5,0.2,1,0.2,1.7c0,0.7-0.1,1.2-0.2,1.7h1.3
			C431,61.2,431.1,61.7,431.1,62.4z"/>
		<path class="st0" d="M415.4,80.9v-2.2h34.4v2.2H415.4z"/>
	</g>
	<g>
		<path class="st0" d="M465.3,60.7c0.1,0.5,0.2,1,0.2,1.7c0,0.7-0.1,1.2-0.2,1.7H464c0.1,0.5,0.2,1,0.2,1.7c0,0.7-0.1,1.2-0.2,1.7
			c0.1,0.5,0.2,1,0.2,1.7c0,0.7-0.1,1.2-0.2,1.7h-0.9c0.1,0.5,0.2,1,0.2,1.7c0,0.7-0.1,1.2-0.2,1.7h-2.6c-0.1-0.5-0.2-1.1-0.2-1.7
			c0-0.7,0.1-1.3,0.2-1.7h-0.9c-0.1-0.5-0.2-1.1-0.2-1.7c0-0.7,0.1-1.3,0.2-1.7h-2.6c0.1,0.5,0.2,1,0.2,1.7c0,0.7-0.1,1.2-0.2,1.7
			h-0.9c0.1,0.5,0.2,1,0.2,1.7c0,0.7-0.1,1.2-0.2,1.7h-2.6c-0.1-0.5-0.2-1.1-0.2-1.7c0-0.7,0.1-1.3,0.2-1.7h-0.9
			c-0.1-0.5-0.2-1.1-0.2-1.7c0-0.7,0.1-1.3,0.2-1.7c-0.1-0.5-0.2-1.1-0.2-1.7c0-0.7,0.1-1.3,0.2-1.7h-1.3c-0.1-0.5-0.2-1.1-0.2-1.7
			c0-0.7,0.1-1.3,0.2-1.7c-0.1-0.5-0.2-1.1-0.2-1.7c0-0.7,0.1-1.3,0.2-1.7h3.4c0.1,0.5,0.2,1,0.2,1.7c0,0.7-0.1,1.2-0.2,1.7
			c0.1,0.5,0.2,1,0.2,1.7c0,0.7-0.1,1.2-0.2,1.7c0.1,0.5,0.2,1,0.2,1.7c0,0.7-0.1,1.2-0.2,1.7h1.3c-0.1-0.5-0.2-1.1-0.2-1.7
			c0-0.7,0.1-1.3,0.2-1.7h0.9c-0.1-0.5-0.2-1.1-0.2-1.7c0-0.7,0.1-1.3,0.2-1.7c-0.1-0.5-0.2-1.1-0.2-1.7c0-0.7,0.1-1.3,0.2-1.7h2.6
			c0.1,0.5,0.2,1,0.2,1.7c0,0.7-0.1,1.2-0.2,1.7c0.1,0.5,0.2,1,0.2,1.7c0,0.7-0.1,1.2-0.2,1.7h0.9c0.1,0.5,0.2,1,0.2,1.7
			c0,0.7-0.1,1.2-0.2,1.7h1.3c-0.1-0.5-0.2-1.1-0.2-1.7c0-0.7,0.1-1.3,0.2-1.7c-0.1-0.5-0.2-1.1-0.2-1.7c0-0.7,0.1-1.3,0.2-1.7
			c-0.1-0.5-0.2-1.1-0.2-1.7c0-0.7,0.1-1.3,0.2-1.7h3.4c0.1,0.5,0.2,1,0.2,1.7C465.5,59.6,465.4,60.2,465.3,60.7z"/>
		<path class="st0" d="M449.8,80.9v-2.2h15.9v2.2H449.8z"/>
	</g>
	<g>
		<path class="st0" d="M479.6,72.7c0,0.7-0.1,1.2-0.2,1.7h-10.3c-0.1-0.5-0.2-1.1-0.2-1.7c0-0.7,0.1-1.3,0.2-1.7h3.4
			c-0.1-0.5-0.2-1.1-0.2-1.7c0-0.7,0.1-1.3,0.2-1.7c-0.1-0.5-0.2-1.1-0.2-1.7c0-0.7,0.1-1.3,0.2-1.7c-0.1-0.5-0.2-1.1-0.2-1.7
			c0-0.7,0.1-1.3,0.2-1.7h-2.6c-0.1-0.5-0.2-1.1-0.2-1.7c0-0.7,0.1-1.3,0.2-1.7h6c0.1,0.5,0.2,1,0.2,1.7c0,0.7-0.1,1.2-0.2,1.7
			c0.1,0.5,0.2,1,0.2,1.7c0,0.7-0.1,1.2-0.2,1.7c0.1,0.5,0.2,1,0.2,1.7c0,0.7-0.1,1.2-0.2,1.7c0.1,0.5,0.2,1,0.2,1.7
			c0,0.7-0.1,1.2-0.2,1.7h3.4C479.5,71.5,479.6,72,479.6,72.7z M472.5,53.8c-0.1-0.5-0.2-1.1-0.2-1.7c0-0.7,0.1-1.3,0.2-1.7h3.4
			c0.1,0.5,0.2,1,0.2,1.7c0,0.7-0.1,1.2-0.2,1.7H472.5z"/>
		<path class="st0" d="M465.6,80.9v-2.2h16.2v2.2H465.6z"/>
	</g>
	<g>
		<path class="st0" d="M486.5,60.7h1.7c0.1,0.5,0.2,1,0.2,1.7c0,0.7-0.1,1.2-0.2,1.7h-1.3c0.1,0.5,0.2,1,0.2,1.7
			c0,0.7-0.1,1.2-0.2,1.7c0.1,0.5,0.2,1,0.2,1.7c0,0.7-0.1,1.2-0.2,1.7c0.1,0.5,0.2,1,0.2,1.7c0,0.7-0.1,1.2-0.2,1.7h-3.4
			c-0.1-0.5-0.2-1.1-0.2-1.7c0-0.7,0.1-1.3,0.2-1.7c-0.1-0.5-0.2-1.1-0.2-1.7c0-0.7,0.1-1.3,0.2-1.7c-0.1-0.5-0.2-1.1-0.2-1.7
			c0-0.7,0.1-1.3,0.2-1.7c-0.1-0.5-0.2-1.1-0.2-1.7c0-0.7,0.1-1.3,0.2-1.7c-0.1-0.5-0.2-1.1-0.2-1.7c0-0.7,0.1-1.3,0.2-1.7h3
			c0.1,0.5,0.2,1,0.2,1.7C486.7,59.6,486.6,60.2,486.5,60.7z M497.4,65.9c0,0.7-0.1,1.2-0.2,1.7c0.1,0.5,0.2,1,0.2,1.7
			c0,0.7-0.1,1.2-0.2,1.7c0.1,0.5,0.2,1,0.2,1.7c0,0.7-0.1,1.2-0.2,1.7h-3.4c-0.1-0.5-0.2-1.1-0.2-1.7c0-0.7,0.1-1.3,0.2-1.7
			c-0.1-0.5-0.2-1.1-0.2-1.7c0-0.7,0.1-1.3,0.2-1.7c-0.1-0.5-0.2-1.1-0.2-1.7c0-0.7,0.1-1.3,0.2-1.7c-0.1-0.5-0.2-1.1-0.2-1.7
			c0-0.7,0.1-1.3,0.2-1.7h-5.6c-0.1-0.5-0.2-1.1-0.2-1.7c0-0.7,0.1-1.3,0.2-1.7h6.9c0.1,0.5,0.2,1,0.2,1.7c0,0.7-0.1,1.2-0.2,1.7
			h2.2c0.1,0.5,0.2,1,0.2,1.7c0,0.7-0.1,1.2-0.2,1.7C497.4,64.6,497.4,65.2,497.4,65.9z"/>
		<path class="st0" d="M481.8,80.9v-2.2h18.1v2.2H481.8z"/>
	</g>
	<g>
		<path class="st0" d="M504.6,60.7h1.7c0.1,0.5,0.2,1,0.2,1.7c0,0.7-0.1,1.2-0.2,1.7H505c0.1,0.5,0.2,1,0.2,1.7
			c0,0.7-0.1,1.2-0.2,1.7c0.1,0.5,0.2,1,0.2,1.7c0,0.7-0.1,1.2-0.2,1.7c0.1,0.5,0.2,1,0.2,1.7c0,0.7-0.1,1.2-0.2,1.7h-3.4
			c-0.1-0.5-0.2-1.1-0.2-1.7c0-0.7,0.1-1.3,0.2-1.7c-0.1-0.5-0.2-1.1-0.2-1.7c0-0.7,0.1-1.3,0.2-1.7c-0.1-0.5-0.2-1.1-0.2-1.7
			c0-0.7,0.1-1.3,0.2-1.7c-0.1-0.5-0.2-1.1-0.2-1.7c0-0.7,0.1-1.3,0.2-1.7c-0.1-0.5-0.2-1.1-0.2-1.7c0-0.7,0.1-1.3,0.2-1.7h3
			c0.1,0.5,0.2,1,0.2,1.7C504.8,59.6,504.7,60.2,504.6,60.7z M515.5,65.9c0,0.7-0.1,1.2-0.2,1.7c0.1,0.5,0.2,1,0.2,1.7
			c0,0.7-0.1,1.2-0.2,1.7c0.1,0.5,0.2,1,0.2,1.7c0,0.7-0.1,1.2-0.2,1.7h-3.4c-0.1-0.5-0.2-1.1-0.2-1.7c0-0.7,0.1-1.3,0.2-1.7
			c-0.1-0.5-0.2-1.1-0.2-1.7c0-0.7,0.1-1.3,0.2-1.7c-0.1-0.5-0.2-1.1-0.2-1.7c0-0.7,0.1-1.3,0.2-1.7c-0.1-0.5-0.2-1.1-0.2-1.7
			c0-0.7,0.1-1.3,0.2-1.7h-5.6c-0.1-0.5-0.2-1.1-0.2-1.7c0-0.7,0.1-1.3,0.2-1.7h6.9c0.1,0.5,0.2,1,0.2,1.7c0,0.7-0.1,1.2-0.2,1.7
			h2.1c0.1,0.5,0.2,1,0.2,1.7c0,0.7-0.1,1.2-0.2,1.7C515.5,64.6,515.5,65.2,515.5,65.9z"/>
		<path class="st0" d="M499.9,80.9v-2.2h16.3v2.2H499.9z"/>
	</g>
	<g>
		<path class="st0" d="M530.1,72.7c0,0.7-0.1,1.2-0.2,1.7h-10.3c-0.1-0.5-0.2-1.1-0.2-1.7c0-0.7,0.1-1.3,0.2-1.7h3.4
			c-0.1-0.5-0.2-1.1-0.2-1.7c0-0.7,0.1-1.3,0.2-1.7c-0.1-0.5-0.2-1.1-0.2-1.7c0-0.7,0.1-1.3,0.2-1.7c-0.1-0.5-0.2-1.1-0.2-1.7
			c0-0.7,0.1-1.3,0.2-1.7h-2.6c-0.1-0.5-0.2-1.1-0.2-1.7c0-0.7,0.1-1.3,0.2-1.7h6c0.1,0.5,0.2,1,0.2,1.7c0,0.7-0.1,1.2-0.2,1.7
			c0.1,0.5,0.2,1,0.2,1.7c0,0.7-0.1,1.2-0.2,1.7c0.1,0.5,0.2,1,0.2,1.7c0,0.7-0.1,1.2-0.2,1.7c0.1,0.5,0.2,1,0.2,1.7
			c0,0.7-0.1,1.2-0.2,1.7h3.4C530,71.5,530.1,72,530.1,72.7z M523,53.8c-0.1-0.5-0.2-1.1-0.2-1.7c0-0.7,0.1-1.3,0.2-1.7h3.4
			c0.1,0.5,0.2,1,0.2,1.7c0,0.7-0.1,1.2-0.2,1.7H523z"/>
		<path class="st0" d="M516.1,80.9v-2.2h16.2v2.2H516.1z"/>
	</g>
	<g>
		<path class="st0" d="M537,60.7h1.7c0.1,0.5,0.2,1,0.2,1.7c0,0.7-0.1,1.2-0.2,1.7h-1.3c0.1,0.5,0.2,1,0.2,1.7
			c0,0.7-0.1,1.2-0.2,1.7c0.1,0.5,0.2,1,0.2,1.7c0,0.7-0.1,1.2-0.2,1.7c0.1,0.5,0.2,1,0.2,1.7c0,0.7-0.1,1.2-0.2,1.7H534
			c-0.1-0.5-0.2-1.1-0.2-1.7c0-0.7,0.1-1.3,0.2-1.7c-0.1-0.5-0.2-1.1-0.2-1.7c0-0.7,0.1-1.3,0.2-1.7c-0.1-0.5-0.2-1.1-0.2-1.7
			c0-0.7,0.1-1.3,0.2-1.7c-0.1-0.5-0.2-1.1-0.2-1.7c0-0.7,0.1-1.3,0.2-1.7c-0.1-0.5-0.2-1.1-0.2-1.7c0-0.7,0.1-1.3,0.2-1.7h3
			c0.1,0.5,0.2,1,0.2,1.7C537.2,59.6,537.1,60.2,537,60.7z M547.9,65.9c0,0.7-0.1,1.2-0.2,1.7c0.1,0.5,0.2,1,0.2,1.7
			c0,0.7-0.1,1.2-0.2,1.7c0.1,0.5,0.2,1,0.2,1.7c0,0.7-0.1,1.2-0.2,1.7h-3.4c-0.1-0.5-0.2-1.1-0.2-1.7c0-0.7,0.1-1.3,0.2-1.7
			c-0.1-0.5-0.2-1.1-0.2-1.7c0-0.7,0.1-1.3,0.2-1.7c-0.1-0.5-0.2-1.1-0.2-1.7c0-0.7,0.1-1.3,0.2-1.7c-0.1-0.5-0.2-1.1-0.2-1.7
			c0-0.7,0.1-1.3,0.2-1.7h-5.6c-0.1-0.5-0.2-1.1-0.2-1.7c0-0.7,0.1-1.3,0.2-1.7h6.9c0.1,0.5,0.2,1,0.2,1.7c0,0.7-0.1,1.2-0.2,1.7
			h2.2c0.1,0.5,0.2,1,0.2,1.7c0,0.7-0.1,1.2-0.2,1.7C547.9,64.6,547.9,65.2,547.9,65.9z"/>
		<path class="st0" d="M532.3,80.9v-2.2h17.4v2.2H532.3z"/>
	</g>
	<g class="st1">
		<path class="st0" d="M565.3,62.4c0,0.7-0.1,1.2-0.2,1.7c0.1,0.5,0.2,1,0.2,1.7c0,0.7-0.1,1.2-0.2,1.7c0.1,0.5,0.2,1,0.2,1.7
			c0,0.7-0.1,1.2-0.2,1.7c0.1,0.5,0.2,1,0.2,1.7c0,0.7-0.1,1.2-0.2,1.7h-1.7c0.1,0.5,0.2,1,0.2,1.7c0,0.7-0.1,1.2-0.2,1.7h-1.7
			c0.1,0.5,0.2,1,0.2,1.7c0,0.7-0.1,1.2-0.2,1.7h-6.9c-0.1-0.5-0.2-1.1-0.2-1.7c0-0.7,0.1-1.3,0.2-1.7h5.2c-0.1-0.5-0.2-1.1-0.2-1.7
			c0-0.7,0.1-1.3,0.2-1.7h1.7c-0.1-0.5-0.2-1.1-0.2-1.7c0-0.7,0.1-1.3,0.2-1.7H560c-0.1-0.5-0.2-1.1-0.2-1.7c0-0.7,0.1-1.3,0.2-1.7
			h1.7c-0.1-0.5-0.2-1.1-0.2-1.7c0-0.7,0.1-1.3,0.2-1.7c-0.1-0.5-0.2-1.1-0.2-1.7c0-0.7,0.1-1.3,0.2-1.7h-5.6c0.1,0.5,0.2,1,0.2,1.7
			c0,0.7-0.1,1.2-0.2,1.7h-1.3c0.1,0.5,0.2,1,0.2,1.7c0,0.7-0.1,1.2-0.2,1.7h1.3c0.1,0.5,0.2,1,0.2,1.7c0,0.7-0.1,1.2-0.2,1.7h3.9
			c0.1,0.5,0.2,1,0.2,1.7c0,0.7-0.1,1.2-0.2,1.7h-5.2c-0.1-0.5-0.2-1.1-0.2-1.7c0-0.7,0.1-1.3,0.2-1.7h-2.2
			c-0.1-0.5-0.2-1.1-0.2-1.7c0-0.7,0.1-1.3,0.2-1.7h-1.3c-0.1-0.5-0.2-1.1-0.2-1.7c0-0.7,0.1-1.3,0.2-1.7h1.3
			c-0.1-0.5-0.2-1.1-0.2-1.7c0-0.7,0.1-1.3,0.2-1.7h2.2c-0.1-0.5-0.2-1.1-0.2-1.7c0-0.7,0.1-1.3,0.2-1.7h10.3c0.1,0.5,0.2,1,0.2,1.7
			c0,0.7-0.1,1.2-0.2,1.7C565.3,61.2,565.3,61.7,565.3,62.4z"/>
	</g>
</g>
</svg>
