<?xml version="1.0" encoding="utf-8"?>
<!-- Generator: Adobe Illustrator 24.0.3, SVG Export Plug-In . SVG Version: 6.00 Build 0)  -->
<svg version="1.1" id="Livello_1" xmlns="http://www.w3.org/2000/svg" xmlns:xlink="http://www.w3.org/1999/xlink" x="0px" y="0px"
	 viewBox="0 0 442.5 128.4" style="enable-background:new 0 0 442.5 128.4;" xml:space="preserve">
<style type="text/css">
	.st0{enable-background:new    ;}
	.st1{fill:#FFFFFF;}
</style>
<title>type</title>
<g>
	<polyline points="18.8,128.4 40,128.4 61.2,128.4 82.3,128.4 103.5,128.4 124.7,128.4 145.9,128.4 167.1,128.4 188.3,128.4 
		209.5,128.4 230.6,128.4 251.8,128.4 273,128.4 294.2,128.4 315.4,128.4 336.6,128.4 357.8,128.4 378.9,128.4 400.1,128.4 
		421.3,128.4 421.3,107 442.5,107 442.5,85.6 442.5,64.2 442.5,42.8 442.5,21.4 421.3,21.4 421.3,0 400.1,0 378.9,0 357.8,0 
		336.6,0 315.4,0 294.2,0 273,0 251.8,0 230.6,0 209.5,0 188.3,0 167.1,0 145.9,0 124.7,0 103.5,0 82.3,0 61.2,0 40,0 18.8,0 	"/>
	<polyline points="21.2,0 21.2,21.4 0,21.4 0,42.8 0,64.2 0,85.6 0,107 21.2,107 21.2,128.4 	"/>
</g>
<g>
	<g class="st0">
		<path class="st1" d="M110.1,70.7c0.1,0.5,0.2,1,0.2,1.7s-0.1,1.2-0.2,1.7h-6.9c-0.1-0.5-0.2-1.1-0.2-1.7c0-0.7,0.1-1.3,0.2-1.7
			h-1.7c-0.1-0.5-0.2-1.1-0.2-1.7c0-0.7,0.1-1.3,0.2-1.7c-0.1-0.5-0.2-1.1-0.2-1.7c0-0.7,0.1-1.3,0.2-1.7c-0.1-0.5-0.2-1.1-0.2-1.7
			c0-0.7,0.1-1.3,0.2-1.7h-3.4c-0.1-0.5-0.2-1.1-0.2-1.7c0-0.7,0.1-1.3,0.2-1.7h3.4c-0.1-0.5-0.2-1.1-0.2-1.7c0-0.7,0.1-1.3,0.2-1.7
			c-0.1-0.5-0.2-1.1-0.2-1.7c0-0.7,0.1-1.3,0.2-1.7h3.4c0.1,0.5,0.2,1,0.2,1.7s-0.1,1.2-0.2,1.7c0.1,0.5,0.2,1,0.2,1.7
			s-0.1,1.2-0.2,1.7h5.2c0.1,0.5,0.2,1,0.2,1.7s-0.1,1.2-0.2,1.7h-5.2c0.1,0.5,0.2,1,0.2,1.7s-0.1,1.2-0.2,1.7
			c0.1,0.5,0.2,1,0.2,1.7s-0.1,1.2-0.2,1.7c0.1,0.5,0.2,1,0.2,1.7s-0.1,1.2-0.2,1.7H110.1z"/>
	</g>
	<g class="st0">
		<path class="st1" d="M128,60.4h-1.3c0.1,0.5,0.2,1,0.2,1.7s-0.1,1.2-0.2,1.7h-1.3c0.1,0.5,0.2,1,0.2,1.7s-0.1,1.2-0.2,1.7h-0.9
			c0.1,0.5,0.2,1,0.2,1.7s-0.1,1.2-0.2,1.7h-1.3c0.1,0.5,0.2,1,0.2,1.7s-0.1,1.2-0.2,1.7h-0.8c0.1,0.5,0.2,1,0.2,1.7
			s-0.1,1.2-0.2,1.7h-1.7c0.1,0.5,0.2,1,0.2,1.7s-0.1,1.2-0.2,1.7h-5.2c-0.1-0.5-0.2-1.1-0.2-1.7c0-0.7,0.1-1.3,0.2-1.7h3.4
			c-0.1-0.5-0.2-1.1-0.2-1.7c0-0.7,0.1-1.3,0.2-1.7c-0.1-0.5-0.2-1.1-0.2-1.7c0-0.7,0.1-1.3,0.2-1.7h-1.7c-0.1-0.5-0.2-1.1-0.2-1.7
			c0-0.7,0.1-1.3,0.2-1.7h-0.8c-0.1-0.5-0.2-1.1-0.2-1.7c0-0.7,0.1-1.3,0.2-1.7h-1.3c-0.1-0.5-0.2-1.1-0.2-1.7
			c0-0.7,0.1-1.3,0.2-1.7h-1.3c-0.1-0.5-0.2-1.1-0.2-1.7c0-0.7,0.1-1.3,0.2-1.7h3.4c0.1,0.5,0.2,1,0.2,1.7s-0.1,1.2-0.2,1.7h1.3
			c0.1,0.5,0.2,1,0.2,1.7s-0.1,1.2-0.2,1.7h1.3c0.1,0.5,0.2,1,0.2,1.7s-0.1,1.2-0.2,1.7c0.1,0.5,0.2,1,0.2,1.7s-0.1,1.2-0.2,1.7h1.3
			c-0.1-0.5-0.2-1.1-0.2-1.7c0-0.7,0.1-1.3,0.2-1.7h0.9c-0.1-0.5-0.2-1.1-0.2-1.7c0-0.7,0.1-1.3,0.2-1.7h1.3
			c-0.1-0.5-0.2-1.1-0.2-1.7c0-0.7,0.1-1.3,0.2-1.7h1.3c-0.1-0.5-0.2-1.1-0.2-1.7c0-0.7,0.1-1.3,0.2-1.7h3.4c0.1,0.5,0.2,1,0.2,1.7
			C128.1,59.4,128.1,59.9,128,60.4z"/>
	</g>
	<g class="st0">
		<path class="st1" d="M145.1,67.3h-1.7c0.1,0.5,0.2,1,0.2,1.7s-0.1,1.2-0.2,1.7h-1.7c0.1,0.5,0.2,1,0.2,1.7s-0.1,1.2-0.2,1.7h-6.9
			c0.1,0.5,0.2,1,0.2,1.7s-0.1,1.2-0.2,1.7c0.1,0.5,0.2,1,0.2,1.7s-0.1,1.2-0.2,1.7h-3.4c-0.1-0.5-0.2-1.1-0.2-1.7
			c0-0.7,0.1-1.3,0.2-1.7c-0.1-0.5-0.2-1.1-0.2-1.7c0-0.7,0.1-1.3,0.2-1.7c-0.1-0.5-0.2-1.1-0.2-1.7c0-0.7,0.1-1.3,0.2-1.7
			c-0.1-0.5-0.2-1.1-0.2-1.7c0-0.7,0.1-1.3,0.2-1.7c-0.1-0.5-0.2-1.1-0.2-1.7c0-0.7,0.1-1.3,0.2-1.7c-0.1-0.5-0.2-1.1-0.2-1.7
			c0-0.7,0.1-1.3,0.2-1.7c-0.1-0.5-0.2-1.1-0.2-1.7c0-0.7,0.1-1.3,0.2-1.7h3.4c0.1,0.5,0.2,1,0.2,1.7s-0.1,1.2-0.2,1.7h1.7
			c0.1,0.5,0.2,1,0.2,1.7s-0.1,1.2-0.2,1.7h-1.7c0.1,0.5,0.2,1,0.2,1.7s-0.1,1.2-0.2,1.7c0.1,0.5,0.2,1,0.2,1.7s-0.1,1.2-0.2,1.7
			h5.2c-0.1-0.5-0.2-1.1-0.2-1.7c0-0.7,0.1-1.3,0.2-1.7h1.7c-0.1-0.5-0.2-1.1-0.2-1.7c0-0.7,0.1-1.3,0.2-1.7H140
			c-0.1-0.5-0.2-1.1-0.2-1.7c0-0.7,0.1-1.3,0.2-1.7h-3.4c-0.1-0.5-0.2-1.1-0.2-1.7c0-0.7,0.1-1.3,0.2-1.7h5.2c0.1,0.5,0.2,1,0.2,1.7
			s-0.1,1.2-0.2,1.7h1.7c0.1,0.5,0.2,1,0.2,1.7s-0.1,1.2-0.2,1.7h1.7c0.1,0.5,0.2,1,0.2,1.7C145.3,66.2,145.2,66.8,145.1,67.3z"/>
	</g>
	<g class="st0">
		<path class="st1" d="M162,63.9c0.1,0.5,0.2,1,0.2,1.7s-0.1,1.2-0.2,1.7h-9c0.1,0.5,0.2,1,0.2,1.7s-0.1,1.2-0.2,1.7h7.3
			c0.1,0.5,0.2,1,0.2,1.7s-0.1,1.2-0.2,1.7h-8.6c-0.1-0.5-0.2-1.1-0.2-1.7c0-0.7,0.1-1.3,0.2-1.7h-2.1c-0.1-0.5-0.2-1.1-0.2-1.7
			c0-0.7,0.1-1.3,0.2-1.7h-1.3c-0.1-0.5-0.2-1.1-0.2-1.7c0-0.7,0.1-1.3,0.2-1.7h1.3c-0.1-0.5-0.2-1.1-0.2-1.7c0-0.7,0.1-1.3,0.2-1.7
			h2.1c-0.1-0.5-0.2-1.1-0.2-1.7c0-0.7,0.1-1.3,0.2-1.7h8.6c0.1,0.5,0.2,1,0.2,1.7s-0.1,1.2-0.2,1.7h1.7c0.1,0.5,0.2,1,0.2,1.7
			C162.2,62.8,162.1,63.4,162,63.9z M158.4,62.1c0-0.7,0.1-1.3,0.2-1.7H153c0.1,0.5,0.2,1,0.2,1.7s-0.1,1.2-0.2,1.7h5.6
			C158.4,63.4,158.4,62.8,158.4,62.1z"/>
	</g>
	<g class="st0">
		<path class="st1" d="M196.4,60.4h-1.3c0.1,0.5,0.2,1,0.2,1.7s-0.1,1.2-0.2,1.7h-1.3c0.1,0.5,0.2,1,0.2,1.7s-0.1,1.2-0.2,1.7h-0.9
			c0.1,0.5,0.2,1,0.2,1.7s-0.1,1.2-0.2,1.7h-1.3c0.1,0.5,0.2,1,0.2,1.7s-0.1,1.2-0.2,1.7h-0.9c0.1,0.5,0.2,1,0.2,1.7
			s-0.1,1.2-0.2,1.7H189c0.1,0.5,0.2,1,0.2,1.7s-0.1,1.2-0.2,1.7h-5.2c-0.1-0.5-0.2-1.1-0.2-1.7c0-0.7,0.1-1.3,0.2-1.7h3.4
			c-0.1-0.5-0.2-1.1-0.2-1.7c0-0.7,0.1-1.3,0.2-1.7c-0.1-0.5-0.2-1.1-0.2-1.7c0-0.7,0.1-1.3,0.2-1.7h-1.7c-0.1-0.5-0.2-1.1-0.2-1.7
			c0-0.7,0.1-1.3,0.2-1.7h-0.9c-0.1-0.5-0.2-1.1-0.2-1.7c0-0.7,0.1-1.3,0.2-1.7h-1.3c-0.1-0.5-0.2-1.1-0.2-1.7
			c0-0.7,0.1-1.3,0.2-1.7H182c-0.1-0.5-0.2-1.1-0.2-1.7c0-0.7,0.1-1.3,0.2-1.7h3.4c0.1,0.5,0.2,1,0.2,1.7s-0.1,1.2-0.2,1.7h1.3
			c0.1,0.5,0.2,1,0.2,1.7s-0.1,1.2-0.2,1.7h1.3c0.1,0.5,0.2,1,0.2,1.7s-0.1,1.2-0.2,1.7c0.1,0.5,0.2,1,0.2,1.7s-0.1,1.2-0.2,1.7h1.3
			c-0.1-0.5-0.2-1.1-0.2-1.7c0-0.7,0.1-1.3,0.2-1.7h0.9c-0.1-0.5-0.2-1.1-0.2-1.7c0-0.7,0.1-1.3,0.2-1.7h1.3
			c-0.1-0.5-0.2-1.1-0.2-1.7c0-0.7,0.1-1.3,0.2-1.7h1.3c-0.1-0.5-0.2-1.1-0.2-1.7c0-0.7,0.1-1.3,0.2-1.7h3.4c0.1,0.5,0.2,1,0.2,1.7
			C196.6,59.4,196.5,59.9,196.4,60.4z"/>
	</g>
	<g class="st0">
		<path class="st1" d="M212.6,67.3h-1.3c0.1,0.5,0.2,1,0.2,1.7s-0.1,1.2-0.2,1.7h-2.1c0.1,0.5,0.2,1,0.2,1.7s-0.1,1.2-0.2,1.7h-6.9
			c-0.1-0.5-0.2-1.1-0.2-1.7c0-0.7,0.1-1.3,0.2-1.7h-2.1c-0.1-0.5-0.2-1.1-0.2-1.7c0-0.7,0.1-1.3,0.2-1.7h-1.3
			c-0.1-0.5-0.2-1.1-0.2-1.7c0-0.7,0.1-1.3,0.2-1.7h1.3c-0.1-0.5-0.2-1.1-0.2-1.7c0-0.7,0.1-1.3,0.2-1.7h2.1
			c-0.1-0.5-0.2-1.1-0.2-1.7c0-0.7,0.1-1.3,0.2-1.7h6.9c0.1,0.5,0.2,1,0.2,1.7s-0.1,1.2-0.2,1.7h2.1c0.1,0.5,0.2,1,0.2,1.7
			s-0.1,1.2-0.2,1.7h1.3c0.1,0.5,0.2,1,0.2,1.7C212.8,66.2,212.7,66.8,212.6,67.3z M209.2,67.3c-0.1-0.5-0.2-1.1-0.2-1.7
			c0-0.7,0.1-1.3,0.2-1.7h-1.3c-0.1-0.5-0.2-1.1-0.2-1.7c0-0.7,0.1-1.3,0.2-1.7h-4.3c0.1,0.5,0.2,1,0.2,1.7s-0.1,1.2-0.2,1.7h-1.3
			c0.1,0.5,0.2,1,0.2,1.7s-0.1,1.2-0.2,1.7h1.3c0.1,0.5,0.2,1,0.2,1.7s-0.1,1.2-0.2,1.7h4.3c-0.1-0.5-0.2-1.1-0.2-1.7
			c0-0.7,0.1-1.3,0.2-1.7H209.2z"/>
	</g>
	<g class="st0">
		<path class="st1" d="M220.9,70.7h4.3c0.1,0.5,0.2,1,0.2,1.7s-0.1,1.2-0.2,1.7h-6.8c-0.1-0.5-0.2-1.1-0.2-1.7
			c0-0.7,0.1-1.3,0.2-1.7h-2.2c-0.1-0.5-0.2-1.1-0.2-1.7c0-0.7,0.1-1.3,0.2-1.7c-0.1-0.5-0.2-1.1-0.2-1.7c0-0.7,0.1-1.3,0.2-1.7
			c-0.1-0.5-0.2-1.1-0.2-1.7c0-0.7,0.1-1.3,0.2-1.7c-0.1-0.5-0.2-1.1-0.2-1.7c0-0.7,0.1-1.3,0.2-1.7h3.4c0.1,0.5,0.2,1,0.2,1.7
			s-0.1,1.2-0.2,1.7c0.1,0.5,0.2,1,0.2,1.7s-0.1,1.2-0.2,1.7c0.1,0.5,0.2,1,0.2,1.7s-0.1,1.2-0.2,1.7h1.3c0.1,0.5,0.2,1,0.2,1.7
			C221.1,69.7,221.1,70.3,220.9,70.7z M230.1,62.1c0,0.7-0.1,1.2-0.2,1.7c0.1,0.5,0.2,1,0.2,1.7s-0.1,1.2-0.2,1.7
			c0.1,0.5,0.2,1,0.2,1.7s-0.1,1.2-0.2,1.7c0.1,0.5,0.2,1,0.2,1.7s-0.1,1.2-0.2,1.7h-3.4c-0.1-0.5-0.2-1.1-0.2-1.7
			c0-0.7,0.1-1.3,0.2-1.7h-1.3c-0.1-0.5-0.2-1.1-0.2-1.7c0-0.7,0.1-1.3,0.2-1.7h1.3c-0.1-0.5-0.2-1.1-0.2-1.7c0-0.7,0.1-1.3,0.2-1.7
			c-0.1-0.5-0.2-1.1-0.2-1.7c0-0.7,0.1-1.3,0.2-1.7c-0.1-0.5-0.2-1.1-0.2-1.7c0-0.7,0.1-1.3,0.2-1.7h3.4c0.1,0.5,0.2,1,0.2,1.7
			s-0.1,1.2-0.2,1.7C230.1,60.9,230.1,61.5,230.1,62.1z"/>
	</g>
	<g class="st0">
		<path class="st1" d="M247.8,62.1c0,0.7-0.1,1.2-0.2,1.7h-3.4c-0.1-0.5-0.2-1.1-0.2-1.7c0-0.7,0.1-1.3,0.2-1.7h-3
			c0.1,0.5,0.2,1,0.2,1.7s-0.1,1.2-0.2,1.7h-1.3c0.1,0.5,0.2,1,0.2,1.7s-0.1,1.2-0.2,1.7c0.1,0.5,0.2,1,0.2,1.7s-0.1,1.2-0.2,1.7
			h2.6c0.1,0.5,0.2,1,0.2,1.7s-0.1,1.2-0.2,1.7h-8.6c-0.1-0.5-0.2-1.1-0.2-1.7c0-0.7,0.1-1.3,0.2-1.7h2.6c-0.1-0.5-0.2-1.1-0.2-1.7
			c0-0.7,0.1-1.3,0.2-1.7c-0.1-0.5-0.2-1.1-0.2-1.7c0-0.7,0.1-1.3,0.2-1.7c-0.1-0.5-0.2-1.1-0.2-1.7c0-0.7,0.1-1.3,0.2-1.7h-2.6
			c-0.1-0.5-0.2-1.1-0.2-1.7c0-0.7,0.1-1.3,0.2-1.7h4.3c0.1,0.5,0.2,1,0.2,1.7s-0.1,1.2-0.2,1.7h1.7c-0.1-0.5-0.2-1.1-0.2-1.7
			c0-0.7,0.1-1.3,0.2-1.7h6.5c0.1,0.5,0.2,1,0.2,1.7s-0.1,1.2-0.2,1.7h1.3C247.7,60.9,247.8,61.5,247.8,62.1z"/>
	</g>
	<g class="st0">
		<path class="st1" d="M271.3,60.4h1.7c0.1,0.5,0.2,1,0.2,1.7s-0.1,1.2-0.2,1.7h-1.3c0.1,0.5,0.2,1,0.2,1.7s-0.1,1.2-0.2,1.7
			c0.1,0.5,0.2,1,0.2,1.7s-0.1,1.2-0.2,1.7c0.1,0.5,0.2,1,0.2,1.7s-0.1,1.2-0.2,1.7h-3.4c-0.1-0.5-0.2-1.1-0.2-1.7
			c0-0.7,0.1-1.3,0.2-1.7c-0.1-0.5-0.2-1.1-0.2-1.7c0-0.7,0.1-1.3,0.2-1.7c-0.1-0.5-0.2-1.1-0.2-1.7c0-0.7,0.1-1.3,0.2-1.7
			c-0.1-0.5-0.2-1.1-0.2-1.7c0-0.7,0.1-1.3,0.2-1.7c-0.1-0.5-0.2-1.1-0.2-1.7c0-0.7,0.1-1.3,0.2-1.7h3c0.1,0.5,0.2,1,0.2,1.7
			C271.4,59.4,271.4,59.9,271.3,60.4z M282.2,65.6c0,0.7-0.1,1.2-0.2,1.7c0.1,0.5,0.2,1,0.2,1.7s-0.1,1.2-0.2,1.7
			c0.1,0.5,0.2,1,0.2,1.7s-0.1,1.2-0.2,1.7h-3.4c-0.1-0.5-0.2-1.1-0.2-1.7c0-0.7,0.1-1.3,0.2-1.7c-0.1-0.5-0.2-1.1-0.2-1.7
			c0-0.7,0.1-1.3,0.2-1.7c-0.1-0.5-0.2-1.1-0.2-1.7c0-0.7,0.1-1.3,0.2-1.7c-0.1-0.5-0.2-1.1-0.2-1.7c0-0.7,0.1-1.3,0.2-1.7H273
			c-0.1-0.5-0.2-1.1-0.2-1.7c0-0.7,0.1-1.3,0.2-1.7h6.9c0.1,0.5,0.2,1,0.2,1.7s-0.1,1.2-0.2,1.7h2.2c0.1,0.5,0.2,1,0.2,1.7
			s-0.1,1.2-0.2,1.7C282.1,64.3,282.2,64.9,282.2,65.6z"/>
	</g>
	<g class="st0">
		<path class="st1" d="M299.5,72.5c0,0.7-0.1,1.2-0.2,1.7h-3.4c-0.1-0.5-0.2-1.1-0.2-1.7c0-0.7,0.1-1.3,0.2-1.7h-1.7
			c-0.1-0.5-0.2-1.1-0.2-1.7c0-0.7,0.1-1.3,0.2-1.7H289c0.1,0.5,0.2,1,0.2,1.7s-0.1,1.2-0.2,1.7h5.2c0.1,0.5,0.2,1,0.2,1.7
			s-0.1,1.2-0.2,1.7h-6.9c-0.1-0.5-0.2-1.1-0.2-1.7c0-0.7,0.1-1.3,0.2-1.7h-1.7c-0.1-0.5-0.2-1.1-0.2-1.7c0-0.7,0.1-1.3,0.2-1.7h1.7
			c-0.1-0.5-0.2-1.1-0.2-1.7c0-0.7,0.1-1.3,0.2-1.7h6.9c-0.1-0.5-0.2-1.1-0.2-1.7c0-0.7,0.1-1.3,0.2-1.7h-6
			c-0.1-0.5-0.2-1.1-0.2-1.7c0-0.7,0.1-1.3,0.2-1.7h7.7c0.1,0.5,0.2,1,0.2,1.7s-0.1,1.2-0.2,1.7h1.7c0.1,0.5,0.2,1,0.2,1.7
			s-0.1,1.2-0.2,1.7c0.1,0.5,0.2,1,0.2,1.7s-0.1,1.2-0.2,1.7c0.1,0.5,0.2,1,0.2,1.7s-0.1,1.2-0.2,1.7h1.7
			C299.5,71.2,299.5,71.8,299.5,72.5z"/>
	</g>
	<g class="st0">
		<path class="st1" d="M305.3,60.4h1.3c0.1,0.5,0.2,1,0.2,1.7s-0.1,1.2-0.2,1.7c0.1,0.5,0.2,1,0.2,1.7s-0.1,1.2-0.2,1.7
			c0.1,0.5,0.2,1,0.2,1.7s-0.1,1.2-0.2,1.7c0.1,0.5,0.2,1,0.2,1.7s-0.1,1.2-0.2,1.7h-3.4c-0.1-0.5-0.2-1.1-0.2-1.7
			c0-0.7,0.1-1.3,0.2-1.7c-0.1-0.5-0.2-1.1-0.2-1.7c0-0.7,0.1-1.3,0.2-1.7c-0.1-0.5-0.2-1.1-0.2-1.7c0-0.7,0.1-1.3,0.2-1.7
			c-0.1-0.5-0.2-1.1-0.2-1.7c0-0.7,0.1-1.3,0.2-1.7c-0.1-0.5-0.2-1.1-0.2-1.7c0-0.7,0.1-1.3,0.2-1.7h2.2c0.1,0.5,0.2,1,0.2,1.7
			C305.4,59.4,305.4,59.9,305.3,60.4z M310,60.4h1.3c0.1,0.5,0.2,1,0.2,1.7s-0.1,1.2-0.2,1.7c0.1,0.5,0.2,1,0.2,1.7
			s-0.1,1.2-0.2,1.7c0.1,0.5,0.2,1,0.2,1.7s-0.1,1.2-0.2,1.7c0.1,0.5,0.2,1,0.2,1.7s-0.1,1.2-0.2,1.7h-2.6c-0.1-0.5-0.2-1.1-0.2-1.7
			c0-0.7,0.1-1.3,0.2-1.7c-0.1-0.5-0.2-1.1-0.2-1.7c0-0.7,0.1-1.3,0.2-1.7c-0.1-0.5-0.2-1.1-0.2-1.7c0-0.7,0.1-1.3,0.2-1.7
			c-0.1-0.5-0.2-1.1-0.2-1.7c0-0.7,0.1-1.3,0.2-1.7h-2.1c-0.1-0.5-0.2-1.1-0.2-1.7c0-0.7,0.1-1.3,0.2-1.7h3.4c0.1,0.5,0.2,1,0.2,1.7
			C310.2,59.4,310.1,59.9,310,60.4z M317,65.6c0,0.7-0.1,1.2-0.2,1.7c0.1,0.5,0.2,1,0.2,1.7s-0.1,1.2-0.2,1.7c0.1,0.5,0.2,1,0.2,1.7
			s-0.1,1.2-0.2,1.7h-3.4c-0.1-0.5-0.2-1.1-0.2-1.7c0-0.7,0.1-1.3,0.2-1.7c-0.1-0.5-0.2-1.1-0.2-1.7c0-0.7,0.1-1.3,0.2-1.7
			c-0.1-0.5-0.2-1.1-0.2-1.7c0-0.7,0.1-1.3,0.2-1.7c-0.1-0.5-0.2-1.1-0.2-1.7c0-0.7,0.1-1.3,0.2-1.7h-2.2c-0.1-0.5-0.2-1.1-0.2-1.7
			c0-0.7,0.1-1.3,0.2-1.7h3.9c0.1,0.5,0.2,1,0.2,1.7s-0.1,1.2-0.2,1.7h1.7c0.1,0.5,0.2,1,0.2,1.7s-0.1,1.2-0.2,1.7
			C317,64.3,317,64.9,317,65.6z"/>
	</g>
	<g class="st0">
		<path class="st1" d="M334.3,63.9c0.1,0.5,0.2,1,0.2,1.7s-0.1,1.2-0.2,1.7h-9c0.1,0.5,0.2,1,0.2,1.7s-0.1,1.2-0.2,1.7h7.3
			c0.1,0.5,0.2,1,0.2,1.7s-0.1,1.2-0.2,1.7H324c-0.1-0.5-0.2-1.1-0.2-1.7c0-0.7,0.1-1.3,0.2-1.7h-2.2c-0.1-0.5-0.2-1.1-0.2-1.7
			c0-0.7,0.1-1.3,0.2-1.7h-1.3c-0.1-0.5-0.2-1.1-0.2-1.7c0-0.7,0.1-1.3,0.2-1.7h1.3c-0.1-0.5-0.2-1.1-0.2-1.7c0-0.7,0.1-1.3,0.2-1.7
			h2.2c-0.1-0.5-0.2-1.1-0.2-1.7c0-0.7,0.1-1.3,0.2-1.7h8.6c0.1,0.5,0.2,1,0.2,1.7s-0.1,1.2-0.2,1.7h1.7c0.1,0.5,0.2,1,0.2,1.7
			C334.5,62.8,334.4,63.4,334.3,63.9z M330.7,62.1c0-0.7,0.1-1.3,0.2-1.7h-5.6c0.1,0.5,0.2,1,0.2,1.7s-0.1,1.2-0.2,1.7h5.6
			C330.7,63.4,330.7,62.8,330.7,62.1z"/>
	</g>
	<g class="st0">
		<path class="st1" d="M344.4,57c0.1,0.5,0.2,1,0.2,1.7s-0.1,1.2-0.2,1.7h-4.3c-0.1-0.5-0.2-1.1-0.2-1.7c0-0.7,0.1-1.3,0.2-1.7
			c-0.1-0.5-0.2-1.1-0.2-1.7c0-0.7,0.1-1.3,0.2-1.7h4.3c0.1,0.5,0.2,1,0.2,1.7C344.6,55.9,344.5,56.5,344.4,57z M344.6,69
			c0,0.7-0.1,1.2-0.2,1.7c0.1,0.5,0.2,1,0.2,1.7s-0.1,1.2-0.2,1.7h-4.3c-0.1-0.5-0.2-1.1-0.2-1.7c0-0.7,0.1-1.3,0.2-1.7
			c-0.1-0.5-0.2-1.1-0.2-1.7c0-0.7,0.1-1.3,0.2-1.7h4.3C344.5,67.8,344.6,68.3,344.6,69z"/>
	</g>
</g>
</svg>
