<?xml version="1.0" encoding="utf-8"?>
<!-- Generator: Adobe Illustrator 24.0.3, SVG Export Plug-In . SVG Version: 6.00 Build 0)  -->
<svg version="1.1" id="Livello_1" xmlns="http://www.w3.org/2000/svg" xmlns:xlink="http://www.w3.org/1999/xlink" x="0px" y="0px"
	 viewBox="0 0 614.4 128.4" style="enable-background:new 0 0 614.4 128.4;" xml:space="preserve">
<style type="text/css">
	.st0{enable-background:new    ;}
	.st1{fill:#FFFFFF;}
</style>
<title>type</title>
<g id="Livello_12">
	<g>
		<polygon points="593.2,0 572,0 550.8,0 529.7,0 508.5,0 487.3,0 466.1,0 444.9,0 423.7,0 402.5,0 381.4,0 360.2,0 339,0 317.8,0 
			296.6,0 275.4,0 254.2,0 233.1,0 211.9,0 190.7,0 169.5,0 148.3,0 127.1,0 105.9,0 84.7,0 63.6,0 42.4,0 21.2,0 21.2,21.4 0,21.4 
			0,42.8 0,64.2 0,85.6 0,107 21.2,107 21.2,128.4 42.4,128.4 63.6,128.4 84.7,128.4 105.9,128.4 127.1,128.4 148.3,128.4 
			169.5,128.4 190.7,128.4 211.9,128.4 233.1,128.4 254.2,128.4 275.4,128.4 296.6,128.4 317.8,128.4 339,128.4 360.2,128.4 
			381.4,128.4 402.5,128.4 423.7,128.4 444.9,128.4 466.1,128.4 487.3,128.4 508.5,128.4 529.7,128.4 550.8,128.4 572,128.4 
			593.2,128.4 593.2,107 614.4,107 614.4,85.6 614.4,64.2 614.4,42.8 614.4,21.4 593.2,21.4 		"/>
	</g>
	<g class="st0">
		<path class="st1" d="M193.7,70.7c0.1,0.5,0.2,1,0.2,1.7c0,0.7-0.1,1.2-0.2,1.7h-6.9c-0.1-0.5-0.2-1.1-0.2-1.7
			c0-0.7,0.1-1.3,0.2-1.7h-1.7c-0.1-0.5-0.2-1.1-0.2-1.7c0-0.7,0.1-1.3,0.2-1.7c-0.1-0.5-0.2-1.1-0.2-1.7c0-0.7,0.1-1.3,0.2-1.7
			c-0.1-0.5-0.2-1.1-0.2-1.7c0-0.7,0.1-1.3,0.2-1.7h-3.4c-0.1-0.5-0.2-1.1-0.2-1.7c0-0.7,0.1-1.3,0.2-1.7h3.4
			c-0.1-0.5-0.2-1.1-0.2-1.7c0-0.7,0.1-1.3,0.2-1.7c-0.1-0.5-0.2-1.1-0.2-1.7c0-0.7,0.1-1.3,0.2-1.7h3.4c0.1,0.5,0.2,1,0.2,1.7
			c0,0.7-0.1,1.2-0.2,1.7c0.1,0.5,0.2,1,0.2,1.7c0,0.7-0.1,1.2-0.2,1.7h5.2c0.1,0.5,0.2,1,0.2,1.7c0,0.7-0.1,1.2-0.2,1.7h-5.2
			c0.1,0.5,0.2,1,0.2,1.7c0,0.7-0.1,1.2-0.2,1.7c0.1,0.5,0.2,1,0.2,1.7c0,0.7-0.1,1.2-0.2,1.7c0.1,0.5,0.2,1,0.2,1.7
			c0,0.7-0.1,1.2-0.2,1.7H193.7z"/>
	</g>
	<g class="st0">
		<path class="st1" d="M211.6,60.4h-1.3c0.1,0.5,0.2,1,0.2,1.7c0,0.7-0.1,1.2-0.2,1.7H209c0.1,0.5,0.2,1,0.2,1.7
			c0,0.7-0.1,1.2-0.2,1.7h-0.9c0.1,0.5,0.2,1,0.2,1.7c0,0.7-0.1,1.2-0.2,1.7h-1.3c0.1,0.5,0.2,1,0.2,1.7c0,0.7-0.1,1.2-0.2,1.7H206
			c0.1,0.5,0.2,1,0.2,1.7c0,0.7-0.1,1.2-0.2,1.7h-1.7c0.1,0.5,0.2,1,0.2,1.7c0,0.7-0.1,1.2-0.2,1.7h-5.2c-0.1-0.5-0.2-1.1-0.2-1.7
			c0-0.7,0.1-1.3,0.2-1.7h3.4c-0.1-0.5-0.2-1.1-0.2-1.7c0-0.7,0.1-1.3,0.2-1.7c-0.1-0.5-0.2-1.1-0.2-1.7c0-0.7,0.1-1.3,0.2-1.7h-1.7
			c-0.1-0.5-0.2-1.1-0.2-1.7c0-0.7,0.1-1.3,0.2-1.7H200c-0.1-0.5-0.2-1.1-0.2-1.7c0-0.7,0.1-1.3,0.2-1.7h-1.3
			c-0.1-0.5-0.2-1.1-0.2-1.7c0-0.7,0.1-1.3,0.2-1.7h-1.3c-0.1-0.5-0.2-1.1-0.2-1.7c0-0.7,0.1-1.3,0.2-1.7h3.4c0.1,0.5,0.2,1,0.2,1.7
			c0,0.7-0.1,1.2-0.2,1.7h1.3c0.1,0.5,0.2,1,0.2,1.7c0,0.7-0.1,1.2-0.2,1.7h1.3c0.1,0.5,0.2,1,0.2,1.7c0,0.7-0.1,1.2-0.2,1.7
			c0.1,0.5,0.2,1,0.2,1.7c0,0.7-0.1,1.2-0.2,1.7h1.3c-0.1-0.5-0.2-1.1-0.2-1.7c0-0.7,0.1-1.3,0.2-1.7h0.9c-0.1-0.5-0.2-1.1-0.2-1.7
			c0-0.7,0.1-1.3,0.2-1.7h1.3c-0.1-0.5-0.2-1.1-0.2-1.7c0-0.7,0.1-1.3,0.2-1.7h1.3c-0.1-0.5-0.2-1.1-0.2-1.7c0-0.7,0.1-1.3,0.2-1.7
			h3.4c0.1,0.5,0.2,1,0.2,1.7C211.7,59.4,211.7,59.9,211.6,60.4z"/>
	</g>
	<g class="st0">
		<path class="st1" d="M228.7,67.3H227c0.1,0.5,0.2,1,0.2,1.7c0,0.7-0.1,1.2-0.2,1.7h-1.7c0.1,0.5,0.2,1,0.2,1.7
			c0,0.7-0.1,1.2-0.2,1.7h-6.9c0.1,0.5,0.2,1,0.2,1.7c0,0.7-0.1,1.2-0.2,1.7c0.1,0.5,0.2,1,0.2,1.7c0,0.7-0.1,1.2-0.2,1.7H215
			c-0.1-0.5-0.2-1.1-0.2-1.7c0-0.7,0.1-1.3,0.2-1.7c-0.1-0.5-0.2-1.1-0.2-1.7c0-0.7,0.1-1.3,0.2-1.7c-0.1-0.5-0.2-1.1-0.2-1.7
			c0-0.7,0.1-1.3,0.2-1.7c-0.1-0.5-0.2-1.1-0.2-1.7c0-0.7,0.1-1.3,0.2-1.7c-0.1-0.5-0.2-1.1-0.2-1.7c0-0.7,0.1-1.3,0.2-1.7
			c-0.1-0.5-0.2-1.1-0.2-1.7c0-0.7,0.1-1.3,0.2-1.7c-0.1-0.5-0.2-1.1-0.2-1.7c0-0.7,0.1-1.3,0.2-1.7h3.4c0.1,0.5,0.2,1,0.2,1.7
			c0,0.7-0.1,1.2-0.2,1.7h1.7c0.1,0.5,0.2,1,0.2,1.7c0,0.7-0.1,1.2-0.2,1.7h-1.7c0.1,0.5,0.2,1,0.2,1.7c0,0.7-0.1,1.2-0.2,1.7
			c0.1,0.5,0.2,1,0.2,1.7c0,0.7-0.1,1.2-0.2,1.7h5.2c-0.1-0.5-0.2-1.1-0.2-1.7c0-0.7,0.1-1.3,0.2-1.7h1.7c-0.1-0.5-0.2-1.1-0.2-1.7
			c0-0.7,0.1-1.3,0.2-1.7h-1.7c-0.1-0.5-0.2-1.1-0.2-1.7c0-0.7,0.1-1.3,0.2-1.7h-3.4c-0.1-0.5-0.2-1.1-0.2-1.7
			c0-0.7,0.1-1.3,0.2-1.7h5.2c0.1,0.5,0.2,1,0.2,1.7c0,0.7-0.1,1.2-0.2,1.7h1.7c0.1,0.5,0.2,1,0.2,1.7c0,0.7-0.1,1.2-0.2,1.7h1.7
			c0.1,0.5,0.2,1,0.2,1.7C228.9,66.2,228.8,66.8,228.7,67.3z"/>
	</g>
	<g class="st0">
		<path class="st1" d="M245.6,63.9c0.1,0.5,0.2,1,0.2,1.7c0,0.7-0.1,1.2-0.2,1.7h-9c0.1,0.5,0.2,1,0.2,1.7c0,0.7-0.1,1.2-0.2,1.7
			h7.3c0.1,0.5,0.2,1,0.2,1.7c0,0.7-0.1,1.2-0.2,1.7h-8.6c-0.1-0.5-0.2-1.1-0.2-1.7c0-0.7,0.1-1.3,0.2-1.7h-2.1
			c-0.1-0.5-0.2-1.1-0.2-1.7c0-0.7,0.1-1.3,0.2-1.7h-1.3c-0.1-0.5-0.2-1.1-0.2-1.7c0-0.7,0.1-1.3,0.2-1.7h1.3
			c-0.1-0.5-0.2-1.1-0.2-1.7c0-0.7,0.1-1.3,0.2-1.7h2.1c-0.1-0.5-0.2-1.1-0.2-1.7c0-0.7,0.1-1.3,0.2-1.7h8.6c0.1,0.5,0.2,1,0.2,1.7
			c0,0.7-0.1,1.2-0.2,1.7h1.7c0.1,0.5,0.2,1,0.2,1.7C245.8,62.8,245.7,63.4,245.6,63.9z M242,62.1c0-0.7,0.1-1.3,0.2-1.7h-5.6
			c0.1,0.5,0.2,1,0.2,1.7c0,0.7-0.1,1.2-0.2,1.7h5.6C242,63.4,242,62.8,242,62.1z"/>
	</g>
	<g class="st0">
		<path class="st1" d="M280,60.4h-1.3c0.1,0.5,0.2,1,0.2,1.7c0,0.7-0.1,1.2-0.2,1.7h-1.3c0.1,0.5,0.2,1,0.2,1.7
			c0,0.7-0.1,1.2-0.2,1.7h-0.9c0.1,0.5,0.2,1,0.2,1.7c0,0.7-0.1,1.2-0.2,1.7h-1.3c0.1,0.5,0.2,1,0.2,1.7c0,0.7-0.1,1.2-0.2,1.7h-0.9
			c0.1,0.5,0.2,1,0.2,1.7c0,0.7-0.1,1.2-0.2,1.7h-1.7c0.1,0.5,0.2,1,0.2,1.7c0,0.7-0.1,1.2-0.2,1.7h-5.2c-0.1-0.5-0.2-1.1-0.2-1.7
			c0-0.7,0.1-1.3,0.2-1.7h3.4c-0.1-0.5-0.2-1.1-0.2-1.7c0-0.7,0.1-1.3,0.2-1.7c-0.1-0.5-0.2-1.1-0.2-1.7c0-0.7,0.1-1.3,0.2-1.7h-1.7
			c-0.1-0.5-0.2-1.1-0.2-1.7c0-0.7,0.1-1.3,0.2-1.7h-0.9c-0.1-0.5-0.2-1.1-0.2-1.7c0-0.7,0.1-1.3,0.2-1.7h-1.3
			c-0.1-0.5-0.2-1.1-0.2-1.7c0-0.7,0.1-1.3,0.2-1.7h-1.3c-0.1-0.5-0.2-1.1-0.2-1.7c0-0.7,0.1-1.3,0.2-1.7h3.4c0.1,0.5,0.2,1,0.2,1.7
			c0,0.7-0.1,1.2-0.2,1.7h1.3c0.1,0.5,0.2,1,0.2,1.7c0,0.7-0.1,1.2-0.2,1.7h1.3c0.1,0.5,0.2,1,0.2,1.7c0,0.7-0.1,1.2-0.2,1.7
			c0.1,0.5,0.2,1,0.2,1.7c0,0.7-0.1,1.2-0.2,1.7h1.3c-0.1-0.5-0.2-1.1-0.2-1.7c0-0.7,0.1-1.3,0.2-1.7h0.9c-0.1-0.5-0.2-1.1-0.2-1.7
			c0-0.7,0.1-1.3,0.2-1.7h1.3c-0.1-0.5-0.2-1.1-0.2-1.7c0-0.7,0.1-1.3,0.2-1.7h1.3c-0.1-0.5-0.2-1.1-0.2-1.7c0-0.7,0.1-1.3,0.2-1.7
			h3.4c0.1,0.5,0.2,1,0.2,1.7C280.2,59.4,280.1,59.9,280,60.4z"/>
	</g>
	<g class="st0">
		<path class="st1" d="M296.2,67.3h-1.3c0.1,0.5,0.2,1,0.2,1.7c0,0.7-0.1,1.2-0.2,1.7h-2.1c0.1,0.5,0.2,1,0.2,1.7
			c0,0.7-0.1,1.2-0.2,1.7h-6.9c-0.1-0.5-0.2-1.1-0.2-1.7c0-0.7,0.1-1.3,0.2-1.7h-2.1c-0.1-0.5-0.2-1.1-0.2-1.7
			c0-0.7,0.1-1.3,0.2-1.7h-1.3c-0.1-0.5-0.2-1.1-0.2-1.7c0-0.7,0.1-1.3,0.2-1.7h1.3c-0.1-0.5-0.2-1.1-0.2-1.7c0-0.7,0.1-1.3,0.2-1.7
			h2.1c-0.1-0.5-0.2-1.1-0.2-1.7c0-0.7,0.1-1.3,0.2-1.7h6.9c0.1,0.5,0.2,1,0.2,1.7c0,0.7-0.1,1.2-0.2,1.7h2.1c0.1,0.5,0.2,1,0.2,1.7
			c0,0.7-0.1,1.2-0.2,1.7h1.3c0.1,0.5,0.2,1,0.2,1.7C296.4,66.2,296.3,66.8,296.2,67.3z M292.8,67.3c-0.1-0.5-0.2-1.1-0.2-1.7
			c0-0.7,0.1-1.3,0.2-1.7h-1.3c-0.1-0.5-0.2-1.1-0.2-1.7c0-0.7,0.1-1.3,0.2-1.7h-4.3c0.1,0.5,0.2,1,0.2,1.7c0,0.7-0.1,1.2-0.2,1.7
			h-1.3c0.1,0.5,0.2,1,0.2,1.7c0,0.7-0.1,1.2-0.2,1.7h1.3c0.1,0.5,0.2,1,0.2,1.7c0,0.7-0.1,1.2-0.2,1.7h4.3
			c-0.1-0.5-0.2-1.1-0.2-1.7c0-0.7,0.1-1.3,0.2-1.7H292.8z"/>
	</g>
	<g class="st0">
		<path class="st1" d="M304.5,70.7h4.3c0.1,0.5,0.2,1,0.2,1.7c0,0.7-0.1,1.2-0.2,1.7H302c-0.1-0.5-0.2-1.1-0.2-1.7
			c0-0.7,0.1-1.3,0.2-1.7h-2.2c-0.1-0.5-0.2-1.1-0.2-1.7c0-0.7,0.1-1.3,0.2-1.7c-0.1-0.5-0.2-1.1-0.2-1.7c0-0.7,0.1-1.3,0.2-1.7
			c-0.1-0.5-0.2-1.1-0.2-1.7c0-0.7,0.1-1.3,0.2-1.7c-0.1-0.5-0.2-1.1-0.2-1.7c0-0.7,0.1-1.3,0.2-1.7h3.4c0.1,0.5,0.2,1,0.2,1.7
			c0,0.7-0.1,1.2-0.2,1.7c0.1,0.5,0.2,1,0.2,1.7c0,0.7-0.1,1.2-0.2,1.7c0.1,0.5,0.2,1,0.2,1.7c0,0.7-0.1,1.2-0.2,1.7h1.3
			c0.1,0.5,0.2,1,0.2,1.7C304.7,69.7,304.7,70.3,304.5,70.7z M313.7,62.1c0,0.7-0.1,1.2-0.2,1.7c0.1,0.5,0.2,1,0.2,1.7
			c0,0.7-0.1,1.2-0.2,1.7c0.1,0.5,0.2,1,0.2,1.7c0,0.7-0.1,1.2-0.2,1.7c0.1,0.5,0.2,1,0.2,1.7c0,0.7-0.1,1.2-0.2,1.7h-3.4
			c-0.1-0.5-0.2-1.1-0.2-1.7c0-0.7,0.1-1.3,0.2-1.7h-1.3c-0.1-0.5-0.2-1.1-0.2-1.7c0-0.7,0.1-1.3,0.2-1.7h1.3
			c-0.1-0.5-0.2-1.1-0.2-1.7c0-0.7,0.1-1.3,0.2-1.7c-0.1-0.5-0.2-1.1-0.2-1.7c0-0.7,0.1-1.3,0.2-1.7c-0.1-0.5-0.2-1.1-0.2-1.7
			c0-0.7,0.1-1.3,0.2-1.7h3.4c0.1,0.5,0.2,1,0.2,1.7c0,0.7-0.1,1.2-0.2,1.7C313.7,60.9,313.7,61.5,313.7,62.1z"/>
	</g>
	<g class="st0">
		<path class="st1" d="M331.4,62.1c0,0.7-0.1,1.2-0.2,1.7h-3.4c-0.1-0.5-0.2-1.1-0.2-1.7c0-0.7,0.1-1.3,0.2-1.7h-3
			c0.1,0.5,0.2,1,0.2,1.7c0,0.7-0.1,1.2-0.2,1.7h-1.3c0.1,0.5,0.2,1,0.2,1.7c0,0.7-0.1,1.2-0.2,1.7c0.1,0.5,0.2,1,0.2,1.7
			c0,0.7-0.1,1.2-0.2,1.7h2.6c0.1,0.5,0.2,1,0.2,1.7c0,0.7-0.1,1.2-0.2,1.7h-8.6c-0.1-0.5-0.2-1.1-0.2-1.7c0-0.7,0.1-1.3,0.2-1.7
			h2.6c-0.1-0.5-0.2-1.1-0.2-1.7c0-0.7,0.1-1.3,0.2-1.7c-0.1-0.5-0.2-1.1-0.2-1.7c0-0.7,0.1-1.3,0.2-1.7c-0.1-0.5-0.2-1.1-0.2-1.7
			c0-0.7,0.1-1.3,0.2-1.7h-2.6c-0.1-0.5-0.2-1.1-0.2-1.7c0-0.7,0.1-1.3,0.2-1.7h4.3c0.1,0.5,0.2,1,0.2,1.7c0,0.7-0.1,1.2-0.2,1.7
			h1.7c-0.1-0.5-0.2-1.1-0.2-1.7c0-0.7,0.1-1.3,0.2-1.7h6.5c0.1,0.5,0.2,1,0.2,1.7c0,0.7-0.1,1.2-0.2,1.7h1.3
			C331.3,60.9,331.4,61.5,331.4,62.1z"/>
	</g>
	<g class="st0">
		<path class="st1" d="M354.9,60.4h1.7c0.1,0.5,0.2,1,0.2,1.7c0,0.7-0.1,1.2-0.2,1.7h-1.3c0.1,0.5,0.2,1,0.2,1.7
			c0,0.7-0.1,1.2-0.2,1.7c0.1,0.5,0.2,1,0.2,1.7c0,0.7-0.1,1.2-0.2,1.7c0.1,0.5,0.2,1,0.2,1.7c0,0.7-0.1,1.2-0.2,1.7h-3.4
			c-0.1-0.5-0.2-1.1-0.2-1.7c0-0.7,0.1-1.3,0.2-1.7c-0.1-0.5-0.2-1.1-0.2-1.7c0-0.7,0.1-1.3,0.2-1.7c-0.1-0.5-0.2-1.1-0.2-1.7
			c0-0.7,0.1-1.3,0.2-1.7c-0.1-0.5-0.2-1.1-0.2-1.7c0-0.7,0.1-1.3,0.2-1.7c-0.1-0.5-0.2-1.1-0.2-1.7c0-0.7,0.1-1.3,0.2-1.7h3
			c0.1,0.5,0.2,1,0.2,1.7C355,59.4,355,59.9,354.9,60.4z M365.8,65.6c0,0.7-0.1,1.2-0.2,1.7c0.1,0.5,0.2,1,0.2,1.7
			c0,0.7-0.1,1.2-0.2,1.7c0.1,0.5,0.2,1,0.2,1.7c0,0.7-0.1,1.2-0.2,1.7h-3.4c-0.1-0.5-0.2-1.1-0.2-1.7c0-0.7,0.1-1.3,0.2-1.7
			c-0.1-0.5-0.2-1.1-0.2-1.7c0-0.7,0.1-1.3,0.2-1.7c-0.1-0.5-0.2-1.1-0.2-1.7c0-0.7,0.1-1.3,0.2-1.7c-0.1-0.5-0.2-1.1-0.2-1.7
			c0-0.7,0.1-1.3,0.2-1.7h-5.6c-0.1-0.5-0.2-1.1-0.2-1.7c0-0.7,0.1-1.3,0.2-1.7h6.9c0.1,0.5,0.2,1,0.2,1.7c0,0.7-0.1,1.2-0.2,1.7
			h2.2c0.1,0.5,0.2,1,0.2,1.7c0,0.7-0.1,1.2-0.2,1.7C365.7,64.3,365.8,64.9,365.8,65.6z"/>
	</g>
	<g class="st0">
		<path class="st1" d="M383.1,72.5c0,0.7-0.1,1.2-0.2,1.7h-3.4c-0.1-0.5-0.2-1.1-0.2-1.7c0-0.7,0.1-1.3,0.2-1.7h-1.7
			c-0.1-0.5-0.2-1.1-0.2-1.7c0-0.7,0.1-1.3,0.2-1.7h-5.2c0.1,0.5,0.2,1,0.2,1.7c0,0.7-0.1,1.2-0.2,1.7h5.2c0.1,0.5,0.2,1,0.2,1.7
			c0,0.7-0.1,1.2-0.2,1.7h-6.9c-0.1-0.5-0.2-1.1-0.2-1.7c0-0.7,0.1-1.3,0.2-1.7h-1.7c-0.1-0.5-0.2-1.1-0.2-1.7
			c0-0.7,0.1-1.3,0.2-1.7h1.7c-0.1-0.5-0.2-1.1-0.2-1.7c0-0.7,0.1-1.3,0.2-1.7h6.9c-0.1-0.5-0.2-1.1-0.2-1.7c0-0.7,0.1-1.3,0.2-1.7
			h-6c-0.1-0.5-0.2-1.1-0.2-1.7c0-0.7,0.1-1.3,0.2-1.7h7.7c0.1,0.5,0.2,1,0.2,1.7c0,0.7-0.1,1.2-0.2,1.7h1.7c0.1,0.5,0.2,1,0.2,1.7
			c0,0.7-0.1,1.2-0.2,1.7c0.1,0.5,0.2,1,0.2,1.7c0,0.7-0.1,1.2-0.2,1.7c0.1,0.5,0.2,1,0.2,1.7c0,0.7-0.1,1.2-0.2,1.7h1.7
			C383.1,71.2,383.1,71.8,383.1,72.5z"/>
	</g>
	<g class="st0">
		<path class="st1" d="M388.9,60.4h1.3c0.1,0.5,0.2,1,0.2,1.7c0,0.7-0.1,1.2-0.2,1.7c0.1,0.5,0.2,1,0.2,1.7c0,0.7-0.1,1.2-0.2,1.7
			c0.1,0.5,0.2,1,0.2,1.7c0,0.7-0.1,1.2-0.2,1.7c0.1,0.5,0.2,1,0.2,1.7c0,0.7-0.1,1.2-0.2,1.7h-3.4c-0.1-0.5-0.2-1.1-0.2-1.7
			c0-0.7,0.1-1.3,0.2-1.7c-0.1-0.5-0.2-1.1-0.2-1.7c0-0.7,0.1-1.3,0.2-1.7c-0.1-0.5-0.2-1.1-0.2-1.7c0-0.7,0.1-1.3,0.2-1.7
			c-0.1-0.5-0.2-1.1-0.2-1.7c0-0.7,0.1-1.3,0.2-1.7c-0.1-0.5-0.2-1.1-0.2-1.7c0-0.7,0.1-1.3,0.2-1.7h2.2c0.1,0.5,0.2,1,0.2,1.7
			C389,59.4,389,59.9,388.9,60.4z M393.6,60.4h1.3c0.1,0.5,0.2,1,0.2,1.7c0,0.7-0.1,1.2-0.2,1.7c0.1,0.5,0.2,1,0.2,1.7
			c0,0.7-0.1,1.2-0.2,1.7c0.1,0.5,0.2,1,0.2,1.7c0,0.7-0.1,1.2-0.2,1.7c0.1,0.5,0.2,1,0.2,1.7c0,0.7-0.1,1.2-0.2,1.7h-2.6
			c-0.1-0.5-0.2-1.1-0.2-1.7c0-0.7,0.1-1.3,0.2-1.7c-0.1-0.5-0.2-1.1-0.2-1.7c0-0.7,0.1-1.3,0.2-1.7c-0.1-0.5-0.2-1.1-0.2-1.7
			c0-0.7,0.1-1.3,0.2-1.7c-0.1-0.5-0.2-1.1-0.2-1.7c0-0.7,0.1-1.3,0.2-1.7h-2.1c-0.1-0.5-0.2-1.1-0.2-1.7c0-0.7,0.1-1.3,0.2-1.7h3.4
			c0.1,0.5,0.2,1,0.2,1.7C393.8,59.4,393.7,59.9,393.6,60.4z M400.6,65.6c0,0.7-0.1,1.2-0.2,1.7c0.1,0.5,0.2,1,0.2,1.7
			c0,0.7-0.1,1.2-0.2,1.7c0.1,0.5,0.2,1,0.2,1.7c0,0.7-0.1,1.2-0.2,1.7H397c-0.1-0.5-0.2-1.1-0.2-1.7c0-0.7,0.1-1.3,0.2-1.7
			c-0.1-0.5-0.2-1.1-0.2-1.7c0-0.7,0.1-1.3,0.2-1.7c-0.1-0.5-0.2-1.1-0.2-1.7c0-0.7,0.1-1.3,0.2-1.7c-0.1-0.5-0.2-1.1-0.2-1.7
			c0-0.7,0.1-1.3,0.2-1.7h-2.2c-0.1-0.5-0.2-1.1-0.2-1.7c0-0.7,0.1-1.3,0.2-1.7h3.9c0.1,0.5,0.2,1,0.2,1.7c0,0.7-0.1,1.2-0.2,1.7
			h1.7c0.1,0.5,0.2,1,0.2,1.7c0,0.7-0.1,1.2-0.2,1.7C400.6,64.3,400.6,64.9,400.6,65.6z"/>
	</g>
	<g class="st0">
		<path class="st1" d="M417.9,63.9c0.1,0.5,0.2,1,0.2,1.7c0,0.7-0.1,1.2-0.2,1.7h-9c0.1,0.5,0.2,1,0.2,1.7c0,0.7-0.1,1.2-0.2,1.7
			h7.3c0.1,0.5,0.2,1,0.2,1.7c0,0.7-0.1,1.2-0.2,1.7h-8.6c-0.1-0.5-0.2-1.1-0.2-1.7c0-0.7,0.1-1.3,0.2-1.7h-2.2
			c-0.1-0.5-0.2-1.1-0.2-1.7c0-0.7,0.1-1.3,0.2-1.7h-1.3c-0.1-0.5-0.2-1.1-0.2-1.7c0-0.7,0.1-1.3,0.2-1.7h1.3
			c-0.1-0.5-0.2-1.1-0.2-1.7c0-0.7,0.1-1.3,0.2-1.7h2.2c-0.1-0.5-0.2-1.1-0.2-1.7c0-0.7,0.1-1.3,0.2-1.7h8.6c0.1,0.5,0.2,1,0.2,1.7
			c0,0.7-0.1,1.2-0.2,1.7h1.7c0.1,0.5,0.2,1,0.2,1.7C418.1,62.8,418,63.4,417.9,63.9z M414.3,62.1c0-0.7,0.1-1.3,0.2-1.7h-5.6
			c0.1,0.5,0.2,1,0.2,1.7c0,0.7-0.1,1.2-0.2,1.7h5.6C414.3,63.4,414.3,62.8,414.3,62.1z"/>
	</g>
	<g class="st0">
		<path class="st1" d="M428,57c0.1,0.5,0.2,1,0.2,1.7c0,0.7-0.1,1.2-0.2,1.7h-4.3c-0.1-0.5-0.2-1.1-0.2-1.7c0-0.7,0.1-1.3,0.2-1.7
			c-0.1-0.5-0.2-1.1-0.2-1.7c0-0.7,0.1-1.3,0.2-1.7h4.3c0.1,0.5,0.2,1,0.2,1.7C428.2,55.9,428.1,56.5,428,57z M428.2,69
			c0,0.7-0.1,1.2-0.2,1.7c0.1,0.5,0.2,1,0.2,1.7c0,0.7-0.1,1.2-0.2,1.7h-4.3c-0.1-0.5-0.2-1.1-0.2-1.7c0-0.7,0.1-1.3,0.2-1.7
			c-0.1-0.5-0.2-1.1-0.2-1.7c0-0.7,0.1-1.3,0.2-1.7h4.3C428.1,67.8,428.2,68.3,428.2,69z"/>
	</g>
</g>
</svg>
