<svg xmlns="http://www.w3.org/2000/svg" width="614.403" height="128.38" viewBox="0 0 614.403 128.38"><title>type</title><g id="Livello_12" data-name="Livello 12"><polygon points="593.217 0 572.031 0 550.846 0 529.66 0 508.466 0 487.281 0 466.095 0 444.909 0 423.723 0 402.538 0 381.352 0 360.166 0 338.98 0 317.794 0 296.609 0 275.423 0 254.237 0 233.051 0 211.865 0 190.672 0 169.486 0 148.301 0 127.115 0 105.929 0 84.743 0 63.557 0 42.372 0 21.186 0 21.186 21.399 0 21.399 0 42.798 0 64.19 0 85.589 0 106.981 21.186 106.981 21.186 128.38 42.372 128.38 63.557 128.38 84.743 128.38 105.929 128.38 127.115 128.38 148.301 128.38 169.486 128.38 190.672 128.38 211.865 128.38 233.051 128.38 254.237 128.38 275.423 128.38 296.609 128.38 317.794 128.38 338.98 128.38 360.166 128.38 381.352 128.38 402.538 128.38 423.723 128.38 444.909 128.38 466.095 128.38 487.281 128.38 508.466 128.38 529.66 128.38 550.846 128.38 572.031 128.38 593.217 128.38 593.217 106.981 614.403 106.981 614.403 85.589 614.403 64.19 614.403 42.798 614.403 21.399 593.217 21.399 593.217 0"/><text transform="translate(179.9279 74.1868)" font-size="43" fill="#fff" font-family="VT323-Regular, VT323"><tspan letter-spacing="-0.0243em">t</tspan><tspan x="16.1548" y="0" letter-spacing="-0.0009em">y</tspan><tspan x="33.3159" y="0" letter-spacing="-0.008em">p</tspan><tspan x="50.1714" y="0">e </tspan><tspan x="84.5708" y="0" letter-spacing="-0.022em">y</tspan><tspan x="100.8247" y="0" letter-spacing="0.0033em">o</tspan><tspan x="118.166" y="0" letter-spacing="0.0105em">u</tspan><tspan x="135.8174" y="0">r </tspan><tspan x="170.2168" y="0" letter-spacing="0.0033em">n</tspan><tspan x="187.5586" y="0" letter-spacing="0.0071em">a</tspan><tspan x="205.0635" y="0" letter-spacing="0.0053em">m</tspan><tspan x="222.4912" y="0" letter-spacing="-0.0545em">e</tspan><tspan x="237.3472" y="0">:</tspan></text></g></svg>