<svg xmlns="http://www.w3.org/2000/svg" width="953.383" height="1797.2692" viewBox="0 0 953.383 1797.2692"><title>bucato</title><g id="Livello_12" data-name="Livello 12"><polygon points="148.308 85.589 169.494 85.589 190.68 85.589 211.865 85.589 233.051 85.589 254.237 85.589 275.423 85.589 296.609 85.589 317.794 85.589 338.98 85.589 360.166 85.589 381.359 85.589 402.545 85.589 423.731 85.589 444.917 85.589 466.102 85.589 487.288 85.589 508.474 85.589 529.66 85.589 550.845 85.589 572.032 85.589 593.217 85.589 614.403 85.589 635.589 85.589 656.774 85.589 677.96 85.589 699.154 85.589 720.34 85.589 741.525 85.589 762.711 85.589 783.897 85.589 805.083 85.589 826.268 85.589 847.454 85.589 847.454 64.19 826.268 64.19 805.083 64.19 783.897 64.19 762.711 64.19 741.525 64.19 720.34 64.19 699.154 64.19 677.96 64.19 656.774 64.19 635.589 64.19 614.403 64.19 593.217 64.19 572.032 64.19 550.845 64.19 529.66 64.19 508.474 64.19 487.288 64.19 466.102 64.19 444.917 64.19 423.731 64.19 402.545 64.19 381.359 64.19 360.166 64.19 338.98 64.19 317.794 64.19 296.609 64.19 275.423 64.19 254.237 64.19 233.051 64.19 211.865 64.19 190.68 64.19 169.494 64.19 148.308 64.19 127.122 64.19 105.936 64.19 105.936 85.589 127.122 85.589 148.308 85.589" fill="#fff"/><rect x="847.4541" y="85.5893" width="21.1858" height="21.3916" fill="#fff"/><rect x="84.7507" y="85.5893" width="21.1858" height="21.3916" fill="#fff"/><polygon points="868.64 106.981 868.64 128.38 868.64 149.772 868.64 171.171 868.64 192.563 868.64 213.962 868.64 235.361 868.64 256.753 868.64 278.152 868.64 299.544 868.64 320.943 868.64 342.334 868.64 363.734 868.64 385.133 868.64 406.524 868.64 427.924 868.64 449.315 868.64 470.715 868.64 492.114 868.64 513.505 868.64 534.905 868.64 556.296 868.64 577.695 868.64 599.087 868.64 620.486 868.64 641.886 868.64 663.277 868.64 684.676 868.64 706.068 868.64 727.467 868.64 748.867 868.64 770.258 868.64 791.657 868.64 813.049 868.64 834.448 868.64 855.84 868.64 877.239 868.64 898.638 868.64 920.03 868.64 941.429 868.64 962.821 868.64 984.22 868.64 1005.612 868.64 1027.011 868.64 1048.41 868.64 1069.802 868.64 1091.201 868.64 1112.593 868.64 1133.992 868.64 1155.391 868.64 1176.783 868.64 1198.182 868.64 1219.574 868.64 1240.973 868.64 1262.364 868.64 1283.764 868.64 1305.163 868.64 1326.555 868.64 1347.954 868.64 1369.345 868.64 1390.745 868.64 1412.136 868.64 1433.535 868.64 1454.935 868.64 1476.326 868.64 1497.726 868.64 1519.117 868.64 1540.516 868.64 1561.916 868.64 1583.307 868.64 1604.707 868.64 1626.098 868.64 1647.497 868.64 1668.889 868.64 1690.288 889.826 1690.288 889.826 1668.889 889.826 1647.497 889.826 1626.098 889.826 1604.707 889.826 1583.307 889.826 1561.916 889.826 1540.516 889.826 1519.117 889.826 1497.726 889.826 1476.326 889.826 1454.935 889.826 1433.535 889.826 1412.136 889.826 1390.745 889.826 1369.345 889.826 1347.954 889.826 1326.555 889.826 1305.163 889.826 1283.764 889.826 1262.364 889.826 1240.973 889.826 1219.574 889.826 1198.182 889.826 1176.783 889.826 1155.391 889.826 1133.992 889.826 1112.593 889.826 1091.201 889.826 1069.802 889.826 1048.41 889.826 1027.011 889.826 1005.612 889.826 984.22 889.826 962.821 889.826 941.429 889.826 920.03 889.826 898.638 889.826 877.239 889.826 855.84 889.826 834.448 889.826 813.049 889.826 791.657 889.826 770.258 889.826 748.867 889.826 727.467 889.826 706.068 889.826 684.676 889.826 663.277 889.826 641.886 889.826 620.486 889.826 599.087 889.826 577.695 889.826 556.296 889.826 534.905 889.826 513.505 889.826 492.114 889.826 470.715 889.826 449.315 889.826 427.924 889.826 406.524 889.826 385.133 889.826 363.734 889.826 342.334 889.826 320.943 889.826 299.544 889.826 278.152 889.826 256.753 889.826 235.361 889.826 213.962 889.826 192.563 889.826 171.171 889.826 149.772 889.826 128.38 889.826 106.981 868.64 106.981" fill="#fff"/><polygon points="84.751 1647.497 84.751 1626.098 84.751 1604.707 84.751 1583.307 84.751 1561.916 84.751 1540.516 84.751 1519.117 84.751 1497.726 84.751 1476.326 84.751 1454.935 84.751 1433.535 84.751 1412.136 84.751 1390.745 84.751 1369.345 84.751 1347.954 84.751 1326.555 84.751 1305.163 84.751 1283.764 84.751 1262.364 84.751 1240.973 84.751 1219.574 84.751 1198.182 84.751 1176.783 84.751 1155.391 84.751 1133.992 84.751 1112.593 84.751 1091.201 84.751 1069.802 84.751 1048.41 84.751 1027.011 84.751 1005.612 84.751 984.22 84.751 962.821 84.751 941.429 84.751 920.03 84.751 898.638 84.751 877.239 84.751 855.84 84.751 834.448 84.751 813.049 84.751 791.657 84.751 770.258 84.751 748.867 84.751 727.467 84.751 706.068 84.751 684.676 84.751 663.277 84.751 641.886 84.751 620.486 84.751 599.087 84.751 577.695 84.751 556.296 84.751 534.905 84.751 513.505 84.751 492.114 84.751 470.715 84.751 449.315 84.751 427.924 84.751 406.524 84.751 385.133 84.751 363.734 84.751 342.334 84.751 320.943 84.751 299.544 84.751 278.152 84.751 256.753 84.751 235.361 84.751 213.962 84.751 192.563 84.751 171.171 84.751 149.772 84.751 128.38 84.751 106.981 63.565 106.981 63.565 128.38 63.565 149.772 63.565 171.171 63.565 192.563 63.565 213.962 63.565 235.361 63.565 256.753 63.565 278.152 63.565 299.544 63.565 320.943 63.565 342.334 63.565 363.734 63.565 385.133 63.565 406.524 63.565 427.924 63.565 449.315 63.565 470.715 63.565 492.114 63.565 513.505 63.565 534.905 63.565 556.296 63.565 577.695 63.565 599.087 63.565 620.486 63.565 641.886 63.565 663.277 63.565 684.676 63.565 706.068 63.565 727.467 63.565 748.867 63.565 770.258 63.565 791.657 63.565 813.049 63.565 834.448 63.565 855.84 63.565 877.239 63.565 898.638 63.565 920.03 63.565 941.429 63.565 962.821 63.565 984.22 63.565 1005.612 63.565 1027.011 63.565 1048.41 63.565 1069.802 63.565 1091.201 63.565 1112.593 63.565 1133.992 63.565 1155.391 63.565 1176.783 63.565 1198.182 63.565 1219.574 63.565 1240.973 63.565 1262.364 63.565 1283.764 63.565 1305.163 63.565 1326.555 63.565 1347.954 63.565 1369.345 63.565 1390.745 63.565 1412.136 63.565 1433.535 63.565 1454.935 63.565 1476.326 63.565 1497.726 63.565 1519.117 63.565 1540.516 63.565 1561.916 63.565 1583.307 63.565 1604.707 63.565 1626.098 63.565 1647.497 63.565 1668.889 63.565 1690.288 84.751 1690.288 84.751 1668.889 84.751 1647.497" fill="#fff"/><rect x="847.4541" y="1690.2883" width="21.1858" height="21.3992" fill="#fff"/><rect x="84.7507" y="1690.2883" width="21.1858" height="21.3992" fill="#fff"/><polygon points="805.083 1711.688 783.897 1711.688 762.711 1711.688 741.525 1711.688 720.34 1711.688 699.154 1711.688 677.96 1711.688 656.774 1711.688 635.589 1711.688 614.403 1711.688 593.217 1711.688 572.032 1711.688 550.845 1711.688 529.66 1711.688 508.474 1711.688 487.288 1711.688 466.102 1711.688 444.917 1711.688 423.731 1711.688 402.545 1711.688 381.359 1711.688 360.166 1711.688 338.98 1711.688 317.794 1711.688 296.609 1711.688 275.423 1711.688 254.237 1711.688 233.051 1711.688 211.865 1711.688 190.68 1711.688 169.494 1711.688 148.308 1711.688 127.122 1711.688 105.936 1711.688 105.936 1733.079 127.122 1733.079 148.308 1733.079 169.494 1733.079 190.68 1733.079 211.865 1733.079 233.051 1733.079 254.237 1733.079 275.423 1733.079 296.609 1733.079 317.794 1733.079 338.98 1733.079 360.166 1733.079 381.359 1733.079 402.545 1733.079 423.731 1733.079 444.917 1733.079 466.102 1733.079 487.288 1733.079 508.474 1733.079 529.66 1733.079 550.845 1733.079 572.032 1733.079 593.217 1733.079 614.403 1733.079 635.589 1733.079 656.774 1733.079 677.96 1733.079 699.154 1733.079 720.34 1733.079 741.525 1733.079 762.711 1733.079 783.897 1733.079 805.083 1733.079 826.268 1733.079 847.454 1733.079 847.454 1711.688 826.268 1711.688 805.083 1711.688" fill="#fff"/><path d="M932.1972,85.5893V42.7907H911.0115V21.3991H868.64V0H84.7507V21.3991H42.3791V42.7907H21.1858V85.5893H0V1711.6875H21.1858v42.7909H42.3791V1775.87H84.7507v21.3992H868.64V1775.87h42.3716v-21.3916h21.1857v-42.7909H953.383V85.5893ZM868.64,1690.2883v21.3992H847.4541v21.3916H105.9365v-21.3916H84.7507v-21.3992H63.5649V106.9809H84.7507V85.5893h21.1858V64.19H847.4541V85.5893H868.64v21.3916h21.1858V1690.2883Z"/><path d="M847.4541,106.9809V85.5893H105.9365v21.3916H84.7507V1690.2883h21.1858v21.3992H847.4541v-21.3992H868.64V106.9809ZM476.6916,1187.4825c-159.5263,0-288.8481-129.3216-288.8481-288.8479S317.1653,609.7867,476.6916,609.7867,765.5394,739.1084,765.5394,898.6346,636.2178,1187.4825,476.6916,1187.4825Z"/></g></svg>